<svg width="60" height="61" viewBox="0 0 60 61" fill="none" xmlns="http://www.w3.org/2000/svg">
<path d="M30 60.6118C46.5685 60.6118 60 47.1804 60 30.6118C60 14.0433 46.5685 0.611816 30 0.611816C13.4315 0.611816 0 14.0433 0 30.6118C0 47.1804 13.4315 60.6118 30 60.6118Z" fill="#0071E3"/>
<path d="M37.3597 23.8652C37.3782 25.322 36.9631 26.7515 36.1672 27.9719C35.3713 29.1923 34.2305 30.1484 32.8898 30.7188C31.5491 31.2892 30.069 31.4481 28.6378 31.1752C27.2066 30.9024 25.8889 30.2101 24.8521 29.1865C23.8153 28.1629 23.1063 26.8541 22.8151 25.4265C22.524 23.9989 22.664 22.5169 23.2172 21.1691C23.7704 19.8212 24.7118 18.6682 25.9219 17.8568C27.132 17.0453 28.5561 16.612 30.0131 16.6119C31.9486 16.6012 33.8093 17.359 35.1867 18.7189C36.5641 20.0788 37.3456 21.9296 37.3597 23.8652Z" fill="white"/>
<path d="M44.3201 41.385C44.313 42.031 44.0515 42.6482 43.5921 43.1026C43.1328 43.5569 42.5128 43.8117 41.8667 43.8117H18.1467C17.8263 43.8134 17.5087 43.7521 17.212 43.6311C16.9153 43.5101 16.6453 43.3318 16.4175 43.1065C16.1897 42.8811 16.0084 42.6131 15.8842 42.3178C15.76 42.0224 15.6951 41.7054 15.6934 41.385C15.7003 40.2837 15.9242 39.1945 16.3521 38.1796C16.7801 37.1648 17.4037 36.2442 18.1874 35.4703C18.9711 34.6965 19.8996 34.0846 20.9198 33.6696C21.94 33.2546 23.032 33.0447 24.1334 33.0517H35.8667C38.0922 33.0375 40.2324 33.9071 41.8174 35.4695C43.4023 37.0319 44.3025 39.1595 44.3201 41.385Z" fill="white"/>
</svg>
