<svg width="17" height="17" viewBox="0 0 17 17" fill="none" xmlns="http://www.w3.org/2000/svg">
<path d="M10.9999 10.5C10.7237 10.5 10.4999 10.7239 10.4999 11C10.4999 11.2761 10.7237 11.5 10.9999 11.5V10.5ZM13.3332 11V10.5V11ZM5.49994 6.00006C5.49994 6.2762 5.7238 6.50006 5.99994 6.50006C6.27608 6.50006 6.49994 6.2762 6.49994 6.00006H5.49994ZM6.90976 1.18166L6.68276 0.736154V0.736154L6.90976 1.18166ZM6.18159 1.91003L6.6271 2.13703V2.13703L6.18159 1.91003ZM16 3.66669H15.5H16ZM15.8183 1.91003L15.3728 2.13703L15.8183 1.91003ZM15.0897 1.18166L15.3167 0.736154L15.0897 1.18166ZM15.0897 10.8183L15.3167 11.2638L15.0897 10.8183ZM16 8.33337H16.5H16ZM15.8183 10.09L16.2639 10.317L15.8183 10.09ZM8.33341 16V15.5V16ZM3.6668 16V16.5V16ZM11.0001 13.3334H11.5001H11.0001ZM10.8184 15.09L11.2639 15.317L10.8184 15.09ZM10.0897 15.8183L10.3167 16.2638L10.0897 15.8183ZM10.0897 6.18166L10.3167 5.73615L10.0897 6.18166ZM11.0001 8.66669H10.5001H11.0001ZM10.8184 6.91003L10.3729 7.13703L10.8184 6.91003ZM1.18165 6.91003L1.62716 7.13703L1.18165 6.91003ZM1.90982 6.18166L1.68282 5.73615L1.90982 6.18166ZM1.18165 15.09L0.736149 15.317H0.736149L1.18165 15.09ZM1.90982 15.8183L2.13682 15.3728L1.90982 15.8183ZM10.9999 11.5H13.3332V10.5H10.9999V11.5ZM13.3334 0.5H8.66674V1.5H13.3334V0.5ZM5.49994 3.66673V6.00006H6.49994V3.66673H5.49994ZM8.66674 0.5C8.20828 0.5 7.83429 0.499611 7.53121 0.524367C7.22233 0.549596 6.94328 0.60341 6.68276 0.736154L7.13676 1.62716C7.23275 1.57825 7.36549 1.54123 7.61262 1.52105C7.86555 1.50039 8.19179 1.5 8.66674 1.5V0.5ZM6.49994 3.66673C6.49994 3.19177 6.50033 2.86561 6.52099 2.61276C6.54117 2.36574 6.57817 2.23305 6.6271 2.13703L5.73609 1.68304C5.60336 1.94354 5.54954 2.22248 5.52431 2.53133C5.49955 2.83434 5.49994 3.20827 5.49994 3.66673H6.49994ZM6.68276 0.736154C6.27495 0.943946 5.94375 1.27549 5.73609 1.68304L6.6271 2.13703C6.73902 1.91738 6.91737 1.73894 7.13676 1.62716L6.68276 0.736154ZM16.5 3.66669C16.5 3.20823 16.5004 2.83431 16.4756 2.53131C16.4504 2.22247 16.3966 1.94353 16.2639 1.68304L15.3728 2.13703C15.4218 2.23305 15.4588 2.36574 15.479 2.61274C15.4996 2.86558 15.5 3.19173 15.5 3.66669H16.5ZM13.3334 1.5C13.8083 1.5 14.1344 1.50039 14.3871 1.52105C14.634 1.54122 14.7666 1.57822 14.8627 1.62716L15.3167 0.736154C15.0562 0.603439 14.7774 0.549606 14.4686 0.524369C14.1656 0.499611 13.7918 0.5 13.3334 0.5V1.5ZM16.2639 1.68304C16.056 1.27515 15.7241 0.943776 15.3167 0.736154L14.8627 1.62716C15.0824 1.73911 15.2611 1.91771 15.3728 2.13703L16.2639 1.68304ZM13.3332 11.5C13.7916 11.5 14.1655 11.5004 14.4685 11.4756C14.7773 11.4504 15.0562 11.3965 15.3167 11.2638L14.8627 10.3728C14.7666 10.4218 14.634 10.4588 14.387 10.4789C14.1342 10.4996 13.8081 10.5 13.3332 10.5V11.5ZM15.5 8.33337C15.5 8.80833 15.4996 9.13449 15.479 9.38732C15.4588 9.63432 15.4218 9.767 15.3728 9.86303L16.2639 10.317C16.3966 10.0565 16.4504 9.77759 16.4756 9.46875C16.5004 9.16575 16.5 8.79183 16.5 8.33337H15.5ZM15.3167 11.2638C15.7241 11.0562 16.056 10.725 16.2639 10.317L15.3728 9.86303C15.2611 10.0823 15.0824 10.2608 14.8627 10.3728L15.3167 11.2638ZM16.5 8.33337V3.66669H15.5V8.33337H16.5ZM1.5 13.3334V8.66673H0.5V13.3334H1.5ZM3.6668 6.5H8.33341V5.5H3.6668V6.5ZM8.33341 15.5H3.6668V16.5H8.33341V15.5ZM10.5001 13.3334C10.5001 13.8083 10.4997 14.1345 10.479 14.3873C10.4588 14.6343 10.4218 14.767 10.3729 14.863L11.2639 15.317C11.3966 15.0565 11.4505 14.7776 11.4757 14.4688C11.5004 14.1657 11.5001 13.7918 11.5001 13.3334H10.5001ZM8.33341 16.5C8.79187 16.5 9.1657 16.5004 9.46864 16.4756C9.77744 16.4504 10.0563 16.3965 10.3167 16.2638L9.86272 15.3728C9.76666 15.4218 9.63403 15.4588 9.38716 15.4789C9.13442 15.4996 8.80836 15.5 8.33341 15.5V16.5ZM10.3729 14.863C10.2612 15.0823 10.0825 15.2608 9.86272 15.3728L10.3167 16.2638C10.7241 16.0562 11.0561 15.725 11.2639 15.317L10.3729 14.863ZM8.33341 6.5C8.80837 6.5 9.13443 6.50039 9.38717 6.52105C9.63405 6.54122 9.76667 6.57822 9.86272 6.62716L10.3167 5.73615C10.0562 5.60344 9.77742 5.54961 9.46863 5.52437C9.1657 5.49961 8.79186 5.5 8.33341 5.5V6.5ZM11.5001 8.66669C11.5001 8.20823 11.5004 7.83431 11.4757 7.53131C11.4505 7.22247 11.3966 6.94353 11.2639 6.68304L10.3729 7.13703C10.4218 7.23305 10.4588 7.36574 10.479 7.61274C10.4997 7.86557 10.5001 8.19172 10.5001 8.66669H11.5001ZM9.86272 6.62716C10.0824 6.73911 10.2612 6.91771 10.3729 7.13703L11.2639 6.68304C11.0561 6.27515 10.7242 5.94378 10.3167 5.73615L9.86272 6.62716ZM1.5 8.66673C1.5 8.19177 1.50039 7.86561 1.52105 7.61276C1.54123 7.36574 1.57823 7.23305 1.62716 7.13703L0.736149 6.68304C0.603421 6.94354 0.5496 7.22248 0.524367 7.53133C0.499611 7.83434 0.5 8.20827 0.5 8.66673H1.5ZM3.6668 5.5C3.20834 5.5 2.83435 5.49961 2.53127 5.52437C2.22239 5.5496 1.94334 5.60341 1.68282 5.73615L2.13682 6.62716C2.23281 6.57825 2.36555 6.54123 2.61268 6.52105C2.86561 6.50039 3.19185 6.5 3.6668 6.5V5.5ZM1.62716 7.13703C1.73908 6.91738 1.91743 6.73894 2.13682 6.62716L1.68282 5.73615C1.27501 5.94395 0.943806 6.27549 0.736149 6.68304L1.62716 7.13703ZM0.5 13.3334C0.5 13.7919 0.499611 14.1658 0.524367 14.4688C0.5496 14.7776 0.603424 15.0565 0.736149 15.317L1.62716 14.863C1.57823 14.767 1.54123 14.6343 1.52105 14.3873C1.50039 14.1345 1.5 13.8084 1.5 13.3334H0.5ZM3.6668 15.5C3.19185 15.5 2.86561 15.4996 2.61269 15.4789C2.36557 15.4588 2.23282 15.4217 2.13682 15.3728L1.68282 16.2638C1.94334 16.3966 2.22237 16.4504 2.53126 16.4756C2.83434 16.5004 3.20833 16.5 3.6668 16.5V15.5ZM0.736149 15.317C0.943834 15.7246 1.27507 16.0561 1.68282 16.2638L2.13682 15.3728C1.91737 15.261 1.73905 15.0826 1.62716 14.863L0.736149 15.317ZM10.5001 8.66669V13.3334H11.5001V8.66669H10.5001Z" fill="#0071e3"/>
</svg>
