<svg width="14" height="14" viewBox="0 0 14 14" fill="none" xmlns="http://www.w3.org/2000/svg">
<path d="M6.66667 0.333496C10.3487 0.333496 13.3333 3.31816 13.3333 7.00016C13.3333 10.6822 10.3487 13.6668 6.66667 13.6668C2.98467 13.6668 0 10.6822 0 7.00016H1.33333C1.33333 9.9455 3.72133 12.3335 6.66667 12.3335C9.612 12.3335 12 9.9455 12 7.00016C12 4.05483 9.612 1.66683 6.66667 1.66683C4.83333 1.66683 3.216 2.5915 2.25667 4.00016H4V5.3335H0V1.3335H1.33333V3.00016C2.54933 1.38016 4.486 0.333496 6.66667 0.333496ZM7.33333 3.66683V6.7235L9.49533 8.8855L8.552 9.82883L6 7.2755V3.66683H7.33333Z" fill="#5A5D79"/>
</svg>
