<svg width="23" height="22" viewBox="0 0 23 22" fill="none" xmlns="http://www.w3.org/2000/svg">
<path d="M11.0827 22C17.2035 22 22.1654 17.0751 22.1654 11C22.1654 4.92487 17.2035 0 11.0827 0C4.9619 0 0 4.92487 0 11C0 17.0751 4.9619 22 11.0827 22Z" fill="#C6FFE3"/>
<path d="M16 15.7407H7L8.93421 12.6187H7.60197L9.59539 9.42078H8.3125L11.5 4.29651L14.6875 9.42078H13.4046L15.3882 12.6187H14.0658L16 15.7407Z" stroke="#00310B" stroke-width="0.27" stroke-linecap="round" stroke-linejoin="round"/>
<path d="M13.1085 19.451H9.89143L10.5131 15.7596H12.3684L13.1085 19.451Z" stroke="#00310B" stroke-width="0.27" stroke-linecap="round" stroke-linejoin="round"/>
<path d="M11.0263 2.91098L11.4803 2L11.9638 2.90149L13.0099 3.03434L12.2697 3.75554L12.4572 4.75192L11.5197 4.28694L10.5921 4.78039L10.75 3.77452L9.98026 3.0723L11.0263 2.91098Z" stroke="#00310B" stroke-width="0.27" stroke-linecap="round" stroke-linejoin="round"/>
</svg>
