<svg width="16" height="18" viewBox="0 0 16 18" fill="none" xmlns="http://www.w3.org/2000/svg">
<path d="M9.75 7.66667C9.75 8.89397 7.79125 9.88889 5.375 9.88889C2.95875 9.88889 1 8.89397 1 7.66667M9.75 7.66667C9.75 6.43937 7.79125 5.44444 5.375 5.44444C2.95875 5.44444 1 6.43937 1 7.66667M9.75 7.66667V11.2222M1 7.66667V11.2222M15 3.22222C15 1.99492 13.0412 1 10.625 1C8.89329 1 7.39657 1.51104 6.6875 2.25242M15 3.22222C15 4.04476 14.1202 4.76292 12.8125 5.14715M15 3.22222V10.7778C15 11.4358 14.1202 12.0103 12.8125 12.3177M15 7.22222C15 7.89483 14.0808 8.4802 12.7249 8.7822M9.75 11.2222C9.75 12.4495 7.79125 13.4444 5.375 13.4444C2.95875 13.4444 1 12.4495 1 11.2222M9.75 11.2222V14.7778C9.75 16.0051 7.79125 17 5.375 17C2.95875 17 1 16.0051 1 14.7778V11.2222" stroke="#fff" stroke-linecap="round" stroke-linejoin="round"/>
</svg>
