<svg width="46" height="46" viewBox="0 0 46 46" fill="none" xmlns="http://www.w3.org/2000/svg">
<circle cx="23" cy="23" r="22.5" fill="#F5F8FA" stroke="#E7E8EC"/>
<g clip-path="url(#clip0_2410_1593)">
<path d="M13.243 17.854L22.49 12.31C22.6454 12.2167 22.8233 12.1675 23.0045 12.1675C23.1857 12.1675 23.3636 12.2167 23.519 12.31L32.757 17.855C32.8311 17.8994 32.8925 17.9623 32.9351 18.0375C32.9776 18.1126 33 18.1976 33 18.284V31C33 31.2652 32.8946 31.5196 32.7071 31.7071C32.5196 31.8946 32.2652 32 32 32H14C13.7348 32 13.4804 31.8946 13.2929 31.7071C13.1054 31.5196 13 31.2652 13 31V18.283C13 18.1966 13.0224 18.1116 13.0649 18.0365C13.1075 17.9613 13.1689 17.8984 13.243 17.854ZM15 19.133V30H31V19.132L23.004 14.332L15 19.132V19.133ZM23.06 24.698L28.356 20.235L29.644 21.765L23.074 27.302L16.364 21.772L17.636 20.228L23.06 24.698Z" fill="#7D7F96"/>
</g>
<defs>
<clipPath id="clip0_2410_1593">
<rect width="24" height="24" fill="white" transform="translate(11 11)"/>
</clipPath>
</defs>
</svg>
