<svg width="15" height="15" viewBox="0 0 15 15" fill="none" xmlns="http://www.w3.org/2000/svg">
<path d="M7.80306 15C7.38176 15.0012 6.97747 14.8338 6.68041 14.5351L0.464963 8.31878C0.136965 7.99171 -0.0312178 7.53733 0.00479422 7.07552L0.401491 1.86607C0.458059 1.0825 1.08238 0.459869 1.8661 0.405426L7.07552 0.00872738C7.11599 0 7.15724 0 7.1977 0C7.61808 0.00107921 8.02101 0.168184 8.31877 0.464931L14.535 6.68041C14.8327 6.97801 15 7.38172 15 7.80267C15 8.22363 14.8327 8.62733 14.535 8.92494L8.92492 14.5351C8.62806 14.8336 8.2241 15.001 7.80306 15ZM7.19691 1.5868L1.98352 1.9835L1.58682 7.19691L7.80306 13.4132L13.4124 7.80386L7.19691 1.5868ZM4.43669 6.02348C3.67967 6.02364 3.02795 5.48901 2.88012 4.74656C2.73228 4.00411 3.1295 3.26061 3.82885 2.97078C4.5282 2.68095 5.33489 2.92551 5.75557 3.55489C6.17626 4.18426 6.09377 5.02317 5.55855 5.55855C5.26169 5.85712 4.85773 6.02453 4.43669 6.02348Z" fill="#131740"/>
</svg>
