<svg width="14" height="16" viewBox="0 0 14 16" fill="none" xmlns="http://www.w3.org/2000/svg">
<path d="M6.25 9.83098H5.75C5.75 9.94973 5.79227 10.0646 5.86924 10.155L6.25 9.83098ZM1.75 9.83098L2.13077 10.155C2.20773 10.0646 2.25 9.94973 2.25 9.83098H1.75ZM1.75 3.33336H2.25H1.75ZM4.5 3.33336C4.5 3.05721 4.27614 2.83336 4 2.83336C3.72386 2.83336 3.5 3.05721 3.5 3.33336H4.5ZM4.35997 11.5418C4.16832 11.343 3.85179 11.3372 3.65298 11.5289C3.45418 11.7205 3.44838 12.0371 3.64003 12.2359L4.35997 11.5418ZM3.64533 12.2414C3.83698 12.4402 4.15351 12.446 4.35232 12.2543C4.55113 12.0627 4.55693 11.7461 4.36527 11.5473L3.64533 12.2414ZM12.5 2.55557C12.5 3.15585 12.0353 3.61114 11.5 3.61114V4.61114C12.6216 4.61114 13.5 3.67353 13.5 2.55557H12.5ZM11.5 3.61114C10.9647 3.61114 10.5 3.15585 10.5 2.55557H9.5C9.5 3.67353 10.3784 4.61114 11.5 4.61114V3.61114ZM10.5 2.55557C10.5 1.9553 10.9647 1.5 11.5 1.5V0.5C10.3784 0.5 9.5 1.43761 9.5 2.55557H10.5ZM11.5 1.5C12.0353 1.5 12.5 1.9553 12.5 2.55557H13.5C13.5 1.43761 12.6216 0.5 11.5 0.5V1.5ZM6.5 11.8889C6.5 13.3483 5.36372 14.5 4 14.5V15.5C5.94998 15.5 7.5 13.8659 7.5 11.8889H6.5ZM4 14.5C2.63628 14.5 1.5 13.3483 1.5 11.8889H0.5C0.5 13.8659 2.05002 15.5 4 15.5V14.5ZM5.86924 10.155C6.26065 10.6149 6.5 11.2211 6.5 11.8889H7.5C7.5 10.9786 7.1729 10.1439 6.63076 9.50691L5.86924 10.155ZM1.5 11.8889C1.5 11.2211 1.73935 10.6149 2.13077 10.155L1.36923 9.50691C0.827104 10.1439 0.5 10.9786 0.5 11.8889H1.5ZM5.75 3.33336V9.83098H6.75V3.33336H5.75ZM2.25 9.83098V3.33336L1.25 3.33336L1.25 9.83098H2.25ZM4 1.5C4.94951 1.5 5.75 2.30352 5.75 3.33336H6.75C6.75 1.78584 5.53577 0.5 4 0.5V1.5ZM4 0.5C2.46423 0.5 1.25 1.78584 1.25 3.33336H2.25C2.25 2.30352 3.05049 1.5 4 1.5V0.5ZM4.25 11.8889C4.25 12.0596 4.12108 12.1666 4 12.1666V13.1666C4.70734 13.1666 5.25 12.5773 5.25 11.8889H4.25ZM4 12.1666C3.87892 12.1666 3.75 12.0596 3.75 11.8889H2.75C2.75 12.5773 3.29266 13.1666 4 13.1666V12.1666ZM3.75 11.8889C3.75 11.7181 3.87892 11.6111 4 11.6111V10.6111C3.29266 10.6111 2.75 11.2005 2.75 11.8889H3.75ZM4 11.6111C4.12108 11.6111 4.25 11.7181 4.25 11.8889H5.25C5.25 11.2005 4.70734 10.6111 4 10.6111V11.6111ZM4.5 11.1111V3.33336H3.5V11.1111H4.5ZM3.64003 12.2359L3.64533 12.2414L4.36527 11.5473L4.35997 11.5418L3.64003 12.2359Z" fill="#131740"/>
</svg>
