<svg width="16" height="18" viewBox="0 0 16 18" fill="none" xmlns="http://www.w3.org/2000/svg">
<path d="M13.25 6.33333L8 1M13.25 6.33333H10.8C9.81991 6.33333 9.32986 6.33333 8.95552 6.13957C8.62623 5.96913 8.35852 5.69716 8.19074 5.36265C8 4.98236 8 4.48454 8 3.48889V1M13.25 6.33333V10.7778M8 1H3.8C2.81991 1 2.32986 1 1.95552 1.19377C1.62623 1.36421 1.35852 1.63617 1.19074 1.97068C1 2.35097 1 2.8488 1 3.84444V14.1556C1 15.1512 1 15.649 1.19074 16.0293C1.35852 16.3638 1.62623 16.6358 1.95552 16.8062C2.32986 17 2.81991 17 3.8 17H8M11.5 13.4444L13.25 15.2222M13.25 15.2222L15 17M13.25 15.2222L15 13.4444M13.25 15.2222L11.5 17M4.5 13.4444H8M4.5 9.88889H9.75M4.5 6.33333H5.375" stroke="#131740" stroke-linecap="round" stroke-linejoin="round"/>
</svg>
