<svg width="14" height="14" viewBox="0 0 14 14" fill="none" xmlns="http://www.w3.org/2000/svg">
<path d="M7.00016 0.333344C10.6815 0.333344 13.6668 2.98534 13.6668 6.25934C13.6663 7.24148 13.2759 8.18323 12.5813 8.87765C11.8868 9.57206 10.945 9.96232 9.96283 9.96268H8.65216C8.0375 9.96268 7.54083 10.4593 7.54083 11.074C7.54083 11.3553 7.65216 11.6147 7.82216 11.8073C8.00016 12.0073 8.1115 12.2667 8.1115 12.5553C8.1115 13.1707 7.60016 13.6667 7.00016 13.6667C3.31883 13.6667 0.333496 10.6813 0.333496 7.00001C0.333496 3.31868 3.31883 0.333344 7.00016 0.333344ZM6.2075 11.074C6.20723 10.7529 6.27029 10.4349 6.39305 10.1382C6.51581 9.84145 6.69588 9.57184 6.92294 9.34478C7.15 9.11772 7.4196 8.93766 7.71632 8.8149C8.01304 8.69213 8.33105 8.62908 8.65216 8.62934H9.96283C10.5912 8.62899 11.1938 8.3793 11.6383 7.93507C12.0828 7.49085 12.3328 6.88841 12.3335 6.26001C12.3335 3.75934 9.97883 1.66668 7.00016 1.66668C5.62388 1.66542 4.30039 2.19625 3.30642 3.14818C2.31244 4.10011 1.72493 5.39943 1.66673 6.77448C1.60854 8.14953 2.08415 9.49385 2.99414 10.5264C3.90413 11.5589 5.17803 12.1996 6.5495 12.3147C6.32627 11.9395 6.20814 11.5112 6.2075 11.0747V11.074ZM4.00016 7.00001C3.73495 7.00001 3.48059 6.89465 3.29306 6.70712C3.10552 6.51958 3.00016 6.26523 3.00016 6.00001C3.00016 5.73479 3.10552 5.48044 3.29306 5.2929C3.48059 5.10537 3.73495 5.00001 4.00016 5.00001C4.26538 5.00001 4.51973 5.10537 4.70727 5.2929C4.89481 5.48044 5.00016 5.73479 5.00016 6.00001C5.00016 6.26523 4.89481 6.51958 4.70727 6.70712C4.51973 6.89465 4.26538 7.00001 4.00016 7.00001ZM10.0002 7.00001C9.73495 7.00001 9.48059 6.89465 9.29306 6.70712C9.10552 6.51958 9.00016 6.26523 9.00016 6.00001C9.00016 5.73479 9.10552 5.48044 9.29306 5.2929C9.48059 5.10537 9.73495 5.00001 10.0002 5.00001C10.2654 5.00001 10.5197 5.10537 10.7073 5.2929C10.8948 5.48044 11.0002 5.73479 11.0002 6.00001C11.0002 6.26523 10.8948 6.51958 10.7073 6.70712C10.5197 6.89465 10.2654 7.00001 10.0002 7.00001ZM7.00016 5.00001C6.73495 5.00001 6.48059 4.89465 6.29306 4.70712C6.10552 4.51958 6.00016 4.26523 6.00016 4.00001C6.00016 3.73479 6.10552 3.48044 6.29306 3.2929C6.48059 3.10537 6.73495 3.00001 7.00016 3.00001C7.26538 3.00001 7.51973 3.10537 7.70727 3.2929C7.89481 3.48044 8.00016 3.73479 8.00016 4.00001C8.00016 4.26523 7.89481 4.51958 7.70727 4.70712C7.51973 4.89465 7.26538 5.00001 7.00016 5.00001Z" fill="#131740"/>
</svg>
