<svg width="14" height="14" viewBox="0 0 14 14" fill="none" xmlns="http://www.w3.org/2000/svg">
<path d="M12.3335 9.66668H13.6668V13.6667H9.66683V12.3333H4.3335V13.6667H0.333496V9.66668H1.66683V4.33334H0.333496V0.333344H4.3335V1.66668H9.66683V0.333344H13.6668V4.33334H12.3335V9.66668ZM11.0002 9.66668V4.33334H9.66683V3.00001H4.3335V4.33334H3.00016V9.66668H4.3335V11H9.66683V9.66668H11.0002ZM1.66683 1.66668V3.00001H3.00016V1.66668H1.66683ZM1.66683 11V12.3333H3.00016V11H1.66683ZM11.0002 1.66668V3.00001H12.3335V1.66668H11.0002ZM11.0002 11V12.3333H12.3335V11H11.0002Z" fill="#131740"/>
</svg>
