<svg width="14" height="14" viewBox="0 0 14 14" fill="none" xmlns="http://www.w3.org/2000/svg">
<path d="M7.00016 13.6667C3.31816 13.6667 0.333496 10.682 0.333496 7.00001C0.333496 3.31801 3.31816 0.333344 7.00016 0.333344C10.6822 0.333344 13.6668 3.31801 13.6668 7.00001C13.6668 10.682 10.6822 13.6667 7.00016 13.6667ZM5.4735 12.1113C4.81577 10.7162 4.43474 9.20682 4.3515 7.66668H1.70816C1.83789 8.69261 2.26278 9.65879 2.93121 10.4478C3.59964 11.2368 4.48284 11.8148 5.4735 12.1113ZM5.68683 7.66668C5.7875 9.29268 6.25216 10.82 7.00016 12.168C7.76838 10.7844 8.21713 9.24633 8.3135 7.66668H5.68683ZM12.2922 7.66668H9.64883C9.56558 9.20682 9.18455 10.7162 8.52683 12.1113C9.51749 11.8148 10.4007 11.2368 11.0691 10.4478C11.7375 9.65879 12.1624 8.69261 12.2922 7.66668ZM1.70816 6.33334H4.3515C4.43474 4.7932 4.81577 3.2838 5.4735 1.88868C4.48284 2.18526 3.59964 2.76318 2.93121 3.55221C2.26278 4.34124 1.83789 5.30741 1.70816 6.33334ZM5.6875 6.33334H8.31283C8.21666 4.75374 7.76814 3.2157 7.00016 1.83201C6.23195 3.21564 5.7832 4.75369 5.68683 6.33334H5.6875ZM8.52683 1.88868C9.18455 3.2838 9.56558 4.7932 9.64883 6.33334H12.2922C12.1624 5.30741 11.7375 4.34124 11.0691 3.55221C10.4007 2.76318 9.51749 2.18526 8.52683 1.88868Z" fill="#131740"/>
</svg>
