<svg width="13" height="13" viewBox="0 0 13 13" fill="none" xmlns="http://www.w3.org/2000/svg">
<path d="M12 3.75H12.5C12.5 3.66299 12.4773 3.57749 12.4341 3.50194L12 3.75ZM1 3.75L0.565879 3.50193C0.522708 3.57748 0.5 3.66299 0.5 3.75H1ZM1.75061 11.8501L1.97761 11.4046H1.97761L1.75061 11.8501ZM1.14987 11.2492L0.704363 11.4762L1.14987 11.2492ZM11.8503 11.2492L11.4048 11.0222L11.8503 11.2492ZM11.2491 11.8501L11.0221 11.4046L11.2491 11.8501ZM6 10.625C6 10.9011 6.22386 11.125 6.5 11.125C6.77614 11.125 7 10.9011 7 10.625H6ZM6.5 5.125L6.85355 4.77145C6.65829 4.57618 6.34171 4.57618 6.14645 4.77145L6.5 5.125ZM8.20895 7.54105C8.40421 7.73632 8.72079 7.73632 8.91605 7.54105C9.11132 7.34579 9.11132 7.02921 8.91605 6.83395L8.20895 7.54105ZM4.08395 6.83395C3.88868 7.02921 3.88868 7.34579 4.08395 7.54105C4.27921 7.73632 4.59579 7.73632 4.79105 7.54105L4.08395 6.83395ZM11.0621 2.1085L11.4962 1.86045L11.4962 1.86043L11.0621 2.1085ZM1.938 2.1085L2.37212 2.35657L2.37213 2.35657L1.938 2.1085ZM2.44606 1.35604L2.11034 0.985517V0.985517L2.44606 1.35604ZM2.94299 1.06787L3.09814 1.54319L2.94299 1.06787ZM10.5538 1.35604L10.8896 0.985517V0.985517L10.5538 1.35604ZM10.0574 1.06787L10.2125 0.592545L10.0574 1.06787ZM11.5 3.75V9.8H12.5V3.75H11.5ZM9.80013 11.5H3.20013V12.5H9.80013V11.5ZM1.5 9.8V3.75H0.5V9.8H1.5ZM1 4.25H12V3.25H1V4.25ZM3.20013 11.5C2.80686 11.5 2.54188 11.4996 2.33761 11.4829C2.13914 11.4667 2.04241 11.4376 1.97761 11.4046L1.52362 12.2956C1.75293 12.4125 1.99594 12.4583 2.25618 12.4796C2.51061 12.5004 2.82334 12.5 3.20013 12.5V11.5ZM0.5 9.8C0.5 10.1768 0.499611 10.4894 0.520394 10.7438C0.541654 11.004 0.58753 11.2469 0.704363 11.4762L1.59537 11.0222C1.56234 10.9574 1.53328 10.8607 1.51707 10.6624C1.50039 10.4582 1.5 10.1933 1.5 9.8H0.5ZM1.97761 11.4046C1.81307 11.3208 1.67931 11.187 1.59537 11.0222L0.704363 11.4762C0.88407 11.8289 1.1707 12.1158 1.52362 12.2956L1.97761 11.4046ZM11.5 9.8C11.5 10.1933 11.4996 10.4582 11.483 10.6625C11.4668 10.8608 11.4378 10.9575 11.4048 11.0222L12.2958 11.4762C12.4126 11.2469 12.4585 11.0039 12.4797 10.7437C12.5004 10.4894 12.5 10.1767 12.5 9.8H11.5ZM9.80013 12.5C10.1769 12.5 10.4895 12.5004 10.7438 12.4796C11.004 12.4583 11.2468 12.4124 11.4761 12.2956L11.0221 11.4046C10.9572 11.4377 10.8606 11.4667 10.6624 11.4829C10.4582 11.4996 10.1934 11.5 9.80013 11.5V12.5ZM11.4048 11.0222C11.321 11.1866 11.187 11.3206 11.0221 11.4046L11.4761 12.2956C11.8287 12.116 12.1159 11.8293 12.2958 11.4762L11.4048 11.0222ZM7 10.625V5.125H6V10.625H7ZM8.91605 6.83395L6.85355 4.77145L6.14645 5.47855L8.20895 7.54105L8.91605 6.83395ZM6.14645 4.77145L4.08395 6.83395L4.79105 7.54105L6.85355 5.47855L6.14645 4.77145ZM10.6279 2.35656L11.5659 3.99806L12.4341 3.50194L11.4962 1.86045L10.6279 2.35656ZM1.43412 3.99807L2.37212 2.35657L1.50388 1.86043L0.565879 3.50193L1.43412 3.99807ZM3.84802 1.5H9.15175V0.5H3.84802V1.5ZM2.37213 2.35657C2.61972 1.92329 2.69266 1.80732 2.78178 1.72657L2.11034 0.985517C1.87529 1.19848 1.71769 1.48627 1.50388 1.86043L2.37213 2.35657ZM3.84802 0.5C3.4169 0.5 3.08933 0.494142 2.78785 0.592545L3.09814 1.54319C3.21251 1.50586 3.34916 1.5 3.84802 1.5V0.5ZM2.78178 1.72657C2.87281 1.64409 2.98077 1.58149 3.09814 1.54319L2.78785 0.592545C2.53728 0.674329 2.30612 0.808125 2.11034 0.985517L2.78178 1.72657ZM11.4962 1.86043C11.2822 1.48602 11.1245 1.19844 10.8896 0.985517L10.2181 1.72657C10.3073 1.80737 10.3805 1.92354 10.628 2.35657L11.4962 1.86043ZM9.15175 1.5C9.65067 1.5 9.78789 1.50586 9.90225 1.54319L10.2125 0.592545C9.91104 0.494137 9.5828 0.5 9.15175 0.5V1.5ZM10.8896 0.985517C10.6941 0.808416 10.4635 0.674464 10.2125 0.592545L9.90225 1.54319C10.0192 1.58136 10.1268 1.6438 10.2181 1.72657L10.8896 0.985517Z" fill="#131740"/>
</svg>
