<svg width="22" height="27" viewBox="0 0 22 27" fill="none" xmlns="http://www.w3.org/2000/svg">
<path d="M21.1359 23.2997L17.3334 23.674L14.9063 26.4437L9.64746 17.5356L15.7962 14.3916L21.1359 23.2997Z" fill="#36D7B7"/>
<path d="M0.344727 23.2997L4.06634 23.674L6.49349 26.4437L11.7523 17.5356L5.60353 14.3916L0.344727 23.2997Z" fill="#36D7B7"/>
<path d="M21.2982 11.2474L20.0037 13.044C19.8419 13.2685 19.6801 13.568 19.6801 13.8674L19.1946 16.0383C19.0328 16.9366 18.3047 17.6103 17.3338 17.76L14.9876 18.2092C14.664 18.284 14.4213 18.3589 14.0976 18.5086L12.1559 19.7063C11.3469 20.2303 10.376 20.2303 9.56698 19.7063L7.62527 18.5086C7.38255 18.3589 7.05894 18.2092 6.73532 18.2092L4.38908 17.76C3.41822 17.6103 2.69008 16.9366 2.52827 16.0383L2.04284 13.8674C1.96194 13.568 1.88104 13.3434 1.71923 13.044L0.42475 11.2474C-0.141583 10.4988 -0.141583 9.60051 0.42475 8.85193L1.71923 7.05534C1.88104 6.83077 2.04284 6.53134 2.04284 6.23191L2.52827 4.06103C2.69008 3.16274 3.41822 2.48902 4.38908 2.33931L6.73532 1.89016C7.05894 1.8153 7.30165 1.74044 7.62527 1.59073L9.56698 0.393003C10.376 -0.131001 11.3469 -0.131001 12.1559 0.393003L14.0976 1.59073C14.3404 1.74044 14.664 1.89016 14.9876 1.89016L17.3338 2.33931C18.3047 2.48902 19.0328 3.16274 19.1946 4.06103L19.6801 6.23191C19.761 6.53134 19.8419 6.75591 20.0037 7.05534L21.2982 8.85193C21.7836 9.60051 21.7836 10.5737 21.2982 11.2474Z" fill="#F7BC5D"/>
<path d="M10.8623 16.8614C14.9284 16.8614 18.2247 13.8116 18.2247 10.0494C18.2247 6.28717 14.9284 3.2373 10.8623 3.2373C6.79623 3.2373 3.5 6.28717 3.5 10.0494C3.5 13.8116 6.79623 16.8614 10.8623 16.8614Z" fill="#F5AB35"/>
<path d="M14.017 14.6908L11.0236 13.2685C10.9427 13.2685 10.8618 13.2685 10.8618 13.2685L7.86828 14.7657C7.70647 14.8405 7.54466 14.6908 7.54466 14.5411L8.11099 11.4719C8.11099 11.3971 8.11099 11.3222 8.03009 11.3222L5.60295 9.15132C5.52204 9.07646 5.52204 8.85189 5.68385 8.85189L9.00095 8.32788C9.08185 8.32788 9.16275 8.25303 9.16275 8.25303L10.619 5.40843C10.6999 5.25871 10.9427 5.25871 10.9427 5.40843L12.4798 8.17817C12.4798 8.25303 12.5608 8.25303 12.6417 8.25303L16.0397 8.70217C16.2015 8.70217 16.2824 8.92675 16.1206 9.0016L13.6934 11.2473C13.6125 11.3222 13.6125 11.3222 13.6125 11.3971L14.2598 14.4662C14.3407 14.6908 14.1788 14.7657 14.017 14.6908Z" fill="white"/>
</svg>
