<svg width="15" height="18" viewBox="0 0 15 18" fill="none" xmlns="http://www.w3.org/2000/svg">
<path d="M7.5 10.6667C7.26389 10.6667 7.06583 10.5867 6.90583 10.4267C6.74583 10.2667 6.66611 10.0689 6.66667 9.83336C6.66667 9.59725 6.74667 9.39919 6.90667 9.23919C7.06667 9.07919 7.26445 8.99947 7.5 9.00002C7.73611 9.00002 7.93417 9.08002 8.09417 9.24002C8.25417 9.40002 8.33389 9.5978 8.33333 9.83336C8.33333 10.0695 8.25333 10.2675 8.09333 10.4275C7.93333 10.5875 7.73556 10.6672 7.5 10.6667ZM4.16667 10.6667C3.93056 10.6667 3.7325 10.5867 3.5725 10.4267C3.4125 10.2667 3.33278 10.0689 3.33333 9.83336C3.33333 9.59725 3.41333 9.39919 3.57333 9.23919C3.73334 9.07919 3.93111 8.99947 4.16667 9.00002C4.40278 9.00002 4.60083 9.08002 4.76084 9.24002C4.92084 9.40002 5.00056 9.5978 5 9.83336C5 10.0695 4.92 10.2675 4.76 10.4275C4.6 10.5875 4.40222 10.6672 4.16667 10.6667ZM10.8333 10.6667C10.5972 10.6667 10.3992 10.5867 10.2392 10.4267C10.0792 10.2667 9.99945 10.0689 10 9.83336C10 9.59725 10.08 9.39919 10.24 9.23919C10.4 9.07919 10.5978 8.99947 10.8333 9.00002C11.0694 9.00002 11.2675 9.08002 11.4275 9.24002C11.5875 9.40002 11.6672 9.5978 11.6667 9.83336C11.6667 10.0695 11.5867 10.2675 11.4267 10.4275C11.2667 10.5875 11.0689 10.6672 10.8333 10.6667ZM7.5 14C7.26389 14 7.06583 13.92 6.90583 13.76C6.74583 13.6 6.66611 13.4022 6.66667 13.1667C6.66667 12.9306 6.74667 12.7325 6.90667 12.5725C7.06667 12.4125 7.26445 12.3328 7.5 12.3334C7.73611 12.3334 7.93417 12.4134 8.09417 12.5734C8.25417 12.7334 8.33389 12.9311 8.33333 13.1667C8.33333 13.4028 8.25333 13.6009 8.09333 13.7609C7.93333 13.9209 7.73556 14.0006 7.5 14ZM4.16667 14C3.93056 14 3.7325 13.92 3.5725 13.76C3.4125 13.6 3.33278 13.4022 3.33333 13.1667C3.33333 12.9306 3.41333 12.7325 3.57333 12.5725C3.73334 12.4125 3.93111 12.3328 4.16667 12.3334C4.40278 12.3334 4.60083 12.4134 4.76084 12.5734C4.92084 12.7334 5.00056 12.9311 5 13.1667C5 13.4028 4.92 13.6009 4.76 13.7609C4.6 13.9209 4.40222 14.0006 4.16667 14ZM10.8333 14C10.5972 14 10.3992 13.92 10.2392 13.76C10.0792 13.6 9.99945 13.4022 10 13.1667C10 12.9306 10.08 12.7325 10.24 12.5725C10.4 12.4125 10.5978 12.3328 10.8333 12.3334C11.0694 12.3334 11.2675 12.4134 11.4275 12.5734C11.5875 12.7334 11.6672 12.9311 11.6667 13.1667C11.6667 13.4028 11.5867 13.6009 11.4267 13.7609C11.2667 13.9209 11.0689 14.0006 10.8333 14ZM1.66667 17.3334C1.20833 17.3334 0.815835 17.17 0.489168 16.8434C0.162501 16.5167 -0.000554141 16.1245 1.41483e-06 15.6667V4.00002C1.41483e-06 3.54169 0.163335 3.14919 0.490001 2.82252C0.816668 2.49586 1.20889 2.3328 1.66667 2.33336H2.5V1.50002C2.5 1.26391 2.58 1.06586 2.74 0.905857C2.9 0.745857 3.09778 0.666134 3.33333 0.66669C3.56945 0.66669 3.7675 0.74669 3.9275 0.90669C4.0875 1.06669 4.16722 1.26447 4.16667 1.50002V2.33336H10.8333V1.50002C10.8333 1.26391 10.9133 1.06586 11.0733 0.905857C11.2333 0.745857 11.4311 0.666134 11.6667 0.66669C11.9028 0.66669 12.1008 0.74669 12.2608 0.90669C12.4208 1.06669 12.5006 1.26447 12.5 1.50002V2.33336H13.3333C13.7917 2.33336 14.1842 2.49669 14.5108 2.82336C14.8375 3.15002 15.0006 3.54225 15 4.00002V15.6667C15 16.125 14.8367 16.5175 14.51 16.8442C14.1833 17.1709 13.7911 17.3339 13.3333 17.3334H1.66667ZM1.66667 15.6667H13.3333V7.33336H1.66667V15.6667Z" fill="#ffff"/>
</svg>
