<svg width="32" height="32" viewBox="0 0 32 32" fill="none" xmlns="http://www.w3.org/2000/svg">
<path d="M15.912 16.2249C14.0423 16.2249 12.64 14.714 12.64 12.9706C12.64 11.2272 14.0423 9.60004 15.912 9.60004C17.7817 9.60004 19.184 11.111 19.184 12.8544C19.184 14.5978 17.7817 16.2249 15.912 16.2249ZM15.912 10.7623C14.7434 10.7623 13.8086 11.6921 13.8086 12.8544C13.8086 14.0166 14.7434 14.9465 15.912 14.9465C17.0806 14.9465 18.0154 14.0166 18.0154 12.8544C18.0154 11.6921 17.0806 10.7623 15.912 10.7623Z" fill="white"/>
<path d="M20.9777 22.2445C20.6043 22.2445 20.3555 21.997 20.3555 21.6256C20.3555 19.769 18.3643 18.16 15.9999 18.16C13.6355 18.16 11.6443 19.6453 11.6443 21.6256C11.6443 21.997 11.3955 22.2445 11.0221 22.2445C10.6488 22.2445 10.3999 21.8732 10.3999 21.6256C10.3999 19.0264 12.8888 16.9222 15.9999 16.9222C19.111 16.9222 21.5999 19.0264 21.5999 21.6256C21.5999 21.8732 21.351 22.2445 20.9777 22.2445Z" fill="white"/>
</svg>
