<svg width="17" height="14" viewBox="0 0 17 14" fill="none" xmlns="http://www.w3.org/2000/svg">
<path d="M14.841 2.2929C14.932 2.53818 15.1334 2.70628 15.3658 2.77023C15.1886 2.91958 15.0805 3.14393 15.0897 3.38812L15.09 3.39785L15.0908 3.40755C15.1027 3.56324 15.1029 3.69093 15.1029 3.82559C15.0797 6.22307 14.1483 8.53617 12.4725 10.3465C10.566 12.4055 7.79188 13.5622 4.89069 13.4974L4.8907 13.4973L4.87856 13.4973C3.94805 13.4991 3.02556 13.3797 2.1355 13.1455C3.21669 12.8628 4.2362 12.3799 5.13225 11.7183L5.13392 11.7171C5.39673 11.5213 5.51414 11.1806 5.40385 10.8574L5.40387 10.8574L5.40234 10.853C5.29143 10.5376 4.99378 10.3434 4.68181 10.3349L4.68009 10.3349C3.79283 10.3139 2.98048 9.94177 2.41888 9.34258C2.61129 9.31831 2.80148 9.2827 2.98861 9.23665L2.98861 9.23667L2.99321 9.23549C3.3345 9.14804 3.5868 8.83983 3.57679 8.4695L3.57678 8.46914C3.56631 8.09212 3.28366 7.80588 2.95247 7.738L2.95248 7.73797L2.94783 7.73707C1.91421 7.53539 1.0962 6.86824 0.712417 6.00012C0.945372 6.04084 1.18155 6.06398 1.41856 6.06898C1.76192 6.08237 2.07783 5.86919 2.18581 5.5372C2.29644 5.20052 2.15859 4.84778 1.87799 4.66157L1.87807 4.66145L1.868 4.65511C1.01293 4.11654 0.510222 3.21059 0.510222 2.25481C0.510222 2.1082 0.521886 1.9621 0.545181 1.81785C2.5949 3.72622 5.31337 4.86494 8.19159 5.0026L8.19159 5.00263L8.19725 5.00284C8.42987 5.01132 8.6596 4.91834 8.81946 4.74004C8.988 4.55206 9.04893 4.3005 8.9921 4.0603C8.94341 3.8448 8.9204 3.62341 8.92329 3.40165L8.92332 3.40165L8.92333 3.39605C8.92619 1.82587 10.2789 0.503445 12.0042 0.500002C12.8677 0.503131 13.6856 0.841064 14.2663 1.42752L14.2663 1.42753L14.2688 1.43009C14.4391 1.59954 14.6699 1.67529 14.8932 1.65851C14.7874 1.84394 14.7594 2.07247 14.841 2.2929Z" stroke="white"/>
</svg>
