<svg width="15" height="16" viewBox="0 0 15 16" fill="none" xmlns="http://www.w3.org/2000/svg">
<path d="M5.06784 10.0388C4.76956 10.3263 4.76075 10.801 5.04816 11.0993C5.33557 11.3976 5.81036 11.4064 6.10863 11.119L5.06784 10.0388ZM9.16743 8.17166C9.46571 7.88425 9.47452 7.40946 9.18711 7.11118C8.8997 6.8129 8.42491 6.80409 8.12663 7.0915L9.16743 8.17166ZM6.10863 7.0915C5.81036 6.80409 5.33557 6.8129 5.04816 7.11118C4.76075 7.40946 4.76956 7.88425 5.06784 8.17166L6.10863 7.0915ZM8.12663 11.119C8.42491 11.4064 8.8997 11.3976 9.18711 11.0993C9.47452 10.801 9.46571 10.3263 9.16743 10.0388L8.12663 11.119ZM13.4796 4.48745C13.7779 4.77486 14.2527 4.76604 14.5401 4.46777C14.8275 4.16949 14.8187 3.6947 14.5204 3.40729L13.4796 4.48745ZM12.991 1.93361C12.6927 1.6462 12.2179 1.65501 11.9305 1.95328C11.6431 2.25156 11.6519 2.72635 11.9502 3.01376L12.991 1.93361ZM5.58824 0.25C5.17402 0.25 4.83824 0.585786 4.83824 1C4.83824 1.41421 5.17402 1.75 5.58824 1.75V0.25ZM8.64706 1.75C9.06127 1.75 9.39706 1.41421 9.39706 1C9.39706 0.585786 9.06127 0.25 8.64706 0.25V1.75ZM7.11765 14.25C4.1267 14.25 1.75 11.9206 1.75 9.10526H0.25C0.25 12.801 3.35123 15.75 7.11765 15.75V14.25ZM1.75 9.10526C1.75 6.2899 4.1267 3.96053 7.11765 3.96053V2.46053C3.35123 2.46053 0.25 5.40948 0.25 9.10526H1.75ZM7.11765 3.96053C10.1086 3.96053 12.4853 6.2899 12.4853 9.10526H13.9853C13.9853 5.40948 10.8841 2.46053 7.11765 2.46053V3.96053ZM12.4853 9.10526C12.4853 11.9206 10.1086 14.25 7.11765 14.25V15.75C10.8841 15.75 13.9853 12.801 13.9853 9.10526H12.4853ZM6.10863 11.119L9.16743 8.17166L8.12663 7.0915L5.06784 10.0388L6.10863 11.119ZM5.06784 8.17166L8.12663 11.119L9.16743 10.0388L6.10863 7.0915L5.06784 8.17166ZM14.5204 3.40729L12.991 1.93361L11.9502 3.01376L13.4796 4.48745L14.5204 3.40729ZM5.58824 1.75H8.64706V0.25H5.58824V1.75Z" fill="#131740"/>
</svg>
