<svg width="20" height="16" viewBox="0 0 20 16" fill="none" xmlns="http://www.w3.org/2000/svg">
<path d="M1.21799 2.09204L1.88624 2.43253L1.21799 2.09204ZM2.0918 1.21799L2.43229 1.88624L2.0918 1.21799ZM2.0918 14.782L2.43229 14.1137L2.43229 14.1137L2.0918 14.782ZM1.21799 13.908L0.549732 14.2485L0.549732 14.2485L1.21799 13.908ZM18.7822 13.908L18.114 13.5675L18.7822 13.908ZM17.9078 14.782L17.5673 14.1137L17.9078 14.782ZM18.7822 2.09204L18.114 2.43253L18.114 2.43253L18.7822 2.09204ZM17.9078 1.21799L18.2483 0.549732L18.2483 0.549732L17.9078 1.21799ZM9.5 11.75C9.91421 11.75 10.25 11.4142 10.25 11C10.25 10.5858 9.91421 10.25 9.5 10.25V11.75ZM9.5 8.75C9.91421 8.75 10.25 8.41421 10.25 8C10.25 7.58579 9.91421 7.25 9.5 7.25V8.75ZM18.25 4.19995V11.8H19.75V4.19995H18.25ZM15.8002 14.25H4.2002V15.75H15.8002V14.25ZM1.75 11.8V4.19995H0.25V11.8H1.75ZM4.2002 1.75H15.8002V0.25H4.2002V1.75ZM1.75 4.19995C1.75 3.62752 1.75058 3.24333 1.77476 2.94747C1.79822 2.66037 1.84009 2.5231 1.88624 2.43253L0.549732 1.75155C0.377892 2.0888 0.310778 2.44544 0.279739 2.82531C0.249417 3.19643 0.25 3.65228 0.25 4.19995H1.75ZM4.2002 0.25C3.65251 0.25 3.19656 0.249417 2.82534 0.279738C2.44541 0.310769 2.08861 0.377866 1.7513 0.549732L2.43229 1.88624C2.52281 1.84012 2.66016 1.79822 2.94745 1.77476C3.24344 1.75058 3.62777 1.75 4.2002 1.75V0.25ZM1.88624 2.43253C2.00618 2.19714 2.19728 2.00598 2.43229 1.88624L1.7513 0.549732C1.23366 0.813483 0.813285 1.2343 0.549732 1.75155L1.88624 2.43253ZM4.2002 14.25C3.62779 14.25 3.24345 14.2494 2.94746 14.2252C2.66018 14.2018 2.52282 14.1599 2.43229 14.1137L1.7513 15.4502C2.0886 15.6221 2.44538 15.6892 2.82532 15.7202C3.19655 15.7506 3.6525 15.75 4.2002 15.75V14.25ZM0.25 11.8C0.25 12.3476 0.249417 12.8035 0.279739 13.1747C0.310775 13.5546 0.377883 13.9112 0.549732 14.2485L1.88624 13.5675C1.8401 13.477 1.79822 13.3397 1.77476 13.0525C1.75058 12.7566 1.75 12.3724 1.75 11.8H0.25ZM2.43229 14.1137C2.1972 13.9939 2.00614 13.8029 1.88624 13.5675L0.549732 14.2485C0.813326 14.7659 1.23374 15.1865 1.7513 15.4502L2.43229 14.1137ZM18.25 11.8C18.25 12.3725 18.2495 12.7567 18.2253 13.0526C18.2019 13.3398 18.1601 13.4771 18.114 13.5675L19.4505 14.2485C19.6224 13.9112 19.6894 13.5544 19.7204 13.1745C19.7506 12.8034 19.75 12.3476 19.75 11.8H18.25ZM15.8002 15.75C16.3479 15.75 16.8037 15.7506 17.1747 15.7202C17.5546 15.6892 17.9111 15.6221 18.2483 15.4502L17.5673 14.1137C17.4767 14.1599 17.3395 14.2018 17.0525 14.2252C16.7567 14.2494 16.3726 14.25 15.8002 14.25V15.75ZM18.114 13.5675C17.9943 13.8024 17.8029 13.9937 17.5673 14.1137L18.2483 15.4502C18.7653 15.1868 19.1866 14.7664 19.4505 14.2485L18.114 13.5675ZM19.75 4.19995C19.75 3.65235 19.7506 3.1965 19.7204 2.82543C19.6894 2.4456 19.6224 2.08889 19.4505 1.75155L18.114 2.43253C18.1601 2.52302 18.2019 2.66021 18.2253 2.94735C18.2495 3.24326 18.25 3.62745 18.25 4.19995H19.75ZM15.8002 1.75C16.3726 1.75 16.7567 1.75058 17.0525 1.77476C17.3395 1.79821 17.4767 1.84008 17.5673 1.88624L18.2483 0.549732C17.9111 0.377909 17.5545 0.310784 17.1747 0.279741C16.8036 0.249416 16.3479 0.25 15.8002 0.25V1.75ZM19.4505 1.75155C19.1867 1.2338 18.7654 0.813228 18.2483 0.549732L17.5673 1.88624C17.8028 2.00624 17.9943 2.19764 18.114 2.43253L19.4505 1.75155ZM14.25 9.5C14.25 9.91421 13.9142 10.25 13.5 10.25V11.75C14.7426 11.75 15.75 10.7426 15.75 9.5H14.25ZM13.5 10.25C13.0858 10.25 12.75 9.91421 12.75 9.5H11.25C11.25 10.7426 12.2574 11.75 13.5 11.75V10.25ZM12.75 9.5C12.75 9.08579 13.0858 8.75 13.5 8.75V7.25C12.2574 7.25 11.25 8.25736 11.25 9.5H12.75ZM13.5 8.75C13.9142 8.75 14.25 9.08579 14.25 9.5H15.75C15.75 8.25736 14.7426 7.25 13.5 7.25V8.75ZM9.5 10.25C9.08579 10.25 8.75 9.91421 8.75 9.5H7.25C7.25 10.7426 8.25736 11.75 9.5 11.75V10.25ZM8.75 9.5C8.75 9.08579 9.08579 8.75 9.5 8.75V7.25C8.25736 7.25 7.25 8.25736 7.25 9.5H8.75Z" fill="#0071e3"/>
</svg>
