<svg width="12" height="14" viewBox="0 0 12 14" fill="none" xmlns="http://www.w3.org/2000/svg">
<path d="M2.33333 0.333336H9.66667C9.77016 0.333336 9.87224 0.357433 9.96481 0.403718C10.0574 0.450003 10.1379 0.517205 10.2 0.600003L12 3V13C12 13.1768 11.9298 13.3464 11.8047 13.4714C11.6797 13.5964 11.5101 13.6667 11.3333 13.6667H0.666667C0.489856 13.6667 0.320286 13.5964 0.195262 13.4714C0.0702379 13.3464 0 13.1768 0 13V3L1.8 0.600003C1.8621 0.517205 1.94262 0.450003 2.03519 0.403718C2.12776 0.357433 2.22984 0.333336 2.33333 0.333336ZM10.6667 4.33334H1.33333V12.3333H10.6667V4.33334ZM10.3333 3L9.33333 1.66667H2.66667L1.66667 3H10.3333ZM4 5.66667V7C4 7.53044 4.21071 8.03914 4.58579 8.41422C4.96086 8.78929 5.46957 9 6 9C6.53043 9 7.03914 8.78929 7.41421 8.41422C7.78929 8.03914 8 7.53044 8 7V5.66667H9.33333V7C9.33333 7.88406 8.98214 8.7319 8.35702 9.35703C7.7319 9.98215 6.88406 10.3333 6 10.3333C5.11595 10.3333 4.2681 9.98215 3.64298 9.35703C3.01786 8.7319 2.66667 7.88406 2.66667 7V5.66667H4Z" fill="white"/>
</svg>
