<svg width="15" height="15" viewBox="0 0 15 15" fill="none" xmlns="http://www.w3.org/2000/svg">
<path d="M7.26624 0.400024L13.8656 1.34336L14.8082 7.94336L8.68024 14.0714C8.55522 14.1963 8.38568 14.2665 8.20891 14.2665C8.03213 14.2665 7.86259 14.1963 7.73757 14.0714L1.13757 7.47136C1.01259 7.34634 0.942383 7.1768 0.942383 7.00002C0.942383 6.82325 1.01259 6.65371 1.13757 6.52869L7.26624 0.400024ZM7.73757 1.81469L2.55157 7.00002L8.20891 12.6567L13.3942 7.47136L12.6876 2.52136L7.73757 1.81469ZM9.15091 6.05736C8.90081 5.80717 8.76034 5.46788 8.7604 5.11412C8.76043 4.93896 8.79496 4.76552 8.86202 4.6037C8.92908 4.44189 9.02736 4.29486 9.15124 4.17102C9.27512 4.04719 9.42218 3.94896 9.58402 3.88196C9.74586 3.81496 9.91931 3.78049 10.0945 3.78052C10.4482 3.78058 10.7875 3.92117 11.0376 4.17136C11.2877 4.42155 11.4281 4.76084 11.4281 5.11459C11.428 5.46835 11.2874 5.80759 11.0372 6.05769C10.7871 6.30779 10.4478 6.44826 10.094 6.4482C9.74025 6.44813 9.40101 6.30755 9.15091 6.05736Z" fill="#fff"/>
</svg>
