<svg width="15" height="15" viewBox="0 0 15 15" fill="none" xmlns="http://www.w3.org/2000/svg">
<path d="M4.3827 13.6014L4.1329 14.0345L4.3827 13.6014ZM3.86841 13.544L4.02652 14.0183H4.02652L3.86841 13.544ZM2.13855 14.1206L1.98044 13.6462H1.98044L2.13855 14.1206ZM1.3794 13.3616L1.85374 13.5197L1.3794 13.3616ZM1.95601 11.6318L1.48167 11.4737H1.48167L1.95601 11.6318ZM1.89865 11.1174L1.46552 11.3672L1.46552 11.3672L1.89865 11.1174ZM2.00885 11.4359L2.50768 11.47L2.00885 11.4359ZM1.99612 11.3104L2.47805 11.1772L1.99612 11.3104ZM1.46692 14.2603L1.29898 14.7313L1.46692 14.2603ZM1.23955 14.033L1.7105 13.8651L1.23955 14.033ZM4.18971 13.5039L4.32291 13.022L4.18971 13.5039ZM4.06407 13.4913L4.02996 12.9925L4.06407 13.4913ZM10.3536 6.60357C10.5488 6.40831 10.5488 6.09172 10.3536 5.89646C10.1583 5.7012 9.84173 5.7012 9.64647 5.89646L10.3536 6.60357ZM7.00002 9.25002L6.64646 9.60358C6.84173 9.79884 7.15831 9.79884 7.35357 9.60358L7.00002 9.25002ZM5.85357 7.39647C5.6583 7.2012 5.34172 7.2012 5.14646 7.39647C4.9512 7.59173 4.9512 7.90831 5.14646 8.10357L5.85357 7.39647ZM7.75012 14C6.61378 14 5.54969 13.6972 4.6325 13.1682L4.1329 14.0345C5.19795 14.6487 6.43377 15 7.75012 15V14ZM3.7103 13.0696L1.98044 13.6462L2.29667 14.5949L4.02652 14.0183L3.7103 13.0696ZM1.85374 13.5197L2.43036 11.7899L1.48167 11.4737L0.905054 13.2035L1.85374 13.5197ZM2.33177 10.8676C1.8028 9.95045 1.5 8.88635 1.5 7.75002H0.5C0.5 9.06637 0.851268 10.3022 1.46552 11.3672L2.33177 10.8676ZM1.5 7.75002C1.5 4.29823 4.29823 1.5 7.75002 1.5V0.5C3.74594 0.5 0.5 3.74594 0.5 7.75002H1.5ZM7.75002 1.5C11.2018 1.5 14 4.29823 14 7.75002H15C15 3.74594 11.7541 0.5 7.75002 0.5V1.5ZM14 7.75002C14 11.2018 11.2019 14 7.75012 14V15C11.7542 15 15 11.7541 15 7.75002H14ZM2.43036 11.7899C2.45404 11.7188 2.49901 11.5968 2.50768 11.47L1.51002 11.4017C1.51165 11.3778 1.51617 11.3654 1.51247 11.3784C1.51057 11.3852 1.50744 11.3954 1.50203 11.4121C1.4966 11.4289 1.49017 11.4482 1.48167 11.4737L2.43036 11.7899ZM1.46552 11.3672C1.47996 11.3923 1.49116 11.4117 1.5007 11.4286C1.51023 11.4454 1.51621 11.4564 1.52016 11.464C1.5285 11.48 1.52112 11.4686 1.51419 11.4436L2.47805 11.1772C2.44404 11.0541 2.37246 10.9382 2.33177 10.8676L1.46552 11.3672ZM2.50768 11.47C2.5146 11.3689 2.50483 11.274 2.47805 11.1772L1.51419 11.4436C1.51352 11.4411 1.51171 11.4337 1.51063 11.4231C1.50955 11.4125 1.50982 11.4046 1.51002 11.4017L2.50768 11.47ZM1.98044 13.6462C1.78784 13.7104 1.67605 13.7471 1.59671 13.7658C1.50989 13.7862 1.55356 13.7604 1.63486 13.7894L1.29898 14.7313C1.50211 14.8037 1.6984 14.7691 1.82533 14.7393C1.95975 14.7077 2.12286 14.6528 2.29667 14.5949L1.98044 13.6462ZM0.905054 13.2035C0.847158 13.3772 0.792246 13.5403 0.760662 13.6746C0.730822 13.8014 0.696124 13.9977 0.768596 14.201L1.7105 13.8651C1.73953 13.9465 1.71369 13.9903 1.7341 13.9035C1.75276 13.8242 1.7895 13.7125 1.85374 13.5197L0.905054 13.2035ZM1.63486 13.7894C1.67001 13.8019 1.69783 13.8296 1.7105 13.8651L0.768596 14.201C0.85688 14.4485 1.05179 14.6431 1.29898 14.7313L1.63486 13.7894ZM4.6325 13.1682C4.56134 13.1272 4.4458 13.056 4.32291 13.022L4.0565 13.9859C4.03166 13.979 4.02044 13.9717 4.0364 13.98C4.04398 13.984 4.05493 13.9899 4.07172 13.9994C4.08852 14.0089 4.10793 14.0201 4.1329 14.0345L4.6325 13.1682ZM4.02652 14.0183C4.0519 14.0098 4.07114 14.0034 4.08779 13.998C4.10436 13.9927 4.11455 13.9896 4.1212 13.9877C4.13392 13.9841 4.12165 13.9885 4.09819 13.9901L4.02996 12.9925C3.90334 13.0011 3.78227 13.0456 3.7103 13.0696L4.02652 14.0183ZM4.32291 13.022C4.22516 12.995 4.13017 12.9856 4.02996 12.9925L4.09819 13.9901C4.09564 13.9903 4.08804 13.9906 4.07755 13.9895C4.06702 13.9885 4.05941 13.9867 4.0565 13.9859L4.32291 13.022ZM9.64647 5.89646L6.64646 8.89647L7.35357 9.60358L10.3536 6.60357L9.64647 5.89646ZM7.35357 8.89647L5.85357 7.39647L5.14646 8.10357L6.64646 9.60358L7.35357 8.89647Z" fill="#fff"/>
</svg>
