<svg width="23" height="18" viewBox="0 0 23 18" fill="none" xmlns="http://www.w3.org/2000/svg">
<path d="M2.85355 13.6464C2.65829 13.4512 2.34171 13.4512 2.14645 13.6464C1.95118 13.8417 1.95118 14.1583 2.14645 14.3536L2.85355 13.6464ZM3.625 15.125L3.27145 15.4786C3.37078 15.5779 3.50732 15.6309 3.64766 15.6245C3.78799 15.6181 3.91918 15.553 4.00911 15.4451L3.625 15.125ZM5.88411 13.1951C6.06089 12.983 6.03223 12.6677 5.82009 12.4909C5.60795 12.3141 5.29267 12.3428 5.11589 12.5549L5.88411 13.1951ZM1.08175 11.4095L1.52725 11.6365L1.08175 11.4095ZM1.40942 11.0817L1.63642 11.5272L1.40942 11.0817ZM1.40942 16.9182L1.63642 16.4727H1.63642L1.40942 16.9182ZM1.08175 16.5905L0.636242 16.8175L1.08175 16.5905ZM6.91833 16.5905L6.47283 16.3635L6.91833 16.5905ZM6.59042 16.9182L6.36342 16.4727L6.59042 16.9182ZM6.91833 11.4095L6.47283 11.6365V11.6365L6.91833 11.4095ZM6.59042 11.0817L6.81741 10.6362L6.59042 11.0817ZM2.14645 14.3536L3.27145 15.4786L3.97855 14.7714L2.85355 13.6464L2.14645 14.3536ZM4.00911 15.4451L5.88411 13.1951L5.11589 12.5549L3.24089 14.8049L4.00911 15.4451ZM6.5 12.2V15.8H7.5V12.2H6.5ZM5.80007 16.5H2.20007V17.5H5.80007V16.5ZM1.5 15.8V12.2H0.5V15.8H1.5ZM2.20007 11.5H5.80007V10.5H2.20007V11.5ZM1.5 12.2C1.5 11.9817 1.50039 11.8481 1.50856 11.7481C1.51236 11.7015 1.51714 11.6734 1.52117 11.6563C1.52309 11.6481 1.52469 11.6431 1.52566 11.6404C1.52659 11.6378 1.52714 11.6367 1.52725 11.6365L0.636242 11.1825C0.553472 11.345 0.524624 11.5107 0.511879 11.6667C0.499611 11.8168 0.5 11.9982 0.5 12.2H1.5ZM2.20007 10.5C1.9983 10.5 1.81687 10.4996 1.66669 10.5119C1.51071 10.5246 1.34491 10.5535 1.18243 10.6362L1.63642 11.5272C1.63661 11.5272 1.63769 11.5266 1.64029 11.5257C1.643 11.5247 1.64801 11.5231 1.65616 11.5212C1.67329 11.5171 1.7015 11.5124 1.7481 11.5086C1.84813 11.5004 1.98181 11.5 2.20007 11.5V10.5ZM1.52725 11.6365C1.55128 11.5893 1.58951 11.5512 1.63642 11.5272L1.18243 10.6362C0.947097 10.7561 0.756018 10.9474 0.636242 11.1825L1.52725 11.6365ZM2.20007 16.5C1.98182 16.5 1.84813 16.4996 1.74811 16.4914C1.70151 16.4876 1.6733 16.4828 1.65617 16.4788C1.64802 16.4769 1.643 16.4753 1.64029 16.4743C1.63769 16.4734 1.63661 16.4728 1.63642 16.4727L1.18243 17.3637C1.3449 17.4465 1.51069 17.4754 1.66668 17.4881C1.81686 17.5004 1.99829 17.5 2.20007 17.5V16.5ZM0.5 15.8C0.5 16.0018 0.499611 16.1832 0.511878 16.3333C0.524622 16.4893 0.553466 16.655 0.636242 16.8175L1.52725 16.3635C1.52715 16.3633 1.52659 16.3622 1.52567 16.3596C1.5247 16.3569 1.52309 16.3519 1.52117 16.3438C1.51714 16.3267 1.51236 16.2985 1.50856 16.2519C1.50039 16.1519 1.5 16.0183 1.5 15.8H0.5ZM1.63642 16.4727C1.58945 16.4488 1.55126 16.4106 1.52725 16.3635L0.636242 16.8175C0.756045 17.0526 0.94715 17.2439 1.18243 17.3637L1.63642 16.4727ZM6.5 15.8C6.5 16.0183 6.49963 16.1519 6.49148 16.252C6.48768 16.2986 6.4829 16.3267 6.47888 16.3438C6.47696 16.352 6.47536 16.357 6.4744 16.3597C6.47347 16.3623 6.47292 16.3633 6.47283 16.3635L7.36384 16.8175C7.44664 16.655 7.47545 16.4892 7.48817 16.3332C7.50041 16.1831 7.5 16.0017 7.5 15.8H6.5ZM5.80007 17.5C6.00185 17.5 6.18321 17.5004 6.33334 17.4881C6.48933 17.4754 6.655 17.4465 6.81741 17.3637L6.36342 16.4727C6.36321 16.4729 6.36211 16.4734 6.35951 16.4743C6.3568 16.4753 6.35179 16.4769 6.34366 16.4788C6.32656 16.4829 6.29841 16.4876 6.25186 16.4914C6.15193 16.4996 6.01834 16.5 5.80007 16.5V17.5ZM6.47283 16.3635C6.449 16.4103 6.41072 16.4486 6.36342 16.4727L6.81741 17.3637C7.05236 17.244 7.24387 17.053 7.36384 16.8175L6.47283 16.3635ZM7.5 12.2C7.5 11.9983 7.50041 11.8169 7.48817 11.6668C7.47545 11.5108 7.44664 11.345 7.36384 11.1825L6.47283 11.6365C6.47293 11.6367 6.47348 11.6378 6.4744 11.6404C6.47536 11.6431 6.47697 11.6481 6.47888 11.6562C6.4829 11.6733 6.48768 11.7015 6.49148 11.748C6.49963 11.848 6.5 11.9817 6.5 12.2H7.5ZM5.80007 11.5C6.01835 11.5 6.15193 11.5004 6.25187 11.5086C6.29842 11.5124 6.32658 11.5171 6.34367 11.5212C6.3518 11.5231 6.3568 11.5247 6.35951 11.5257C6.36211 11.5266 6.36321 11.5271 6.36342 11.5272L6.81741 10.6362C6.65499 10.5535 6.48931 10.5246 6.33333 10.5119C6.18321 10.4996 6.00184 10.5 5.80007 10.5V11.5ZM7.36384 11.1825C7.24389 10.9471 7.05241 10.756 6.81741 10.6362L6.36342 11.5272C6.41067 11.5513 6.44897 11.5897 6.47283 11.6365L7.36384 11.1825Z" fill="#131740"/>
<path d="M22.1159 15.1493L16.6388 9.76762L15.1346 11.2456L20.6117 16.6273C20.7789 16.7916 21.0076 16.8815 21.2479 16.8777C21.4882 16.874 21.7202 16.7766 21.8928 16.607L22.0848 16.4184C22.2574 16.2488 22.3565 16.0208 22.3603 15.7847C22.3642 15.5486 22.2726 15.3238 22.1055 15.1596L22.1159 15.1493Z" stroke="#131740"/>
<path d="M7.09213 8.76298L14.8053 1.07782C14.8609 1.02781 14.9332 1 15.0086 1C15.084 1 15.157 1.02781 15.2127 1.07782L16.2522 2.07861L18.9077 4.69524C18.9366 4.72028 18.9596 4.75122 18.9754 4.78573C18.9913 4.82023 18.999 4.85753 18.999 4.89539C18.999 4.93325 18.9913 4.97055 18.9754 5.00506C18.9596 5.03957 18.9366 5.0705 18.9077 5.09555L16.2653 7.72529L16.6727 8.1256C16.7808 8.23163 16.8668 8.35758 16.9254 8.49622C16.9839 8.63486 17.0138 8.78335 17.0138 8.93344C17.0138 9.08354 16.9839 9.23239 16.9254 9.37103C16.8668 9.50967 16.7808 9.63562 16.6727 9.74165L15.0431 11.3425C14.9352 11.4487 14.807 11.5333 14.6659 11.5908C14.5248 11.6483 14.3737 11.6777 14.2209 11.6777C14.0682 11.6777 13.917 11.6483 13.776 11.5908C13.6349 11.5333 13.5067 11.4487 13.3988 11.3425L12.9914 10.9422L11.2093 12.7803C11.1512 12.8314 11.0765 12.8596 10.9986 12.8596C10.9206 12.8596 10.8452 12.8314 10.7872 12.7803L7.09213 9.16328C7.06323 9.13824 7.04021 9.1073 7.02435 9.0728C7.0085 9.03829 7.00004 9.00099 7.00004 8.96313C7.00004 8.92527 7.0085 8.88761 7.02435 8.8531C7.04021 8.81859 7.06323 8.78802 7.09213 8.76298Z" stroke="#131740"/>
</svg>
