<svg width="18" height="20" viewBox="0 0 18 20" fill="none" xmlns="http://www.w3.org/2000/svg">
<path d="M2.19266 17.0354H12.6177C12.7683 17.0354 12.9177 17.0646 13.0568 17.1212C13.1959 17.1778 13.3224 17.2609 13.4289 17.3655C13.5353 17.4701 13.6195 17.5944 13.6771 17.7311C13.7348 17.8678 13.7648 18.0142 13.7648 18.1621V19.0221C13.767 19.0597 13.7607 19.097 13.7471 19.1321C13.7335 19.1673 13.713 19.1993 13.686 19.2259C13.6589 19.2525 13.626 19.2733 13.5902 19.2867C13.5544 19.3001 13.5164 19.3059 13.4782 19.3037H1.28725C1.24903 19.3059 1.21104 19.3001 1.17527 19.2867C1.1395 19.2733 1.10657 19.2525 1.0795 19.2259C1.05243 19.1993 1.03125 19.1673 1.01761 19.1321C1.00398 19.097 0.998481 19.0597 1.00067 19.0221V18.1621C1.00055 18.0104 1.03159 17.8603 1.09202 17.7206C1.15246 17.5809 1.24076 17.4545 1.35208 17.3492C1.4634 17.244 1.5952 17.1621 1.73958 17.1082C1.88397 17.0542 2.03831 17.0294 2.19266 17.0354ZM5.34604 8.76298L13.0592 1.07782C13.1148 1.02781 13.1871 1 13.2625 1C13.3379 1 13.4109 1.02781 13.4666 1.07782L14.5061 2.07861L17.1616 4.69524C17.1905 4.72028 17.2135 4.75122 17.2294 4.78573C17.2452 4.82023 17.2529 4.85754 17.2529 4.8954C17.2529 4.93325 17.2452 4.97056 17.2294 5.00506C17.2135 5.03957 17.1905 5.07051 17.1616 5.09555L14.5192 7.72529L14.9266 8.1256C15.0347 8.23163 15.1207 8.35758 15.1793 8.49622C15.2378 8.63486 15.2677 8.78335 15.2677 8.93344C15.2677 9.08354 15.2378 9.23239 15.1793 9.37103C15.1207 9.50967 15.0347 9.63562 14.9266 9.74165L13.297 11.3425C13.1891 11.4487 13.0609 11.5333 12.9198 11.5908C12.7787 11.6483 12.6276 11.6777 12.4748 11.6777C12.3221 11.6777 12.171 11.6483 12.0299 11.5908C11.8888 11.5333 11.7606 11.4487 11.6527 11.3425L11.2453 10.9422L9.46319 12.7803C9.4051 12.8314 9.33043 12.8596 9.25249 12.8596C9.17456 12.8596 9.09915 12.8314 9.04106 12.7803L5.34604 9.16328C5.31714 9.13824 5.29411 9.1073 5.27826 9.0728C5.26241 9.03829 5.25395 9.00099 5.25395 8.96313C5.25395 8.92527 5.26241 8.88761 5.27826 8.8531C5.29411 8.81859 5.31714 8.78802 5.34604 8.76298Z" stroke="#131740"/>
</svg>
