<svg width="29" height="23" viewBox="0 0 29 23" fill="none" xmlns="http://www.w3.org/2000/svg">
<path d="M16.7603 21.3465C16.7603 22.0369 17.3199 22.5965 18.0103 22.5965C18.7006 22.5965 19.2603 22.0369 19.2603 21.3465H16.7603ZM0.751953 21.3465C0.751953 22.0369 1.3116 22.5965 2.00195 22.5965C2.69231 22.5965 3.25195 22.0369 3.25195 21.3465H0.751953ZM22.0964 17.3445C22.0964 18.0348 22.656 18.5945 23.3464 18.5945C24.0368 18.5945 24.5964 18.0348 24.5964 17.3445H22.0964ZM24.5964 9.34029C24.5964 8.64993 24.0368 8.09029 23.3464 8.09029C22.656 8.09029 22.0964 8.64993 22.0964 9.34029H24.5964ZM19.3443 12.0924C18.654 12.0924 18.0943 12.652 18.0943 13.3424C18.0943 14.0327 18.654 14.5924 19.3443 14.5924V12.0924ZM27.3485 14.5924C28.0388 14.5924 28.5985 14.0327 28.5985 13.3424C28.5985 12.652 28.0388 12.0924 27.3485 12.0924V14.5924ZM19.2603 21.3465C19.2603 19.325 18.0312 17.6479 16.3593 16.5333C14.6786 15.4128 12.4288 14.7604 10.0061 14.7604V17.2604C12.004 17.2604 13.7563 17.8026 14.9725 18.6134C16.1975 19.4301 16.7603 20.421 16.7603 21.3465H19.2603ZM10.0061 14.7604C7.58347 14.7604 5.33363 15.4128 3.65294 16.5333C1.981 17.6479 0.751953 19.325 0.751953 21.3465H3.25195C3.25195 20.421 3.8147 19.4301 5.03969 18.6134C6.25595 17.8026 8.00819 17.2604 10.0061 17.2604V14.7604ZM24.5964 17.3445V9.34029H22.0964V17.3445H24.5964ZM19.3443 14.5924H27.3485V12.0924H19.3443V14.5924ZM10.0061 10.7583C7.74942 10.7583 5.92001 8.92893 5.92001 6.67223H3.42001C3.42001 10.3096 6.36871 13.2583 10.0061 13.2583V10.7583ZM5.92001 6.67223C5.92001 4.41553 7.74942 2.58612 10.0061 2.58612V0.0861206C6.36871 0.0861206 3.42001 3.03482 3.42001 6.67223H5.92001ZM10.0061 2.58612C12.2628 2.58612 14.0922 4.41553 14.0922 6.67223H16.5922C16.5922 3.03482 13.6435 0.0861206 10.0061 0.0861206V2.58612ZM14.0922 6.67223C14.0922 8.92893 12.2628 10.7583 10.0061 10.7583V13.2583C13.6435 13.2583 16.5922 10.3096 16.5922 6.67223H14.0922Z" fill="#0071E3"/>
</svg>
