<svg width="16" height="13" viewBox="0 0 16 13" fill="none" xmlns="http://www.w3.org/2000/svg">
<path d="M8.57707 0.999808L14.9277 11.9998C14.9862 12.1012 15.0171 12.2161 15.0171 12.3331C15.0171 12.4502 14.9863 12.5651 14.9277 12.6665C14.8692 12.7678 14.7851 12.852 14.6837 12.9105C14.5824 12.969 14.4674 12.9998 14.3504 12.9998H1.64907C1.53205 12.9998 1.41709 12.969 1.31574 12.9105C1.2144 12.852 1.13024 12.7678 1.07173 12.6665C1.01322 12.5651 0.982421 12.4502 0.982422 12.3331C0.982423 12.2161 1.01323 12.1012 1.07174 11.9998L7.4224 0.999808C7.48092 0.89847 7.56508 0.814318 7.66642 0.755812C7.76776 0.697305 7.88272 0.666504 7.99974 0.666504C8.11676 0.666504 8.23171 0.697305 8.33306 0.755812C8.4344 0.814318 8.51856 0.89847 8.57707 0.999808ZM7.33307 9.66647V10.9998H8.6664V9.66647H7.33307ZM7.33307 4.99981V8.33314H8.6664V4.99981H7.33307Z" fill="#131740"/>
</svg>
