<svg width="14" height="13" viewBox="0 0 14 13" fill="none" xmlns="http://www.w3.org/2000/svg">
<path d="M7.00035 1.01932C8.56635 -0.38668 10.9863 -0.340013 12.495 1.17132C14.003 2.68332 14.055 5.09132 12.6523 6.66199L6.99901 12.3233L1.34701 6.66199C-0.0556549 5.09132 -0.00298804 2.67932 1.50435 1.17132C3.01435 -0.338013 5.42968 -0.38868 7.00035 1.01932ZM11.551 2.11332C10.551 1.11199 8.93768 1.07132 7.89101 2.01132L7.00101 2.80999L6.11035 2.01199C5.06035 1.07065 3.45035 1.11199 2.44768 2.11465C1.45435 3.10799 1.40435 4.69799 2.31968 5.74865L6.99968 10.436L11.6797 5.74932C12.5957 4.69799 12.5457 3.10999 11.551 2.11332Z" fill="#131740"/>
</svg>
