<svg width="15" height="15" viewBox="0 0 15 15" fill="none" xmlns="http://www.w3.org/2000/svg">
<path d="M7.5 6.20482L1.06135 3.85685M7.5 6.20482L13.9407 3.86461M7.5 6.20482V14M2.54193 12.3148L6.73082 13.8133C7.01586 13.9153 7.15839 13.9663 7.30457 13.9865C7.43425 14.0045 7.56575 14.0045 7.69543 13.9865C7.84161 13.9663 7.98414 13.9153 8.26918 13.8133L12.4581 12.3148C13.0132 12.1162 13.2908 12.0169 13.4957 11.8388C13.6767 11.6815 13.8165 11.4813 13.9025 11.256C14 11.0009 14 10.7025 14 10.1057V4.89426C14 4.29752 14 3.99915 13.9025 3.74403C13.8165 3.5187 13.6767 3.31847 13.4957 3.1612C13.2908 2.98313 13.0132 2.88383 12.4581 2.68522L8.26918 1.18666C7.98414 1.08468 7.84161 1.0337 7.69543 1.01346C7.56575 0.995512 7.43425 0.995512 7.30457 1.01346C7.15839 1.0337 7.01586 1.08468 6.73082 1.18666L2.54193 2.68522C1.98677 2.88383 1.70919 2.98313 1.50428 3.1612C1.32331 3.31847 1.18354 3.5187 1.09746 3.74403C1 3.99915 1 4.29752 1 4.89426V10.1057C1 10.7025 1 11.0009 1.09746 11.256C1.18354 11.4813 1.32331 11.6815 1.50428 11.8388C1.70919 12.0169 1.98677 12.1162 2.54193 12.3148Z" stroke="#fff" stroke-linecap="round" stroke-linejoin="round"/>
</svg>
