<svg width="19" height="19" viewBox="0 0 19 19" fill="none" xmlns="http://www.w3.org/2000/svg">
<path d="M9.23988 13.37C11.3717 13.37 13.0999 11.6418 13.0999 9.51001C13.0999 7.37819 11.3717 5.65002 9.23988 5.65002C7.10806 5.65002 5.37988 7.37819 5.37988 9.51001C5.37988 11.6418 7.10806 13.37 9.23988 13.37Z" fill="white"/>
<path d="M8.87988 0.809937V4.32996C8.87988 4.42543 8.91781 4.51702 8.98532 4.58453C9.05284 4.65205 9.14441 4.68994 9.23988 4.68994C9.33536 4.68994 9.42693 4.65205 9.49444 4.58453C9.56196 4.51702 9.59988 4.42543 9.59988 4.32996V0.839966C9.59988 0.744488 9.56196 0.652901 9.49444 0.585388C9.42693 0.517875 9.33536 0.47998 9.23988 0.47998C9.14441 0.47998 9.05284 0.517875 8.98532 0.585388C8.91781 0.652901 8.87988 0.744488 8.87988 0.839966V0.809937Z" fill="white"/>
<path d="M2.82999 3.61005L4.98999 5.77002L5.29999 6.08002C5.36762 6.14765 5.45935 6.18567 5.55499 6.18567C5.65063 6.18567 5.74236 6.14765 5.80999 6.08002C5.87762 6.01239 5.91561 5.92066 5.91561 5.82501C5.91561 5.72937 5.87762 5.63764 5.80999 5.57001L3.64999 3.41003L3.33999 3.10004C3.27236 3.03241 3.18063 2.99438 3.08499 2.99438C2.98935 2.99438 2.89762 3.03241 2.82999 3.10004C2.76236 3.16767 2.72437 3.2594 2.72437 3.35504C2.72437 3.45069 2.76236 3.54242 2.82999 3.61005Z" fill="white"/>
<path d="M0.529922 9.87H4.02992C4.1254 9.87 4.21697 9.83204 4.28448 9.76453C4.35199 9.69701 4.38992 9.60549 4.38992 9.51001C4.38992 9.41453 4.35199 9.32288 4.28448 9.25537C4.21697 9.18786 4.1254 9.1499 4.02992 9.1499H0.529922C0.434444 9.1499 0.342876 9.18786 0.275363 9.25537C0.20785 9.32288 0.169922 9.41453 0.169922 9.51001C0.169922 9.60549 0.20785 9.69701 0.275363 9.76453C0.342876 9.83204 0.434444 9.87 0.529922 9.87Z" fill="white"/>
<path d="M3.33999 15.9199L5.49999 13.75L5.80999 13.45C5.87762 13.3823 5.91561 13.2906 5.91561 13.1949C5.91561 13.0993 5.87762 13.0076 5.80999 12.9399C5.74236 12.8723 5.65063 12.8344 5.55499 12.8344C5.45935 12.8344 5.36762 12.8723 5.29999 12.9399L3.13999 15.1L2.82999 15.4099C2.76236 15.4775 2.72437 15.5693 2.72437 15.6649C2.72437 15.7606 2.76236 15.8523 2.82999 15.9199C2.89762 15.9876 2.98935 16.0256 3.08499 16.0256C3.18063 16.0256 3.27236 15.9876 3.33999 15.9199Z" fill="white"/>
<path d="M9.59988 18.21V14.72C9.59988 14.6245 9.56196 14.533 9.49444 14.4655C9.42693 14.3979 9.33536 14.36 9.23988 14.36C9.14441 14.36 9.05284 14.3979 8.98532 14.4655C8.91781 14.533 8.87988 14.6245 8.87988 14.72V18.21C8.87988 18.3054 8.91781 18.397 8.98532 18.4645C9.05284 18.532 9.14441 18.5699 9.23988 18.5699C9.33536 18.5699 9.42693 18.532 9.49444 18.4645C9.56196 18.397 9.59988 18.3054 9.59988 18.21Z" fill="white"/>
<path d="M15.6501 15.4099L13.4801 13.25L13.1801 12.9399C13.1466 12.9065 13.1068 12.8799 13.0631 12.8618C13.0193 12.8437 12.9724 12.8344 12.9251 12.8344C12.8777 12.8344 12.8308 12.8437 12.7871 12.8618C12.7433 12.8799 12.7036 12.9065 12.6701 12.9399C12.6366 12.9734 12.61 13.0133 12.5919 13.057C12.5738 13.1008 12.5645 13.1476 12.5645 13.1949C12.5645 13.2423 12.5738 13.2893 12.5919 13.333C12.61 13.3768 12.6366 13.4165 12.6701 13.45L14.8301 15.61L15.1401 15.9199C15.4701 16.2499 15.9701 15.7399 15.6501 15.4099Z" fill="white"/>
<path d="M17.9401 9.1499H14.4501C14.3546 9.1499 14.263 9.18786 14.1955 9.25537C14.128 9.32288 14.0901 9.41453 14.0901 9.51001C14.0901 9.60549 14.128 9.69701 14.1955 9.76453C14.263 9.83204 14.3546 9.87 14.4501 9.87H17.9401C18.0356 9.87 18.1271 9.83204 18.1946 9.76453C18.2622 9.69701 18.3001 9.60549 18.3001 9.51001C18.3001 9.41453 18.2622 9.32288 18.1946 9.25537C18.1271 9.18786 18.0356 9.1499 17.9401 9.1499Z" fill="white"/>
<path d="M15.1401 3.09997L12.9801 5.25995L12.6701 5.56994C12.6024 5.63757 12.5645 5.7293 12.5645 5.82495C12.5645 5.92059 12.6024 6.01232 12.6701 6.07995C12.7377 6.14758 12.8294 6.1856 12.9251 6.1856C13.0207 6.1856 13.1124 6.14758 13.1801 6.07995L15.3401 3.91998L15.6501 3.60998C15.9701 3.27998 15.4701 2.76997 15.1401 3.09997Z" fill="white"/>
</svg>
