<svg width="15" height="17" viewBox="0 0 15 17" fill="none" xmlns="http://www.w3.org/2000/svg">
<path d="M12.7419 6L7.70968 1M12.7419 6H10.3935C9.45411 6 8.98438 6 8.62556 5.81834C8.30994 5.65856 8.05332 5.40359 7.89251 5.08998C7.70968 4.73346 7.70968 4.26675 7.70968 3.33333V1M12.7419 6V8.5M7.70968 1H3.68387C2.74443 1 2.27471 1 1.91589 1.18166C1.60026 1.34144 1.34365 1.59641 1.18283 1.91002C1 2.26654 1 2.73325 1 3.66667V13.3333C1 14.2668 1 14.7335 1.18283 15.09C1.34365 15.4036 1.60026 15.6586 1.91589 15.8183C2.27471 16 2.74443 16 3.68387 16H6.87097M9.80645 13.9167H11.9032M11.9032 13.9167H14M11.9032 13.9167V11.8333M11.9032 13.9167V16M4.35484 12.6667H6.87097M4.35484 9.33333H9.3871M4.35484 6H5.19355" stroke="#fff" stroke-linecap="round" stroke-linejoin="round"/>
</svg>
