<svg width="14" height="13" viewBox="0 0 14 13" fill="none" xmlns="http://www.w3.org/2000/svg">
<path d="M0.333508 3.00001C0.333508 2.63201 0.636842 2.33334 0.994842 2.33334H13.0055C13.3708 2.33334 13.6668 2.63001 13.6668 3.00001V12.3333C13.6668 12.7013 13.3635 13 13.0055 13H0.994842C0.907594 12.9998 0.821239 12.9824 0.740733 12.9488C0.660227 12.9152 0.587154 12.866 0.525709 12.804C0.464263 12.7421 0.415654 12.6686 0.382672 12.5879C0.349689 12.5071 0.332981 12.4206 0.333508 12.3333V3.00001ZM1.66684 3.66668V11.6667H12.3335V3.66668H1.66684ZM8.33351 9.66668C8.86394 9.66668 9.37265 9.45596 9.74772 9.08089C10.1228 8.70582 10.3335 8.19711 10.3335 7.66668C10.3335 7.13624 10.1228 6.62754 9.74772 6.25246C9.37265 5.87739 8.86394 5.66668 8.33351 5.66668C7.80307 5.66668 7.29437 5.87739 6.91929 6.25246C6.54422 6.62754 6.33351 7.13624 6.33351 7.66668C6.33351 8.19711 6.54422 8.70582 6.91929 9.08089C7.29437 9.45596 7.80307 9.66668 8.33351 9.66668ZM8.33351 11C7.44945 11 6.60161 10.6488 5.97649 10.0237C5.35136 9.39858 5.00017 8.55073 5.00017 7.66668C5.00017 6.78262 5.35136 5.93478 5.97649 5.30965C6.60161 4.68453 7.44945 4.33334 8.33351 4.33334C9.21756 4.33334 10.0654 4.68453 10.6905 5.30965C11.3157 5.93478 11.6668 6.78262 11.6668 7.66668C11.6668 8.55073 11.3157 9.39858 10.6905 10.0237C10.0654 10.6488 9.21756 11 8.33351 11ZM1.66684 0.333344H5.66684V1.66668H1.66684V0.333344Z" fill="#131740"/>
</svg>
