<svg width="20" height="20" viewBox="0 0 20 20" fill="none" xmlns="http://www.w3.org/2000/svg">
<path d="M19 10.8482H19.5C19.5 10.5721 19.2761 10.3482 19 10.3482V10.8482ZM12.6062 2.21615L12.8542 2.65027L12.6062 2.21615ZM12.2938 2.39464L12.5419 2.82876L12.5419 2.82876L12.2938 2.39464ZM10.7062 2.39464L10.9542 1.96051V1.96051L10.7062 2.39464ZM8.79382 1.30186L8.54575 1.73598L8.79382 1.30186ZM7.20618 1.30186L7.45425 1.73598L7.45425 1.73598L7.20618 1.30186ZM5.29382 2.39464L5.04575 1.96051V1.96051L5.29382 2.39464ZM3.70618 2.39464L3.45811 2.82876V2.82876L3.70618 2.39464ZM3.39382 2.21615L3.64189 1.78203V1.78203L3.39382 2.21615ZM1.32698 17.2102L1.77248 16.9832L1.77248 16.9832L1.32698 17.2102ZM2.63803 18.5213L2.41103 18.9668H2.41103L2.63803 18.5213ZM1.89237 1.57724L1.83856 1.08014L1.83856 1.08014L1.89237 1.57724ZM1.1902 1.98472L0.785298 1.69137L0.785298 1.69137L1.1902 1.98472ZM4.70617 2.67501L4.80925 3.16427H4.80925L4.70617 2.67501ZM4.29383 2.67501L4.19075 3.16427H4.19075L4.29383 2.67501ZM8.20617 1.02148L8.10308 1.51074V1.51074L8.20617 1.02148ZM7.79383 1.02148L7.89692 1.51074V1.51074L7.79383 1.02148ZM11.7062 2.67501L11.8093 3.16427L11.7062 2.67501ZM11.2938 2.67501L11.1907 3.16427L11.2938 2.67501ZM14.1076 1.57724L14.1614 1.08014V1.08014L14.1076 1.57724ZM14.8098 1.98472L14.4049 2.27808V2.27808L14.8098 1.98472ZM7.6 8.22426L7.58674 7.72443L7.58442 7.72451L7.6 8.22426ZM6 9.53578L5.5 9.53491L6 9.53578ZM9.87963 8.83357C10.1477 8.90005 10.4188 8.73667 10.4853 8.46865C10.5518 8.20062 10.3884 7.92946 10.1204 7.86298L9.87963 8.83357ZM8 8.22426L8.00333 8.72425L8 8.22426ZM8.1861 13.4473V13.9473C8.20554 13.9473 8.22497 13.9462 8.24428 13.9439L8.1861 13.4473ZM6.06202 12.8521C5.78801 12.8179 5.53811 13.0123 5.50386 13.2863C5.46961 13.5603 5.66397 13.8102 5.93798 13.8444L6.06202 12.8521ZM8.5 13.8482C8.5 13.5721 8.27614 13.3482 8 13.3482C7.72386 13.3482 7.5 13.5721 7.5 13.8482H8.5ZM7.5 14.8482C7.5 15.1244 7.72386 15.3482 8 15.3482C8.27614 15.3482 8.5 15.1244 8.5 14.8482H7.5ZM8.5 6.84825C8.5 6.57211 8.27614 6.34825 8 6.34825C7.72386 6.34825 7.5 6.57211 7.5 6.84825H8.5ZM7.5 7.84825C7.5 8.12439 7.72386 8.34825 8 8.34825C8.27614 8.34825 8.5 8.12439 8.5 7.84825H7.5ZM15 11.3482H19V10.3482H15V11.3482ZM18.5 10.8482V16.8482H19.5V10.8482H18.5ZM15.5 16.8482V10.8482H14.5V16.8482H15.5ZM17 18.3482C16.1716 18.3482 15.5 17.6767 15.5 16.8482H14.5C14.5 18.229 15.6193 19.3482 17 19.3482V18.3482ZM18.5 16.8482C18.5 17.6767 17.8284 18.3482 17 18.3482V19.3482C18.3807 19.3482 19.5 18.229 19.5 16.8482H18.5ZM12.3581 1.78203L12.0458 1.96051L12.5419 2.82876L12.8542 2.65027L12.3581 1.78203ZM10.9542 1.96051L9.04189 0.86774L8.54575 1.73598L10.4581 2.82876L10.9542 1.96051ZM6.95811 0.86774L5.04575 1.96051L5.54189 2.82876L7.45425 1.73598L6.95811 0.86774ZM3.95425 1.96051L3.64189 1.78203L3.14575 2.65027L3.45811 2.82876L3.95425 1.96051ZM0.5 3.60534V14.0482H1.5V3.60534H0.5ZM15.5 10.8482V3.60534H14.5V10.8482H15.5ZM0.5 14.0482C0.5 14.8801 0.499611 15.534 0.542533 16.0594C0.585932 16.5905 0.676087 17.0341 0.881477 17.4372L1.77248 16.9832C1.65089 16.7446 1.57756 16.4473 1.53921 15.9779C1.50039 15.5028 1.5 14.8966 1.5 14.0482H0.5ZM5.8 18.3482C4.95167 18.3482 4.34549 18.3479 3.87032 18.309C3.40099 18.2707 3.10366 18.1974 2.86502 18.0758L2.41103 18.9668C2.81413 19.1722 3.25771 19.2623 3.78889 19.3057C4.31423 19.3486 4.96817 19.3482 5.8 19.3482V18.3482ZM0.881477 17.4372C1.21703 18.0958 1.75247 18.6312 2.41103 18.9668L2.86502 18.0758C2.39462 17.8361 2.01217 17.4536 1.77248 16.9832L0.881477 17.4372ZM3.64189 1.78203C3.25739 1.56231 2.93918 1.3799 2.67655 1.26019C2.41614 1.1415 2.13619 1.04792 1.83856 1.08014L1.94619 2.07433C1.97086 2.07166 2.04858 2.07294 2.2618 2.17013C2.47278 2.26629 2.74415 2.42078 3.14575 2.65027L3.64189 1.78203ZM1.5 3.60534C1.5 3.14279 1.5005 2.83053 1.52168 2.59963C1.54309 2.36629 1.58054 2.29817 1.5951 2.27808L0.785298 1.69137C0.609658 1.9338 0.552009 2.2233 0.525866 2.50828C0.499498 2.79571 0.5 3.16249 0.5 3.60534H1.5ZM1.83856 1.08014C1.41684 1.1258 1.03417 1.34787 0.785298 1.69137L1.5951 2.27808C1.67806 2.16358 1.80561 2.08955 1.94619 2.07433L1.83856 1.08014ZM5.04575 1.96051C4.72745 2.1424 4.66168 2.17341 4.60308 2.18576L4.80925 3.16427C5.05794 3.11188 5.28152 2.97754 5.54189 2.82876L5.04575 1.96051ZM3.45811 2.82876C3.71848 2.97754 3.94206 3.11188 4.19075 3.16427L4.39692 2.18576C4.33832 2.17341 4.27255 2.1424 3.95425 1.96051L3.45811 2.82876ZM4.60308 2.18576C4.53511 2.20008 4.46489 2.20008 4.39692 2.18576L4.19075 3.16427C4.39468 3.20724 4.60532 3.20724 4.80925 3.16427L4.60308 2.18576ZM9.04189 0.86774C8.78152 0.718955 8.55794 0.584623 8.30925 0.532225L8.10308 1.51074C8.16168 1.52309 8.22745 1.55409 8.54575 1.73598L9.04189 0.86774ZM7.45425 1.73598C7.77255 1.55409 7.83832 1.52309 7.89692 1.51074L7.69075 0.532225C7.44206 0.584623 7.21848 0.718955 6.95811 0.86774L7.45425 1.73598ZM8.30925 0.532226C8.10532 0.489258 7.89468 0.489258 7.69075 0.532226L7.89692 1.51074C7.96489 1.49642 8.03511 1.49642 8.10308 1.51074L8.30925 0.532226ZM12.0458 1.96051C11.7274 2.1424 11.6617 2.17341 11.6031 2.18576L11.8093 3.16427C12.0579 3.11188 12.2815 2.97754 12.5419 2.82876L12.0458 1.96051ZM10.4581 2.82876C10.7185 2.97754 10.9421 3.11188 11.1907 3.16427L11.3969 2.18576C11.3383 2.17341 11.2725 2.1424 10.9542 1.96051L10.4581 2.82876ZM11.6031 2.18576C11.5351 2.20008 11.4649 2.20008 11.3969 2.18576L11.1907 3.16427C11.3947 3.20724 11.6053 3.20724 11.8093 3.16427L11.6031 2.18576ZM12.8542 2.65027C13.2558 2.42078 13.5272 2.26629 13.7382 2.17013C13.9514 2.07294 14.0291 2.07166 14.0538 2.07433L14.1614 1.08014C13.8638 1.04792 13.5839 1.1415 13.3235 1.26019C13.0608 1.3799 12.7426 1.56231 12.3581 1.78203L12.8542 2.65027ZM15.5 3.60534C15.5 3.16249 15.5005 2.79571 15.4741 2.50828C15.448 2.2233 15.3903 1.9338 15.2147 1.69137L14.4049 2.27808C14.4195 2.29817 14.4569 2.36629 14.4783 2.59963C14.4995 2.83053 14.5 3.14279 14.5 3.60534H15.5ZM14.0538 2.07433C14.1944 2.08955 14.3219 2.16358 14.4049 2.27808L15.2147 1.69137C14.9658 1.34787 14.5832 1.1258 14.1614 1.08014L14.0538 2.07433ZM7.58442 7.72451C7.12866 7.73872 6.62182 7.84036 6.21418 8.12118C5.77961 8.42055 5.50111 8.89598 5.5 9.53491L6.5 9.53664C6.50054 9.22483 6.61833 9.05709 6.78149 8.94469C6.97158 8.81373 7.26392 8.73499 7.61559 8.72402L7.58442 7.72451ZM5.5 9.53491C5.49877 10.2499 5.87245 10.7356 6.38777 11.0123C6.8683 11.2704 7.46468 11.3483 8 11.3483V10.3483C7.53532 10.3483 7.13082 10.2763 6.86092 10.1314C6.6258 10.0051 6.49949 9.83451 6.5 9.53664L5.5 9.53491ZM8 11.3483C8.47934 11.3483 8.8804 11.4069 9.14623 11.5436C9.27058 11.6076 9.35225 11.6821 9.40499 11.7659C9.45694 11.8484 9.5 11.9702 9.5 12.1608H10.5C10.5 11.8107 10.4181 11.4981 10.2513 11.2331C10.0852 10.9695 9.85442 10.7834 9.60377 10.6544C9.11959 10.4053 8.52066 10.3483 8 10.3483V11.3483ZM10.1204 7.86298C9.54629 7.72059 8.66062 7.71985 7.99667 7.72427L8.00333 8.72425C8.70955 8.71955 9.45371 8.72793 9.87963 8.83357L10.1204 7.86298ZM7.99667 7.72427C7.89397 7.72496 7.88078 7.7233 7.84873 7.7221C7.79847 7.72023 7.7415 7.72033 7.58674 7.72444L7.61327 8.72409C7.76791 8.71998 7.7964 8.72085 7.81151 8.72141C7.84484 8.72265 7.87694 8.72509 8.00333 8.72425L7.99667 7.72427ZM9.5 12.1608C9.5 12.3631 9.41582 12.5087 9.20496 12.6409C8.9691 12.7887 8.60134 12.8953 8.12792 12.9507L8.24428 13.9439C8.77726 13.8815 9.31645 13.7511 9.73594 13.4883C10.1804 13.2097 10.5 12.771 10.5 12.1608H9.5ZM8.1861 12.9473C7.37817 12.9473 7.02514 12.9725 6.06202 12.8521L5.93798 13.8444C6.97486 13.974 7.39403 13.9473 8.1861 13.9473V12.9473ZM7.5 13.8482V14.8482H8.5V13.8482H7.5ZM7.5 6.84825V7.84825H8.5V6.84825H7.5ZM5.8 19.3482H17V18.3482H5.8V19.3482Z" fill="#131A29"/>
</svg>
