<svg width="14" height="12" viewBox="0 0 14 12" fill="none" xmlns="http://www.w3.org/2000/svg">
<path d="M0.333496 0.666667C0.333496 0.489856 0.403734 0.320286 0.528758 0.195262C0.653782 0.0702379 0.823352 0 1.00016 0H13.0002C13.177 0 13.3465 0.0702379 13.4716 0.195262C13.5966 0.320286 13.6668 0.489856 13.6668 0.666667V4.33333C13.2248 4.33333 12.8009 4.50893 12.4883 4.82149C12.1758 5.13405 12.0002 5.55797 12.0002 6C12.0002 6.44203 12.1758 6.86595 12.4883 7.17851C12.8009 7.49107 13.2248 7.66667 13.6668 7.66667V11.3333C13.6668 11.5101 13.5966 11.6797 13.4716 11.8047C13.3465 11.9298 13.177 12 13.0002 12H1.00016C0.823352 12 0.653782 11.9298 0.528758 11.8047C0.403734 11.6797 0.333496 11.5101 0.333496 11.3333V0.666667ZM4.39016 10.6667C4.45888 10.4713 4.58653 10.3022 4.7555 10.1825C4.92448 10.0628 5.12643 9.99851 5.3335 9.99851C5.54056 9.99851 5.74252 10.0628 5.91149 10.1825C6.08046 10.3022 6.20812 10.4713 6.27683 10.6667H12.3335V8.688C11.8327 8.4398 11.4112 8.05663 11.1165 7.58169C10.8218 7.10676 10.6657 6.55894 10.6657 6C10.6657 5.44107 10.8218 4.89324 11.1165 4.41831C11.4112 3.94337 11.8327 3.5602 12.3335 3.312V1.33333H6.27683C6.20812 1.52866 6.08046 1.69785 5.91149 1.81753C5.74252 1.93721 5.54056 2.00149 5.3335 2.00149C5.12643 2.00149 4.92448 1.93721 4.7555 1.81753C4.58653 1.69785 4.45888 1.52866 4.39016 1.33333H1.66683V10.6667H4.39016ZM5.3335 5.33333C5.06828 5.33333 4.81393 5.22798 4.62639 5.04044C4.43885 4.8529 4.3335 4.59855 4.3335 4.33333C4.3335 4.06812 4.43885 3.81376 4.62639 3.62623C4.81393 3.43869 5.06828 3.33333 5.3335 3.33333C5.59871 3.33333 5.85307 3.43869 6.0406 3.62623C6.22814 3.81376 6.3335 4.06812 6.3335 4.33333C6.3335 4.59855 6.22814 4.8529 6.0406 5.04044C5.85307 5.22798 5.59871 5.33333 5.3335 5.33333ZM5.3335 8.66667C5.06828 8.66667 4.81393 8.56131 4.62639 8.37377C4.43885 8.18624 4.3335 7.93188 4.3335 7.66667C4.3335 7.40145 4.43885 7.1471 4.62639 6.95956C4.81393 6.77202 5.06828 6.66667 5.3335 6.66667C5.59871 6.66667 5.85307 6.77202 6.0406 6.95956C6.22814 7.1471 6.3335 7.40145 6.3335 7.66667C6.3335 7.93188 6.22814 8.18624 6.0406 8.37377C5.85307 8.56131 5.59871 8.66667 5.3335 8.66667Z" fill="#131740"/>
</svg>
