<svg width="45" height="46" viewBox="0 0 45 46" fill="none" xmlns="http://www.w3.org/2000/svg">
<path d="M22.3549 5.82149C27.9952 5.82149 28.6611 5.82149 30.8874 5.94572C32.2281 5.95944 33.5563 6.2049 34.8133 6.67126C35.7296 7.01011 36.5583 7.55012 37.2383 8.25153C37.9398 8.9316 38.4798 9.76029 38.8186 10.6766C39.285 11.9336 39.5304 13.2618 39.5442 14.6025C39.6485 16.8288 39.6684 17.4947 39.6684 23.135C39.6684 28.7752 39.6684 29.4412 39.5442 31.6675C39.5304 33.0081 39.285 34.3363 38.8186 35.5933C38.4663 36.5028 37.9281 37.3288 37.2384 38.0184C36.5487 38.7081 35.7228 39.2463 34.8133 39.5987C33.5563 40.065 32.2281 40.3105 30.8874 40.3242C28.6611 40.4285 27.9952 40.4484 22.3549 40.4484C16.7146 40.4484 16.0487 40.4484 13.8224 40.3242C12.4818 40.3105 11.1536 40.065 9.89658 39.5987C8.98026 39.2598 8.15157 38.7198 7.4715 38.0184C6.77009 37.3383 6.23009 36.5096 5.89123 35.5933C5.42487 34.3363 5.17941 33.0081 5.16569 31.6675C5.08618 29.4412 5.04146 28.7752 5.04146 23.135C5.04146 17.4947 5.04146 16.8288 5.16569 14.6025C5.17941 13.2618 5.42487 11.9336 5.89123 10.6766C6.23009 9.76029 6.77009 8.9316 7.4715 8.25153C8.15157 7.55012 8.98026 7.01011 9.89658 6.67126C11.1536 6.2049 12.4818 5.95944 13.8224 5.94572C16.0487 5.84136 16.7146 5.82149 22.3549 5.82149ZM22.3549 2.01491C16.6202 2.01491 15.8947 2.03976 13.6485 2.14411C11.8949 2.18104 10.1605 2.51717 8.52005 3.138C7.11797 3.67811 5.84423 4.50526 4.78051 5.56642C3.71679 6.62757 2.88656 7.89931 2.34306 9.30008C1.72223 10.9405 1.3861 12.6749 1.34918 14.4285C1.24482 16.6797 1.21997 17.4102 1.21997 23.135C1.21997 28.8597 1.24482 29.5952 1.34918 31.8414C1.3861 33.595 1.72223 35.3294 2.34306 36.9698C2.88598 38.3715 3.71595 39.6442 4.7797 40.7063C5.84345 41.7683 7.11749 42.5962 8.52005 43.1369C10.1605 43.7577 11.8949 44.0938 13.6485 44.1308C15.8996 44.2351 16.6302 44.26 22.3549 44.26C28.0797 44.26 28.8152 44.26 31.0614 44.1308C32.815 44.0938 34.5494 43.7577 36.1898 43.1369C37.5905 42.5951 38.8626 41.7666 39.9246 40.7046C40.9866 39.6427 41.815 38.3706 42.3569 36.9698C42.9777 35.3294 43.3138 33.595 43.3507 31.8414C43.4551 29.5902 43.4799 28.8597 43.4799 23.135C43.4799 17.4102 43.4799 16.6747 43.3507 14.4285C43.3138 12.6749 42.9777 10.9405 42.3569 9.30008C41.8162 7.89752 40.9883 6.62348 39.9262 5.55973C38.8642 4.49598 37.5915 3.66601 36.1898 3.12309C34.5494 2.50226 32.815 2.16613 31.0614 2.1292C28.8102 2.02485 28.0797 2 22.3549 2V2.01491Z" stroke="#A1A2B3" stroke-width="2.5" stroke-miterlimit="10"/>
<path d="M22.3549 12.2917C20.2103 12.2917 18.1138 12.9276 16.3307 14.1191C14.5475 15.3106 13.1577 17.0041 12.337 18.9854C11.5163 20.9668 11.3016 23.147 11.72 25.2504C12.1383 27.3538 13.1711 29.2859 14.6875 30.8023C16.204 32.3188 18.1361 33.3515 20.2395 33.7699C22.3429 34.1883 24.5231 33.9736 26.5044 33.1529C28.4858 32.3321 30.1793 30.9423 31.3707 29.1592C32.5622 27.376 33.1982 25.2796 33.1982 23.135C33.1982 20.2592 32.0557 17.5011 30.0222 15.4676C27.9887 13.4341 25.2307 12.2917 22.3549 12.2917ZM22.3549 30.1816C20.9624 30.1816 19.6011 29.7687 18.4433 28.9952C17.2854 28.2217 16.3828 27.1222 15.8497 25.8358C15.3166 24.5494 15.1768 23.1338 15.4482 21.768C15.7195 20.4022 16.3896 19.1475 17.3739 18.1625C18.3582 17.1775 19.6125 16.5064 20.9781 16.2342C22.3437 15.9619 23.7594 16.1006 25.0462 16.6329C26.333 17.1651 27.4331 18.0668 28.2074 19.2242C28.9817 20.3815 29.3956 21.7425 29.3966 23.135C29.3952 25.0021 28.6529 26.7924 27.3326 28.1127C26.0124 29.433 24.222 30.1753 22.3549 30.1766V30.1816Z" stroke="#A1A2B3" stroke-width="2.5" stroke-miterlimit="10"/>
<path d="M33.6306 14.3938C35.0303 14.3938 36.165 13.2591 36.165 11.8594C36.165 10.4596 35.0303 9.32495 33.6306 9.32495C32.2309 9.32495 31.0962 10.4596 31.0962 11.8594C31.0962 13.2591 32.2309 14.3938 33.6306 14.3938Z" stroke="#A1A2B3" stroke-width="2.5" stroke-miterlimit="10"/>
</svg>
