<svg xmlns="http://www.w3.org/2000/svg" viewBox="0 0 87.5 87.5"><defs><style>.cls-1{fill:none;stroke:#fff;stroke-miterlimit:10;stroke-width:2.5px;}</style></defs><g id="Graphic_Elements" data-name="Graphic Elements"><path class="cls-1" d="M43.75,8.91c11.35,0,12.69,0,17.17.25a23.4,23.4,0,0,1,7.9,1.46A13.15,13.15,0,0,1,73.7,13.8a13.15,13.15,0,0,1,3.18,4.88,23.4,23.4,0,0,1,1.46,7.9c.21,4.48.25,5.82.25,17.17s0,12.69-.25,17.17a23.4,23.4,0,0,1-1.46,7.9,14.11,14.11,0,0,1-8.06,8.06,23.4,23.4,0,0,1-7.9,1.46c-4.48.21-5.82.25-17.17.25s-12.69,0-17.17-.25a23.4,23.4,0,0,1-7.9-1.46A13.15,13.15,0,0,1,13.8,73.7a13.15,13.15,0,0,1-3.18-4.88,23.4,23.4,0,0,1-1.46-7.9C9,56.44,8.91,55.1,8.91,43.75s0-12.69.25-17.17a23.4,23.4,0,0,1,1.46-7.9A13.15,13.15,0,0,1,13.8,13.8a13.15,13.15,0,0,1,4.88-3.18,23.4,23.4,0,0,1,7.9-1.46c4.48-.21,5.82-.25,17.17-.25m0-7.66c-11.54,0-13,.05-17.52.26a31,31,0,0,0-10.32,2A21.7,21.7,0,0,0,3.48,15.91a31,31,0,0,0-2,10.32c-.21,4.53-.26,6-.26,17.52s.05,13,.26,17.52a31,31,0,0,0,2,10.32A21.7,21.7,0,0,0,15.91,84a31,31,0,0,0,10.32,2c4.53.21,6,.26,17.52.26s13,0,17.52-.26a31,31,0,0,0,10.32-2A21.7,21.7,0,0,0,84,71.59a31,31,0,0,0,2-10.32c.21-4.53.26-6,.26-17.52s0-13-.26-17.52a31,31,0,0,0-2-10.32A21.7,21.7,0,0,0,71.59,3.48a31,31,0,0,0-10.32-2c-4.53-.21-6-.26-17.52-.26Z"/><path class="cls-1" d="M43.75,21.93A21.82,21.82,0,1,0,65.57,43.75,21.82,21.82,0,0,0,43.75,21.93Zm0,36A14.17,14.17,0,1,1,57.92,43.75,14.18,14.18,0,0,1,43.75,57.92Z"/><circle class="cls-1" cx="66.44" cy="21.06" r="5.1"/></g></svg>