<svg width="22" height="17" viewBox="0 0 22 17" fill="none" xmlns="http://www.w3.org/2000/svg">
<path d="M20.032 2.22513V14.7826C20.0241 15.0264 20.1231 15.2586 20.3013 15.425L20.9705 16.0674C21.3031 16.3847 21.6357 16.7059 21.9604 17H13.7797L13.7955 16.9845C14.1479 16.6672 14.4924 16.3383 14.829 16.0209C15.031 15.8236 15.2329 15.6378 15.4348 15.4443C15.6368 15.2625 15.7516 15.0071 15.7437 14.74V4.74824C15.7437 4.65536 15.712 4.56636 15.6487 4.4967L15.324 4.11359L15.1062 4.60892C15.0904 4.63988 15.0785 4.67471 15.0626 4.70567L14.635 5.76212C13.1343 9.47712 11.6296 13.2115 10.121 16.9613C10.0259 16.9536 9.92693 16.9536 9.83189 16.9613C9.38841 16.0093 8.94493 15.0574 8.49748 14.1054L4.08243 4.69793C4.04284 4.60505 3.97552 4.52379 3.89237 4.46187L3.39741 4.09811V12.9909C3.38949 13.2076 3.40533 13.4243 3.44888 13.6371C3.50036 13.8384 3.59539 14.0241 3.73398 14.1828C4.40713 14.9916 5.21094 15.9474 6.04248 16.911C6.05436 16.9265 6.06623 16.942 6.07415 16.9574H0C0.00791937 16.942 0.0237581 16.9226 0.0356371 16.9071C0.641469 16.2067 1.23542 15.4985 1.83333 14.7903L2.32829 14.2021C2.59359 13.8964 2.71238 13.4978 2.66091 13.1031C2.65695 13.0567 2.65695 13.0064 2.66091 12.9599V10.9244C2.65299 8.4168 2.65299 5.9053 2.66091 3.39768C2.67279 2.99522 2.52628 2.6005 2.2491 2.30253C1.90857 1.91555 1.57595 1.5247 1.24334 1.13385C0.942405 0.777828 0.645428 0.425677 0.340533 0.0773959C0.320734 0.0541771 0.300936 0.0270885 0.285097 0H6.32757C7.77682 3.11518 9.23002 6.23037 10.6793 9.33781L11.2455 10.5491C11.2613 10.5839 11.2772 10.6187 11.3009 10.6613L11.6415 11.3346L12.1404 10.1311C13.5223 6.7644 14.9042 3.38994 16.2941 0H22L21.9802 0.0154792C21.5724 0.37537 21.1724 0.75461 20.7844 1.12224C20.622 1.27316 20.4636 1.42408 20.3013 1.57501C20.1192 1.74141 20.0202 1.97746 20.032 2.22513Z" fill="#A1A2B3"/>
</svg>
