<svg width="19" height="14" viewBox="0 0 19 14" fill="none" xmlns="http://www.w3.org/2000/svg">
<path d="M18.5312 6.47969L14.9656 1.13359C14.823 0.919518 14.6297 0.743972 14.4029 0.62254C14.1761 0.501108 13.9229 0.437547 13.6656 0.4375H2.125C1.7106 0.4375 1.31317 0.60212 1.02015 0.895146C0.72712 1.18817 0.5625 1.5856 0.5625 2V12C0.5625 12.4144 0.72712 12.8118 1.02015 13.1049C1.31317 13.3979 1.7106 13.5625 2.125 13.5625H13.6656C13.9229 13.5625 14.1761 13.4989 14.4029 13.3775C14.6297 13.256 14.823 13.0805 14.9656 12.8664L18.5312 7.52031C18.634 7.36625 18.6889 7.1852 18.6889 7C18.6889 6.8148 18.634 6.63375 18.5312 6.47969ZM13.4984 11.6875H2.4375V2.3125H13.4984L16.6234 7L13.4984 11.6875Z" fill="black"/>
</svg>
