<svg width="7" height="8" viewBox="0 0 7 8" fill="none" xmlns="http://www.w3.org/2000/svg">
<path d="M6.60266 1H6.85266C6.85266 0.861929 6.74073 0.75 6.60266 0.75V1ZM3.42588 3.82322C3.32825 3.92085 3.32825 4.07915 3.42588 4.17678C3.52352 4.27441 3.68181 4.27441 3.77944 4.17678L3.42588 3.82322ZM6.35266 2.6875C6.35266 2.82557 6.46459 2.9375 6.60266 2.9375C6.74073 2.9375 6.85266 2.82557 6.85266 2.6875H6.35266ZM4.91516 0.75C4.77709 0.75 4.66516 0.861929 4.66516 1C4.66516 1.13807 4.77709 1.25 4.91516 1.25V0.75ZM1.01217 6.91825L1.12567 6.6955H1.12567L1.01217 6.91825ZM0.684406 6.59049L0.461655 6.70399H0.461655L0.684406 6.59049ZM6.14592 6.59049L5.92316 6.47699L6.14592 6.59049ZM5.81815 6.91825L5.70466 6.6955L5.81815 6.91825ZM1.01217 1.45675L1.12567 1.6795H1.12567L1.01217 1.45675ZM0.684406 1.78451L0.907158 1.898V1.898L0.684406 1.78451ZM6.47766 4.1875C6.47766 4.04943 6.36573 3.9375 6.22766 3.9375C6.08959 3.9375 5.97766 4.04943 5.97766 4.1875H6.47766ZM3.41516 1.625C3.55323 1.625 3.66516 1.51307 3.66516 1.375C3.66516 1.23693 3.55323 1.125 3.41516 1.125V1.625ZM6.42588 0.823223L3.42588 3.82322L3.77944 4.17678L6.77944 1.17678L6.42588 0.823223ZM6.85266 2.6875V1H6.35266V2.6875H6.85266ZM6.60266 0.75H4.91516V1.25H6.60266V0.75ZM5.02766 6.75H1.80266V7.25H5.02766V6.75ZM0.852661 5.8V2.575H0.352661V5.8H0.852661ZM1.80266 6.75C1.58852 6.75 1.44294 6.74981 1.33042 6.74061C1.22082 6.73166 1.16477 6.71543 1.12567 6.6955L0.898671 7.14101C1.02 7.20283 1.14918 7.22747 1.2897 7.23895C1.42731 7.25019 1.59677 7.25 1.80266 7.25V6.75ZM0.352661 5.8C0.352661 6.00589 0.352467 6.17535 0.36371 6.31296C0.375191 6.45348 0.399832 6.58266 0.461655 6.70399L0.907158 6.47699C0.887235 6.4379 0.871004 6.38184 0.862049 6.27224C0.852856 6.15972 0.852661 6.01414 0.852661 5.8H0.352661ZM1.12567 6.6955C1.03158 6.64757 0.955095 6.57108 0.907158 6.47699L0.461655 6.70399C0.557528 6.89215 0.710508 7.04513 0.898671 7.14101L1.12567 6.6955ZM5.97766 5.8C5.97766 6.01414 5.97747 6.15972 5.96827 6.27224C5.95932 6.38184 5.94309 6.4379 5.92316 6.47699L6.36867 6.70399C6.43049 6.58266 6.45513 6.45348 6.46661 6.31296C6.47786 6.17535 6.47766 6.00589 6.47766 5.8H5.97766ZM5.02766 7.25C5.23356 7.25 5.40301 7.25019 5.54062 7.23895C5.68114 7.22747 5.81032 7.20283 5.93165 7.14101L5.70466 6.6955C5.66556 6.71543 5.60951 6.73166 5.4999 6.74061C5.38738 6.74981 5.24181 6.75 5.02766 6.75V7.25ZM5.92316 6.47699C5.87523 6.57108 5.79874 6.64757 5.70466 6.6955L5.93165 7.14101C6.11981 7.04513 6.27279 6.89215 6.36867 6.70399L5.92316 6.47699ZM1.80266 1.125C1.59677 1.125 1.42731 1.12481 1.2897 1.13605C1.14918 1.14753 1.02 1.17217 0.898671 1.23399L1.12567 1.6795C1.16477 1.65957 1.22082 1.64334 1.33042 1.63439C1.44294 1.62519 1.58852 1.625 1.80266 1.625V1.125ZM0.852661 2.575C0.852661 2.36086 0.852856 2.21528 0.862049 2.10276C0.871004 1.99316 0.887235 1.9371 0.907158 1.898L0.461655 1.67101C0.399832 1.79234 0.375191 1.92152 0.36371 2.06204C0.352467 2.19965 0.352661 2.36911 0.352661 2.575H0.852661ZM0.898671 1.23399C0.710509 1.32987 0.557528 1.48285 0.461655 1.67101L0.907158 1.898C0.955095 1.80392 1.03158 1.72743 1.12567 1.6795L0.898671 1.23399ZM5.97766 4.1875V5.8H6.47766V4.1875H5.97766ZM1.80266 1.625H3.41516V1.125H1.80266V1.625Z" fill="white"/>
</svg>
