<svg width="20" height="18" viewBox="0 0 20 18" fill="none" xmlns="http://www.w3.org/2000/svg">
<path d="M20 2.95164C19.551 3.46158 19.0419 3.9166 18.4807 4.30887C18.3885 4.37555 18.3363 4.48146 18.3403 4.59129C18.3564 4.80704 18.3564 4.98356 18.3564 5.14831C18.3283 8.2158 17.1738 11.1695 15.1052 13.476C12.744 16.1081 9.3165 17.5791 5.74063 17.4967C3.78833 17.5006 1.8641 17.0574 0.116256 16.2062C2.14071 16.1473 4.093 15.457 5.68851 14.2409C5.80076 14.1546 5.84486 14.0134 5.80076 13.8801C5.75666 13.7506 5.63239 13.6604 5.49208 13.6565C3.88455 13.6172 2.43736 12.6954 1.75185 11.2754C1.86009 11.2833 1.96833 11.2833 2.09661 11.2833C2.52957 11.2872 2.95851 11.2323 3.37543 11.1264C3.52375 11.0872 3.62397 10.9538 3.61996 10.8008C3.61596 10.6517 3.50371 10.5223 3.35538 10.4909C1.56344 10.13 0.216476 8.69043 0 6.91741C0.537182 7.13315 1.11044 7.25083 1.68771 7.2626C1.83604 7.27044 1.96833 7.1763 2.01243 7.03509C2.05652 6.8978 2.00441 6.74874 1.88415 6.66636C0.71357 5.90537 0.0120265 4.61483 0.0120265 3.23799C0.0120265 2.66529 0.132291 2.09651 0.37282 1.57088C2.73802 4.20295 6.0894 5.79162 9.66526 5.96813C9.76949 5.97206 9.86971 5.92891 9.93786 5.85045C10.006 5.772 10.0301 5.67001 10.006 5.56803C9.93786 5.25814 9.90579 4.94041 9.9098 4.62267C9.91381 2.35148 11.798 0.503923 14.1231 0.5C15.2896 0.503923 16.4041 0.974637 17.2018 1.80623C17.282 1.88861 17.3983 1.92391 17.5105 1.9043C18.2441 1.76308 18.9617 1.53557 19.6392 1.22961C19.2784 1.82977 18.7693 2.33186 18.1559 2.68882C18.0196 2.76727 17.9595 2.9281 18.0116 3.07324C18.0637 3.21838 18.2121 3.3086 18.3684 3.28898C18.9256 3.2223 19.4668 3.10854 20 2.95164Z" fill="#A1A2B3"/>
</svg>
