<svg width="83" height="87" viewBox="0 0 83 87" fill="none" xmlns="http://www.w3.org/2000/svg">
<g clip-path="url(#clip0_3247_4905)">
<path d="M82.2864 41.1303C82.2897 45.3798 81.6339 49.6041 80.3425 53.6526C80.3385 53.6663 80.3337 53.6797 80.3281 53.6928C80.3281 53.7302 80.308 53.7646 80.2965 53.7991L80.2535 53.9312C80.2535 53.9513 80.2391 53.9685 80.2334 53.9886C79.896 54.9141 79.2823 55.7134 78.4754 56.2784C77.6685 56.8434 76.7074 57.1467 75.7223 57.1472C75.0919 57.1472 74.4676 57.023 73.8851 56.7817C73.3026 56.5404 72.7733 56.1868 72.3275 55.741C71.8817 55.2952 71.528 54.7659 71.2868 54.1834C71.0455 53.6009 70.9213 52.9766 70.9213 52.3461C70.9199 51.9926 70.9585 51.6401 71.0362 51.2952C71.1309 51.0081 71.2199 50.7381 71.3061 50.4567C72.2432 47.4366 72.7194 44.2925 72.7188 41.1303C72.7188 32.9392 69.534 25.0689 63.8376 19.1828C58.1412 13.2968 50.3794 9.85599 42.1927 9.5877H42.141H41.917C40.6936 9.51514 39.5443 8.97745 38.7045 8.08483C37.8647 7.19221 37.3981 6.01223 37.4003 4.78667C37.3999 3.57453 37.8584 2.40719 38.6835 1.51923C39.5086 0.631266 40.6392 0.0884983 41.8481 0V0C42.1697 0 42.4913 0.00861323 42.8129 0.0258418C53.4262 0.456565 63.4617 4.97546 70.819 12.6368C78.1764 20.2982 82.2855 30.5083 82.2864 41.1303V41.1303Z" fill="white"/>
<path d="M37.4004 76.4607C37.4008 77.0914 37.2769 77.716 37.0358 78.2989C36.7947 78.8817 36.4411 79.4113 35.9953 79.8574C35.5494 80.3035 35.02 80.6574 34.4374 80.8989C33.8547 81.1403 33.2301 81.2646 32.5994 81.2646C32.2744 81.2643 31.9503 81.2316 31.6317 81.167H31.5772L31.4537 81.1383L31.3992 81.1239C22.4424 78.9376 14.479 73.8074 8.78551 66.5556C3.09206 59.3038 -0.00172512 50.3504 9.52273e-05 41.1306C-0.00692748 35.6924 1.06791 30.3071 3.16203 25.2882C5.25615 20.2693 8.32772 15.7171 12.1979 11.8966V11.8966C12.3932 11.7042 12.5913 11.5118 12.7923 11.3223C13.6502 10.623 14.7234 10.2416 15.8303 10.2427C17.1026 10.2427 18.3229 10.7477 19.2231 11.6468C20.1233 12.546 20.6298 13.7656 20.6313 15.038C20.6332 16.2477 20.1766 17.4133 19.3535 18.2999V18.2999C19.23 18.4176 19.1066 18.5354 18.986 18.656C16.0078 21.5886 13.6436 25.0852 12.0315 28.9415C10.4194 32.7978 9.59158 36.9366 9.59641 41.1163C9.5985 48.1222 11.9298 54.9285 16.2234 60.4645C20.517 66.0005 26.5293 69.9519 33.3144 71.697C33.6015 71.7688 33.8887 71.8377 34.1615 71.9009C35.1098 72.2276 35.9321 72.843 36.513 73.6608C37.0939 74.4786 37.4042 75.4576 37.4004 76.4607Z" fill="white"/>
<path d="M34.1901 7.23056C34.1925 8.42647 33.8364 9.59565 33.1679 10.5873C32.6167 11.4078 31.8722 12.0803 30.9999 12.5455C30.1277 13.0107 29.1544 13.2543 28.1659 13.2548C27.6663 13.2555 27.1685 13.1937 26.6842 13.0711V13.0711C25.3863 12.74 24.2356 11.9863 23.4136 10.9287C22.5916 9.87116 22.145 8.57001 22.1445 7.23056C22.1435 6.17427 22.4208 5.13636 22.9485 4.22131C23.478 3.30544 24.239 2.54498 25.1553 2.01627C26.0716 1.48756 27.1109 1.20922 28.1688 1.20918C28.8042 1.20401 29.4363 1.30096 30.0409 1.49632V1.49632C31.2487 1.8928 32.3002 2.6608 33.0454 3.69062C33.7905 4.72045 34.1912 5.95942 34.1901 7.23056V7.23056Z" fill="white"/>
<path d="M54.6122 25.5264C51.3707 23.4595 47.6054 22.3634 43.761 22.3678C39.8748 22.3628 36.0703 23.4827 32.8065 25.5924V16.2373C30.0385 17.5166 27.6947 19.5617 26.0521 22.1309C24.4096 24.7 23.537 27.6858 23.5376 30.7351V55.2801C23.5383 56.5537 24.0448 57.7748 24.9456 58.6751C25.8464 59.5754 27.0679 60.0811 28.3415 60.0811C29.5553 60.0825 30.7244 59.6227 31.612 58.7947C35.112 61.4286 39.375 62.8499 43.7553 62.8435C49.1222 62.8435 54.2693 60.7117 58.0646 56.9169C61.8598 53.1222 63.9924 47.9754 63.9931 42.6085C63.9957 39.2013 63.1371 35.8488 61.4971 32.8623C59.857 29.8759 57.4887 27.3524 54.6122 25.5264V25.5264ZM43.761 53.7956C41.2575 53.7943 38.8267 52.9542 36.8566 51.4094C34.8866 49.8645 33.4909 47.7042 32.8927 45.2732C32.6812 44.4007 32.5742 43.5062 32.574 42.6085C32.574 39.6385 33.7538 36.7901 35.8539 34.6899C37.9541 32.5898 40.8025 31.4099 43.7725 31.4099C45.8813 31.4104 47.947 32.0062 49.7321 33.1288C51.5171 34.2515 52.9489 35.8553 53.8627 37.7558C54.5884 39.2664 54.9643 40.9211 54.9625 42.597C54.9625 44.0679 54.6727 45.5243 54.1098 46.8832C53.5468 48.242 52.7217 49.4767 51.6815 50.5166C50.6413 51.5565 49.4064 52.3814 48.0474 52.944C46.6884 53.5066 45.2319 53.796 43.761 53.7956V53.7956Z" fill="white"/>
<path d="M60.6764 66.8699L57.4375 68.7707L54.2588 66.8699L57.4375 65.0522L60.6764 66.8699Z" fill="#EAEAE9"/>
<path d="M57.4375 68.771V72.0818L54.2588 70.1435V66.8701L57.4375 68.771Z" fill="#CECECE"/>
<path d="M60.6762 66.8701V70.155L57.4372 72.0818V68.771L60.6762 66.8701Z" fill="white"/>
<path d="M60.6529 77.7864L57.4139 79.6873L54.2352 77.7864L57.4139 75.9717L60.6529 77.7864Z" fill="#EAEAE9"/>
<path d="M57.4139 79.6875V83.0011L54.2352 81.0629V77.7866L57.4139 79.6875Z" fill="#CECECE"/>
<path d="M60.6531 77.7866V81.0629L57.4141 83.0011V79.6875L60.6531 77.7866Z" fill="white"/>
<path d="M48.7479 72.785L45.506 74.6858L42.3302 72.785L45.506 70.9702L48.7479 72.785Z" fill="#EAEAE9"/>
<path d="M45.506 74.6851V77.9987L42.3302 76.0605V72.7842L45.506 74.6851Z" fill="#CECECE"/>
<path d="M48.748 72.7842V76.1064L45.5062 77.9987V74.6851L48.748 72.7842Z" fill="white"/>
<path d="M72.466 70.8846L69.2241 72.7855L66.0454 70.8846L69.2241 69.0698L72.466 70.8846Z" fill="#EAEAE9"/>
<path d="M69.2246 72.7842V76.0949L66.0459 74.1596V70.8833L69.2246 72.7842Z" fill="#CECECE"/>
<path d="M72.4662 70.8833V74.217L69.2244 76.0949V72.7842L72.4662 70.8833Z" fill="white"/>
<path d="M72.4748 61.138L69.2329 63.0389L66.0543 61.138L69.2329 59.3232L72.4748 61.138Z" fill="#EAEAE9"/>
<path d="M69.2329 63.0386V66.3522L66.0543 64.414V61.1377L69.2329 63.0386Z" fill="#CECECE"/>
<path d="M72.4745 61.1377V64.4485L69.2327 66.3522V63.0386L72.4745 61.1377Z" fill="white"/>
<path d="M72.4664 81.5222L69.2246 83.4231L66.0459 81.5222L69.2246 79.7046L72.4664 81.5222Z" fill="#EAEAE9"/>
<path d="M69.2246 83.4248V86.7356L66.0459 84.7974V81.5239L69.2246 83.4248Z" fill="#CECECE"/>
<path d="M72.4662 81.5239V84.849L69.2244 86.7356V83.4248L72.4662 81.5239Z" fill="white"/>
</g>
<defs>
<clipPath id="clip0_3247_4905">
<rect width="82.3986" height="86.7354" fill="white"/>
</clipPath>
</defs>
</svg>
