<svg width="173" height="87" viewBox="0 0 173 87" fill="none" xmlns="http://www.w3.org/2000/svg">
<path d="M98.8014 21.7038C98.8126 21.6101 98.8076 21.5106 98.8371 21.4226C100.216 17.2983 101.598 13.1743 102.981 9.05087C103.004 8.98302 103.035 8.91696 103.056 8.84956C103.396 7.76133 104.171 7.23373 105.268 7.08331C106.288 6.94315 107.304 7.00028 108.318 7.10473C110.232 7.30202 112.126 7.61983 113.988 8.12154C117.981 9.19861 121.537 11.0992 124.602 13.8747C127.842 16.8113 129.839 20.4875 130.793 24.7404C131.392 27.4096 131.53 30.115 131.34 32.8383C130.706 41.944 127.698 50.2423 122.74 57.8563C119.601 62.677 115.766 66.8674 111.168 70.3387C106.74 73.682 101.872 76.1379 96.4766 77.4778C95.0049 77.8434 93.4961 78.0822 91.9932 78.3031C89.1778 78.7165 86.3379 78.8892 83.4962 78.9222C78.3573 78.9816 73.2175 78.9771 68.0781 78.9981C67.1305 79.0017 66.1828 78.9981 65.2351 78.9981H64.8074C64.8244 78.666 83.7165 22.2685 83.9792 21.761H84.476C89.0706 21.761 93.6652 21.7601 98.2595 21.7583C98.4424 21.7583 98.6257 21.7212 98.8081 21.7016C98.736 21.8409 98.6714 21.9839 98.6145 22.1301C95.1062 32.5669 91.6008 43.0041 88.0981 53.4418C86.9505 56.8585 85.8044 60.2748 84.6597 63.6907C84.604 63.8576 84.4813 64.0214 84.5612 64.2263C84.6383 64.2325 84.7092 64.2437 84.7797 64.2428C86.605 64.2191 88.4228 64.0982 90.2232 63.7875C92.7937 63.3438 95.1993 62.4248 97.4889 61.1955C102.002 58.7722 105.744 55.446 108.851 51.3908C111.078 48.4845 112.841 45.3239 113.955 41.8217C114.524 40.0363 114.951 38.2182 115.011 36.3391C115.111 33.182 114.195 30.3248 112.319 27.7935C110.443 25.2622 107.888 23.658 104.919 22.705C103.063 22.1087 101.146 21.8413 99.1992 21.7877C99.0668 21.7868 98.9343 21.7333 98.8014 21.7038Z" fill="white"/>
<path d="M73.4239 21.7777C73.2406 22.3299 73.0756 22.8312 72.9075 23.332C70.2959 31.1165 67.6842 38.9009 65.0723 46.6851C63.6933 50.7947 62.3296 54.9101 60.9288 59.0122C60.056 61.5694 59.0695 64.086 57.7058 66.4276C54.1166 72.5873 48.8024 76.4033 41.8707 77.9722C40.02 78.3909 38.1299 78.5525 36.2372 78.6668C31.8498 78.9346 27.4566 78.9082 23.0638 78.9279C19.2454 78.9454 15.427 78.9688 11.6086 78.998C11.436 78.998 11.2639 79.0011 11.0917 78.998C10.3505 78.9841 10.0009 78.4976 10.2265 77.7812C10.3862 77.275 10.561 76.7729 10.73 76.2694C11.8714 72.8672 13.0115 69.4646 14.1502 66.0615C14.4583 65.1353 15.0149 64.4797 15.9755 64.2292C16.2346 64.1618 16.5147 64.1525 16.7854 64.1516C18.6803 64.1453 20.5761 64.1779 22.4706 64.1413C25.4408 64.0842 28.4114 64.0123 31.3797 63.8896C33.6323 63.7958 35.872 63.5427 38.0621 62.9669C40.1069 62.4313 42.0313 61.6319 43.7259 60.3392C45.3881 59.0716 46.635 57.491 47.3133 55.4958C48.0113 53.4425 48.69 51.3852 49.3799 49.3306C51.5857 42.7576 53.7531 36.1715 56.0128 29.6172C57.4734 25.3808 60.5078 22.853 64.8832 21.9527C65.5392 21.8188 66.2211 21.7777 66.8954 21.7702C68.9625 21.7474 71.03 21.7617 73.0975 21.7626C73.1831 21.7621 73.2683 21.7697 73.4239 21.7777Z" fill="white"/>
<path d="M136.424 78.9984H130.782C130.682 78.9984 130.581 79.0011 130.481 78.9984C129.823 78.9765 129.459 78.4833 129.661 77.8544C129.977 76.8724 130.31 75.8904 130.639 74.9124C135.113 61.5776 139.588 48.2424 144.063 34.907C144.949 32.2672 145.822 29.623 146.727 26.9899C147.702 24.1484 149.69 22.4482 152.631 21.8764C153.077 21.7898 153.545 21.7688 154.002 21.7671C156.428 21.7568 158.854 21.7621 161.281 21.7621C161.338 21.7621 161.395 21.7621 161.453 21.7621C162.448 21.7925 162.996 22.554 162.69 23.5029C162.373 24.4849 162.04 25.4669 161.711 26.4445C159.277 33.6969 156.843 40.9495 154.408 48.2023C151.181 57.8225 147.955 67.4434 144.729 77.0648C144.59 77.4768 144.425 77.8682 144.12 78.1923C143.609 78.7328 142.983 79.0002 142.239 78.9998C140.301 78.998 138.363 78.9975 136.424 78.9984Z" fill="white"/>
<path d="M48.4189 7.03559H61.4693C61.6129 7.03559 61.7574 7.02756 61.8997 7.04095C62.7345 7.12129 63.2559 7.88591 62.9887 8.684C62.6387 9.73205 62.248 10.7663 61.8872 11.8085C61.4595 13.0458 60.9904 14.2635 60.3009 15.383C59.3198 16.972 58.1995 18.4347 56.6613 19.5341C54.6384 20.9772 52.3934 21.7387 49.9018 21.7391C43.4275 21.7391 36.9534 21.7391 30.4794 21.7391C30.4076 21.7391 30.3362 21.7391 30.2644 21.7391C29.5803 21.7266 29.2387 21.2776 29.4434 20.6174C29.6855 19.8363 29.9563 19.0641 30.2167 18.2888C31.3304 14.969 32.4454 11.6496 33.5615 8.33048C33.598 8.22202 33.6315 8.11177 33.6752 8.00553C33.9245 7.40072 34.3838 7.08603 35.03 7.03782C35.1585 7.02845 35.2883 7.03782 35.4172 7.03782L48.4189 7.03559Z" fill="#CC3533"/>
<path d="M148.052 7.03535H153.91C154.024 7.03535 154.14 7.03089 154.254 7.03535C155.117 7.08713 155.666 7.84282 155.409 8.6668C155.181 9.39213 154.913 10.105 154.653 10.82C154.315 11.7507 154.002 12.6948 153.615 13.6031C152.863 15.3792 151.815 16.974 150.453 18.3412C148.576 20.2266 146.306 21.3318 143.659 21.6536C143.318 21.6998 142.975 21.7261 142.63 21.7322C140.778 21.7402 138.926 21.7402 137.074 21.7322C136.918 21.7369 136.762 21.7097 136.616 21.6523C136.236 21.4813 136.088 21.0836 136.236 20.6328C136.589 19.5557 136.95 18.4814 137.312 17.4065C138.335 14.3588 139.358 11.3109 140.38 8.26284C140.684 7.35941 141.139 7.03267 142.109 7.03223C144.09 7.03371 146.071 7.03476 148.052 7.03535Z" fill="#CC3533"/>
</svg>
