<svg width="248" height="87" viewBox="0 0 248 87" fill="none" xmlns="http://www.w3.org/2000/svg">
<path d="M7 41.7681C7.18743 40.8309 7.34675 39.8843 7.5623 38.9566C10.4938 25.7725 25.4697 18.8018 37.4785 25.0227C47.1464 30.0291 51.3486 41.247 47.3582 51.3609C42.4512 63.7746 26.9729 68.4173 16.0343 60.7457C10.9286 57.1676 8.01589 52.2681 7.16869 46.1259C7.12673 45.9148 7.07037 45.7069 7 45.5036V41.7681ZM27.8595 27.3357C18.7896 27.465 11.504 34.8443 11.6184 43.7886C11.7308 52.8116 19.1832 59.9884 28.3093 59.8647C37.143 59.7466 44.408 52.2193 44.2618 43.3369C44.1174 34.4956 36.6482 27.2101 27.8595 27.3338V27.3357Z" fill="white"/>
<path d="M88.8444 64.7197C88.3046 64.3111 87.7198 63.9568 87.2362 63.4845C82.148 58.4463 77.0705 53.3968 72.0035 48.3361C71.7167 48.0493 71.4562 47.7401 71.1038 47.3558C70.7683 47.6576 70.4891 47.8844 70.236 48.1374C65.319 53.0407 60.4045 57.9452 55.4925 62.851C55.3163 63.0272 55.1439 63.2089 54.9602 63.3757C53.8356 64.4029 52.4242 64.4367 51.4477 63.4658C50.4712 62.4949 50.4637 61.0797 51.5377 59.9757C53.1889 58.2888 54.8702 56.615 56.5459 54.9431C60.0271 51.4681 63.5103 47.9944 66.9953 44.5218C67.1677 44.3494 67.3289 44.1638 67.6607 43.8058C66.1781 42.3888 64.6974 41.0206 63.2654 39.6036C59.368 35.755 55.4819 31.8938 51.607 28.0202C50.8573 27.2705 50.5255 26.4251 50.8573 25.3961C51.1534 24.4871 51.8188 23.9604 52.7504 23.7917C53.7381 23.6043 54.486 24.0597 55.1589 24.7289C58.5327 28.1289 61.9383 31.5083 65.3103 34.9159C67.1677 36.7902 68.9821 38.7114 71.0139 40.8182C71.8311 39.9054 72.4384 39.1575 73.115 38.4809C77.8908 33.7013 82.6747 28.9299 87.4668 24.1666C88.6364 23.0007 90.0908 22.8827 91.1161 23.8686C92.1414 24.8545 92.0645 26.3745 90.9193 27.5216C85.5675 32.8722 80.2094 38.2153 74.845 43.551C74.7007 43.665 74.5456 43.7648 74.382 43.8489C74.7569 44.2463 75.0231 44.5387 75.3023 44.818C80.5355 50.0224 85.7686 55.2268 91.0018 60.4312C92.3607 61.7807 92.0308 63.4639 90.1527 64.7197H88.8444Z" fill="white"/>
<path d="M230.621 64.7213C228.934 64.4233 227.236 64.2003 225.575 63.8123C222.529 63.1 219.804 61.6662 217.264 59.8762C215.964 58.9577 215.713 57.7807 216.515 56.6898C217.296 55.6439 218.764 55.4659 219.937 56.3562C221.821 57.7788 223.856 58.9221 226.123 59.595C229.837 60.7065 233.609 61.0458 237.335 59.6887C240.561 58.5154 242.172 55.8651 241.852 52.5663C241.665 50.5495 240.491 49.2206 238.787 48.2778C236.328 46.9133 233.62 46.3079 230.915 45.7044C228.021 45.0596 225.189 44.2517 222.49 42.9791C215.197 39.5397 215.236 29.5907 221.553 25.3959C225.06 23.0699 228.93 22.5001 232.998 22.8018C236.623 23.0516 240.127 24.212 243.185 26.1756C244.497 27.0135 244.9 28.11 244.257 29.2046C243.614 30.2992 242.137 30.6872 240.9 29.9243C238.754 28.6123 236.499 27.5477 233.999 27.1728C231.299 26.7679 228.582 26.6105 225.973 27.6713C222.466 29.094 220.865 32.3778 221.99 35.731C222.552 37.4179 223.832 38.4282 225.348 39.1798C228.085 40.5368 231.075 41.0635 234.019 41.7307C237.007 42.4092 239.931 43.2508 242.519 44.9846C247.955 48.632 247.378 55.5708 244.926 59.0664C242.754 62.1628 239.622 63.6661 236.002 64.339C235.211 64.4852 234.413 64.5901 233.618 64.7138L230.621 64.7213Z" fill="white"/>
<path d="M190.915 64.7202C189.723 64.499 188.514 64.3453 187.344 64.0454C181.026 62.4223 177.315 58.3006 175.978 52.0197C175.668 50.5289 175.507 49.0105 175.501 47.4876C175.452 40.3051 175.476 33.1227 175.48 25.9327C175.48 24.6619 176.027 23.811 177.054 23.4493C177.977 23.125 179.116 23.3686 179.637 24.2177C179.956 24.8083 180.115 25.4718 180.098 26.1426C180.13 32.7347 180.115 39.3267 180.123 45.9188C180.123 46.7585 180.085 47.6056 180.224 48.4322C180.486 49.9879 180.707 51.5774 181.225 53.0581C182.404 56.4319 184.786 58.7148 188.224 59.7888C191.224 60.7335 194.437 60.7635 197.455 59.875C202.082 58.548 205.034 54.6832 205.505 49.4931C205.604 48.3816 205.653 47.2608 205.655 46.1418C205.67 39.3942 205.67 32.6466 205.655 25.899C205.655 24.8737 206.018 24.064 206.92 23.5711C207.69 23.1475 208.496 23.2225 209.237 23.6798C210.174 24.2552 210.361 25.1624 210.361 26.1839C210.35 32.7441 210.376 39.3042 210.341 45.8644C210.331 47.4796 210.222 49.0927 210.015 50.6946C208.999 58.4599 203.467 63.7549 195.644 64.5272C195.372 64.5733 195.103 64.6359 194.838 64.7146L190.915 64.7202Z" fill="white"/>
<path d="M116.649 64.4947C111.376 64.4947 106.102 64.5134 100.83 64.4947C97.0471 64.4778 94.215 62.0842 93.6302 58.4686C93.3603 56.7949 93.8045 55.2654 94.6405 53.8278C99.2951 45.8194 103.95 37.8104 108.606 29.8007C109.292 28.618 109.933 27.4109 110.638 26.2395C113.461 21.5536 119.983 21.5668 122.741 26.2863C126.989 33.5613 131.223 40.8468 135.441 48.143C136.532 50.0173 137.621 51.9085 138.693 53.8016C141.57 58.8623 138.331 64.4553 132.468 64.4853C127.196 64.5228 121.921 64.4965 116.649 64.4947ZM116.649 59.865C121.89 59.865 127.13 59.865 132.369 59.865C134.815 59.865 135.836 58.09 134.618 55.9776C129.378 46.9446 124.135 37.9128 118.891 28.8823C117.674 26.7887 115.704 26.7831 114.463 28.8823C113.025 31.3177 111.601 33.7599 110.19 36.209C106.395 42.7667 102.597 49.3281 98.7959 55.8933C98.2598 56.8174 97.9937 57.7039 98.5579 58.6936C99.122 59.6832 100.057 59.8781 101.114 59.8744C106.293 59.8519 111.476 59.8631 116.655 59.865H116.649Z" fill="white"/>
<path d="M150.238 59.4951H151.393C157.758 59.4951 164.123 59.4951 170.489 59.4951C172.176 59.4951 173.171 60.3011 173.206 61.6675C173.243 62.2344 173.056 62.7931 172.686 63.2239C172.315 63.6548 171.791 63.9237 171.225 63.9729C170.883 64.0036 170.54 64.0136 170.196 64.0029H148.012C145.896 64.0029 145.037 63.1707 145.037 61.0902C145.037 49.3693 145.037 37.6492 145.037 25.9296C145.037 23.8528 146.199 22.7938 148.126 23.0824C149.215 23.2436 149.925 23.9128 150.103 25.0168C150.168 25.5088 150.193 26.0051 150.18 26.5012C150.18 37.1962 150.18 47.8905 150.18 58.5842C150.182 58.8579 150.214 59.1353 150.238 59.4951Z" fill="white"/>
</svg>
