<svg width="88" height="93" viewBox="0 0 88 93" fill="none" xmlns="http://www.w3.org/2000/svg">
<path d="M87.3368 43.6523C87.3402 48.1624 86.6442 52.6457 85.2736 56.9424C85.2694 56.9569 85.2643 56.9712 85.2584 56.9851C85.2584 57.0247 85.237 57.0613 85.2249 57.0978L85.1791 57.238C85.1791 57.2594 85.1639 57.2777 85.1578 57.299C84.7998 58.2812 84.1484 59.1296 83.292 59.7292C82.4356 60.3288 81.4156 60.6507 80.3702 60.6512C79.7011 60.6512 79.0385 60.5194 78.4203 60.2634C77.8021 60.0073 77.2403 59.632 76.7672 59.1588C76.294 58.6857 75.9187 58.124 75.6626 57.5057C75.4066 56.8875 75.2748 56.225 75.2748 55.5558C75.2733 55.1806 75.3142 54.8065 75.3967 54.4404C75.4973 54.1357 75.5917 53.8492 75.6831 53.5506C76.6777 50.3453 77.1832 47.0083 77.1825 43.6523C77.1824 34.9589 73.8024 26.6061 67.7567 20.3591C61.711 14.1121 53.4734 10.4603 44.7846 10.1756H44.7298H44.4921C43.1936 10.0986 41.9738 9.52792 41.0825 8.58056C40.1913 7.63321 39.6961 6.38087 39.6983 5.08017C39.698 3.79371 40.1845 2.55479 41.0602 1.61238C41.9359 0.669972 43.1359 0.0939247 44.4189 0C44.7602 0 45.1016 0.00914137 45.4429 0.0274263C56.7069 0.48456 67.3577 5.28054 75.1662 13.4117C82.9747 21.5428 87.3358 32.379 87.3368 43.6523Z" fill="white"/>
<path d="M39.6983 81.1494C39.6987 81.8188 39.5672 82.4817 39.3114 83.1002C39.0555 83.7188 38.6802 84.2809 38.207 84.7543C37.7338 85.2278 37.172 85.6034 36.5536 85.8597C35.9352 86.1159 35.2723 86.2478 34.6029 86.2478C34.258 86.2476 33.914 86.2128 33.5759 86.1442H33.518L33.387 86.1137L33.3291 86.0985C23.8231 83.7782 15.3714 78.3334 9.32884 70.6369C3.28628 62.9405 0.00280404 53.4381 0.004736 43.653C-0.00271732 37.8813 1.13803 32.1658 3.36055 26.8391C5.58307 21.5125 8.84298 16.6812 12.9505 12.6265C13.1577 12.4223 13.368 12.2181 13.5813 12.017C14.4919 11.2748 15.6309 10.87 16.8056 10.8711C18.1559 10.8711 19.451 11.4071 20.4064 12.3614C21.3618 13.3156 21.8994 14.6101 21.901 15.9604C21.9029 17.2444 21.4184 18.4814 20.5448 19.4224C20.4138 19.5473 20.2828 19.6723 20.1548 19.8003C16.994 22.9127 14.4849 26.6237 12.7739 30.7164C11.0629 34.8092 10.1843 39.2018 10.1895 43.6378C10.1917 51.0732 12.6659 58.2969 17.2228 64.1724C21.7797 70.0478 28.1607 74.2415 35.3618 76.0936C35.6665 76.1698 35.9713 76.2429 36.2608 76.3099C37.2673 76.6567 38.14 77.3099 38.7565 78.1778C39.373 79.0457 39.7023 80.0848 39.6983 81.1494Z" fill="white"/>
<path d="M36.2913 7.674C36.2937 8.94324 35.9158 10.1841 35.2064 11.2365C34.6213 12.1074 33.8312 12.8211 32.9054 13.3148C31.9797 13.8085 30.9468 14.067 29.8976 14.0676C29.3674 14.0683 28.8391 14.0028 28.3251 13.8726C26.9476 13.5213 25.7263 12.7213 24.8539 11.5989C23.9815 10.4765 23.5076 9.09558 23.507 7.674C23.506 6.55294 23.8003 5.45139 24.3603 4.48023C24.9222 3.50821 25.73 2.70112 26.7025 2.13999C27.6749 1.57886 28.7779 1.28345 29.9007 1.28341C30.575 1.27792 31.2459 1.38082 31.8876 1.58816C33.1694 2.00895 34.2854 2.82404 35.0763 3.91701C35.8672 5.00998 36.2924 6.32492 36.2913 7.674Z" fill="white"/>
<path d="M57.965 27.092C54.5248 24.8984 50.5286 23.7352 46.4485 23.7398C42.3241 23.7345 38.2862 24.9231 34.8224 27.1621V17.2334C31.8846 18.5911 29.397 20.7617 27.6538 23.4883C25.9105 26.215 24.9844 29.3839 24.985 32.6202V58.6702C24.9859 60.0218 25.5234 61.3179 26.4794 62.2734C27.4355 63.2288 28.7318 63.7656 30.0835 63.7656C31.3718 63.7671 32.6125 63.2791 33.5546 62.4003C37.2692 65.1956 41.7936 66.7041 46.4425 66.6973C52.1384 66.6973 57.6012 64.4348 61.6291 60.4074C65.6571 56.38 67.9204 50.9176 67.9212 45.2216C67.924 41.6055 67.0127 38.0474 65.2721 34.8778C63.5315 31.7082 61.0179 29.03 57.965 27.092ZM46.4485 57.0946C43.7915 57.0933 41.2116 56.2016 39.1208 54.5621C37.0299 52.9225 35.5487 50.6297 34.9138 48.0497C34.6893 47.1237 34.5757 46.1744 34.5755 45.2216C34.5755 42.0694 35.8277 39.0464 38.0566 36.8175C40.2855 34.5885 43.3086 33.3364 46.4607 33.3364C48.6988 33.3368 50.8912 33.9692 52.7857 35.1607C54.6802 36.3521 56.1998 38.0543 57.1696 40.0713C57.9398 41.6746 58.3387 43.4308 58.3368 45.2094C58.3368 46.7704 58.0293 48.3162 57.4318 49.7584C56.8343 51.2006 55.9586 52.5109 54.8546 53.6146C53.7507 54.7183 52.4401 55.5937 50.9978 56.1908C49.5554 56.7879 48.0096 57.095 46.4485 57.0946Z" fill="white"/>
<path d="M64.4013 70.9701L60.9637 72.9875L57.5901 70.9701L60.9637 69.041L64.4013 70.9701Z" fill="#EAEAE9"/>
<path d="M60.9637 72.9872V76.5009L57.5901 74.4439V70.9697L60.9637 72.9872Z" fill="#CECECE"/>
<path d="M64.4014 70.9697V74.4561L60.9638 76.5009V72.9872L64.4014 70.9697Z" fill="white"/>
<path d="M64.3769 82.5559L60.9393 84.5733L57.5658 82.5559L60.9393 80.6299L64.3769 82.5559Z" fill="#EAEAE9"/>
<path d="M60.9393 84.5741V88.0909L57.5657 86.0338V82.5566L60.9393 84.5741Z" fill="#CECECE"/>
<path d="M64.3769 82.5566V86.0338L60.9394 88.0909V84.5741L64.3769 82.5566Z" fill="white"/>
<path d="M51.742 77.2483L48.3014 79.2657L44.9308 77.2483L48.3014 75.3223L51.742 77.2483Z" fill="#EAEAE9"/>
<path d="M48.3015 79.2645V82.7813L44.931 80.7243V77.2471L48.3015 79.2645Z" fill="#CECECE"/>
<path d="M51.7421 77.2471V80.773L48.3015 82.7813V79.2645L51.7421 77.2471Z" fill="white"/>
<path d="M76.9143 75.2307L73.4737 77.2481L70.1001 75.2307L73.4737 73.3047L76.9143 75.2307Z" fill="#EAEAE9"/>
<path d="M73.4737 77.2469V80.7607L70.1002 78.7067V75.2295L73.4737 77.2469Z" fill="#CECECE"/>
<path d="M76.9143 75.2295V78.7676L73.4737 80.7607V77.2469L76.9143 75.2295Z" fill="white"/>
<path d="M76.9235 64.887L73.4829 66.9044L70.1093 64.887L73.4829 62.9609L76.9235 64.887Z" fill="#EAEAE9"/>
<path d="M73.483 66.9042V70.421L70.1094 68.3639V64.8867L73.483 66.9042Z" fill="#CECECE"/>
<path d="M76.9235 64.8867V68.4005L73.4828 70.421V66.9042L76.9235 64.8867Z" fill="white"/>
<path d="M76.9144 86.5218L73.4737 88.5393L70.1002 86.5218L73.4737 84.5928L76.9144 86.5218Z" fill="#EAEAE9"/>
<path d="M73.4737 88.5399V92.0537L70.1002 89.9966V86.5225L73.4737 88.5399Z" fill="#CECECE"/>
<path d="M76.9143 86.5225V90.0515L73.4737 92.0537V88.5399L76.9143 86.5225Z" fill="white"/>
</svg>
