<svg width="286" height="66" viewBox="0 0 286 66" fill="none" xmlns="http://www.w3.org/2000/svg">
<path d="M34.2963 23.4673C34.2963 21.0188 34.2697 18.6663 34.3127 16.3121C34.3247 15.6305 34.0971 15.2782 33.5027 14.9404C29.5086 12.6702 25.5393 10.3589 21.5718 8.04325C21.181 7.81606 20.8847 7.78605 20.4792 8.02181C16.4565 10.3692 12.4254 12.7011 8.38608 15.0175C7.8836 15.3056 7.69892 15.6271 7.69892 16.2092C7.72297 20.8387 7.72297 25.4665 7.69892 30.0926C7.69892 30.5804 7.86212 30.8531 8.27613 31.0905C12.3499 33.431 16.4173 35.7835 20.4784 38.148C20.8787 38.3812 21.1733 38.364 21.5693 38.1343C31.6345 32.3045 41.7057 26.485 51.7829 20.6758C53.8444 19.4876 55.9685 19.4756 58.042 20.6604C62.7431 23.349 67.4123 26.0932 72.1288 28.7586C74.4987 30.0986 75.5964 32.0816 75.593 34.7522C75.5844 39.9895 75.5758 45.2269 75.593 50.4651C75.6033 53.2145 74.4832 55.2318 72.0412 56.6009C67.4098 59.1986 62.8161 61.8623 58.2259 64.532C55.9926 65.8274 53.8452 65.8471 51.6008 64.532C46.8894 61.7783 42.1351 59.0974 37.41 56.3652C35.3486 55.1744 34.2585 53.3928 34.2766 50.9803C34.2869 49.6343 34.2637 48.2875 34.292 46.9415C34.2972 46.7075 34.4149 46.3654 34.5927 46.2599C36.8534 44.9182 39.1348 43.61 41.5158 42.2305C41.5321 42.5417 41.5528 42.7587 41.5536 42.9747C41.5536 45.184 41.5656 47.3925 41.5467 49.6009C41.5467 50.0964 41.6919 50.4085 42.1403 50.6649C46.2346 53.011 50.3209 55.3727 54.3992 57.7497C54.7626 57.9615 55.022 57.9495 55.3767 57.7429C59.4567 55.3698 63.5439 53.009 67.6383 50.6606C68.0591 50.4197 68.2138 50.123 68.212 49.6472C68.1989 44.9777 68.1989 40.3079 68.212 35.6378C68.212 35.1842 68.0617 34.9048 67.6649 34.6759C63.5917 32.3325 59.526 29.9792 55.4678 27.6158C55.0615 27.3792 54.7445 27.3586 54.3168 27.6073C44.381 33.3656 34.4412 39.1173 24.4974 44.8625C22.1224 46.2402 19.8325 46.2642 17.454 44.8625C12.8389 42.1517 8.18594 39.506 3.54932 36.832C1.42771 35.6078 0.371209 33.7525 0.366055 31.328C0.348876 25.9852 0.386675 20.6424 0.34974 15.2962C0.329985 12.5082 1.46637 10.4952 3.9264 9.11661C8.52351 6.54465 13.0926 3.92269 17.6336 1.25071C19.9063 -0.0798492 22.0898 -0.121006 24.372 1.21298C29.0859 3.96155 33.8402 6.64324 38.561 9.38066C40.6225 10.5749 41.6842 12.3813 41.6653 14.7869C41.6558 16.1115 41.685 17.4377 41.6464 18.7614C41.6387 19.0186 41.4694 19.3899 41.2599 19.5142C39.0644 20.8079 36.8448 22.063 34.6305 23.3275C34.5218 23.3803 34.4103 23.427 34.2963 23.4673Z" fill="#7B3FE4"/>
<path d="M199.172 51.524H199.965C203.68 51.524 207.396 51.4709 211.109 51.5412C214.013 51.596 215.338 49.4176 215.341 47.3789C215.341 46.2438 215.341 45.1087 215.341 43.9736C215.284 43.9676 215.229 43.9479 215.215 43.9633C213.486 45.9686 211.191 46.7522 208.641 46.8576C204.556 47.0291 200.959 45.8974 198.286 42.6242C196.654 40.6275 195.846 38.275 195.527 35.7485C195.102 32.3921 195.342 29.1026 196.804 26.0016C198.694 22.0022 201.929 19.8418 206.304 19.4492C207.692 19.324 209.132 19.4191 210.513 19.6446C212.395 19.9515 213.295 20.5559 215.287 22.2954V19.7964H222.722V20.5482C222.722 29.6144 222.669 38.6805 222.742 47.7467C222.785 53.2181 219.241 57.0057 213.582 57.2406C208.84 57.4344 204.086 57.2878 199.337 57.2904C199.281 57.2821 199.227 57.2686 199.174 57.2501L199.172 51.524ZM202.53 33.0917C202.702 34.0596 202.795 35.0498 203.065 35.9903C203.844 38.7037 206.076 40.4269 208.799 40.5126C211.927 40.6104 214.204 39.1846 215.205 36.3906C216.037 34.0673 216.011 31.7079 215.049 29.4283C213.277 25.2318 207.523 24.269 204.484 27.6425C203.097 29.1806 202.653 31.0607 202.53 33.0934V33.0917Z" fill="white"/>
<path d="M101.879 44.1056V57.2457H94.5535V19.7757H101.875V22.4789C101.983 22.466 102.039 22.4789 102.058 22.4549C104.34 19.8829 107.308 19.161 110.59 19.3685C116.732 19.7655 120.61 23.9312 121.606 29.7892C122.164 33.0625 122 36.2971 120.707 39.3912C118.484 44.7109 113.65 47.0874 108.371 46.8644C105.938 46.7659 103.726 46.074 101.879 44.1056ZM114.592 32.9493C114.569 32.6295 114.565 32.1211 114.489 31.6239C114.41 31.105 114.291 30.5931 114.132 30.0927C113.273 27.4076 111.112 25.7573 108.322 25.6347C105.558 25.5129 103.176 26.9592 102.15 29.4875C101.184 31.8657 101.159 34.2996 102.136 36.6778C103.862 40.8735 109.604 41.9074 112.701 38.6016C114.135 37.0704 114.569 35.1638 114.596 32.9493H114.592Z" fill="white"/>
<path d="M241.54 46.9177C236.322 46.7659 232.132 44.9853 229.343 40.6361C225.671 34.9118 226.568 25.6039 233.662 21.355C239.749 17.7106 248.367 19.0248 252.553 24.4114C255.892 28.7074 256.389 33.5512 254.443 38.5331C252.57 43.3341 248.791 45.9129 243.745 46.7068C242.953 46.8311 242.152 46.8611 241.54 46.9177ZM248.178 33.0591C247.993 32.0929 247.91 31.095 247.606 30.1682C246.816 27.7678 245.187 26.186 242.638 25.7591C239.97 25.3115 237.629 26.0265 236.089 28.3233C234.213 31.1207 234.14 34.1702 235.629 37.1383C237.691 41.2371 243.639 41.7549 246.494 38.1585C247.672 36.6744 248.064 34.9315 248.178 33.0591Z" fill="white"/>
<path d="M138.13 46.8951C133.601 46.7639 129.391 44.9678 126.62 40.5783C122.768 34.4837 124.043 24.5714 132.148 20.7323C137.793 18.06 144.981 19.2217 149.13 23.5486C151.707 26.2363 152.824 29.5129 152.801 33.196C152.753 41.1733 146.822 46.9157 138.13 46.8951ZM145.517 33.3692C145.315 32.2804 145.219 31.159 144.891 30.1113C144.051 27.4245 141.826 25.7853 139.005 25.6396C136.248 25.4981 133.823 26.9384 132.728 29.4649C131.691 31.856 131.671 34.3045 132.704 36.6947C134.434 40.6984 139.805 41.8506 143.068 38.94C144.717 37.4697 145.295 35.5262 145.519 33.3692H145.517Z" fill="white"/>
<path d="M267.003 46.4394H259.608V19.8016H266.995V23.2995C267.463 22.7559 267.818 22.2656 268.25 21.8558C270.398 19.8213 273.037 19.1475 275.895 19.3695C281.366 19.7905 285.019 23.633 285.103 29.1164C285.189 34.7747 285.129 40.433 285.132 46.0853C285.132 46.1856 285.116 46.2868 285.104 46.4231H277.697V45.6515C277.697 41.0674 277.715 36.4833 277.681 31.8993C277.675 31.0282 277.583 30.1212 277.323 29.2964C276.649 27.1651 274.759 25.8843 272.513 25.8963C270.153 25.9092 268.132 27.2954 267.415 29.5253C267.155 30.367 267.023 31.2425 267.021 32.123C266.984 36.6437 267.004 41.1643 267.004 45.6858L267.003 46.4394Z" fill="white"/>
<path d="M180.897 57.2685H173.966C174.04 57.0327 174.097 56.8252 174.169 56.6229C175.33 53.3582 176.504 50.0978 177.641 46.8237C177.76 46.4591 177.76 46.0661 177.641 45.7015C174.586 37.3135 171.518 28.9306 168.435 20.5529C168.349 20.3214 168.273 20.0874 168.159 19.7582H168.872C170.941 19.7582 173.009 19.7753 175.077 19.7453C175.572 19.7385 175.764 19.9125 175.911 20.3643C177.601 25.5991 179.304 30.8299 181.022 36.0567C181.108 36.3139 181.204 36.5668 181.34 36.9448C181.931 35.1299 182.484 33.4358 183.034 31.7409C184.264 27.9447 185.501 24.1511 186.709 20.348C186.857 19.8833 187.07 19.741 187.55 19.7479C189.827 19.7736 192.103 19.7599 194.478 19.7599L180.897 57.2685Z" fill="white"/>
<path d="M164.632 46.4595H157.363V8.18359H164.632V46.4595Z" fill="white"/>
</svg>
