<svg width="14" height="14" viewBox="0 0 14 14" fill="none" xmlns="http://www.w3.org/2000/svg">
<path d="M11.5 9.66659V10.1666H12H12.8333V13.1666H9.83333V12.3333V11.8333H9.33333H4H3.5V12.3333V13.1666H0.5V10.1666H1.33333H1.83333V9.66659V4.33325V3.83325H1.33333H0.5V0.833252H3.5V1.66659V2.16659H4H9.33333H9.83333V1.66659V0.833252H12.8333V3.83325H12H11.5V4.33325V9.66659ZM10.6667 10.1666H11.1667V9.66659V4.33325V3.83325H10.6667H9.83333V2.99992V2.49992H9.33333H4H3.5V2.99992V3.83325H2.66667H2.16667V4.33325V9.66659V10.1666H2.66667H3.5V10.9999V11.4999H4H9.33333H9.83333V10.9999V10.1666H10.6667ZM1.33333 1.16659H0.833333V1.66659V2.99992V3.49992H1.33333H2.66667H3.16667V2.99992V1.66659V1.16659H2.66667H1.33333ZM1.33333 10.4999H0.833333V10.9999V12.3333V12.8333H1.33333H2.66667H3.16667V12.3333V10.9999V10.4999H2.66667H1.33333ZM10.6667 1.16659H10.1667V1.66659V2.99992V3.49992H10.6667H12H12.5V2.99992V1.66659V1.16659H12H10.6667ZM10.6667 10.4999H10.1667V10.9999V12.3333V12.8333H10.6667H12H12.5V12.3333V10.9999V10.4999H12H10.6667Z" fill="white" stroke="#131740"/>
</svg>
