<svg width="14" height="14" viewBox="0 0 14 14" fill="none" xmlns="http://www.w3.org/2000/svg">
<path d="M12 9.66659H13.3333V13.6666H9.33333V12.3333H4V13.6666H0V9.66659H1.33333V4.33325H0V0.333252H4V1.66659H9.33333V0.333252H13.3333V4.33325H12V9.66659ZM10.6667 9.66659V4.33325H9.33333V2.99992H4V4.33325H2.66667V9.66659H4V10.9999H9.33333V9.66659H10.6667ZM1.33333 1.66659V2.99992H2.66667V1.66659H1.33333ZM1.33333 10.9999V12.3333H2.66667V10.9999H1.33333ZM10.6667 1.66659V2.99992H12V1.66659H10.6667ZM10.6667 10.9999V12.3333H12V10.9999H10.6667Z" fill="white"/>
</svg>
