<svg width="16" height="15" viewBox="0 0 16 15" fill="none" xmlns="http://www.w3.org/2000/svg">
<path d="M4.4165 3.5H4.9165V3V0.75C4.9165 0.683696 4.94284 0.620108 4.98973 0.573223C5.03661 0.526339 5.1002 0.5 5.1665 0.5H11.1665C11.2328 0.5 11.2964 0.52634 11.3433 0.573223C11.3902 0.620107 11.4165 0.683695 11.4165 0.75V3V3.5H11.9165H14.9165C14.9828 3.5 15.0464 3.52634 15.0933 3.57322C15.1402 3.62011 15.1665 3.6837 15.1665 3.75V14.25C15.1665 14.3163 15.1402 14.3799 15.0933 14.4268C15.0464 14.4737 14.9828 14.5 14.9165 14.5H1.4165C1.3502 14.5 1.28661 14.4737 1.23973 14.4268C1.19284 14.3799 1.1665 14.3163 1.1665 14.25V3.75C1.1665 3.6837 1.19284 3.62011 1.23973 3.57322C1.28661 3.52634 1.3502 3.5 1.4165 3.5H4.4165ZM6.4165 9V8.5H5.9165H2.1665H1.6665V9V13.5V14H2.1665H14.1665H14.6665V13.5V9V8.5H14.1665H10.4165H9.9165V9V10.75H6.4165V9ZM14.6665 4.5V4H14.1665H2.1665H1.6665V4.5V7.5V8H2.1665H5.9165H6.4165V7.5V6.5H9.9165V7.5V8H10.4165H14.1665H14.6665V7.5V4.5ZM7.4165 7H6.9165V7.5V9.75V10.25H7.4165H8.9165H9.4165V9.75V7.5V7H8.9165H7.4165ZM5.9165 1H5.4165V1.5V3V3.5H5.9165H10.4165H10.9165V3V1.5V1H10.4165H5.9165Z" fill="white" stroke="#131740"/>
</svg>
