<svg width="16" height="15" viewBox="0 0 16 15" fill="none" xmlns="http://www.w3.org/2000/svg">
<path d="M4.4165 3V0.75C4.4165 0.551088 4.49552 0.360322 4.63617 0.21967C4.77683 0.0790176 4.96759 0 5.1665 0H11.1665C11.3654 0 11.5562 0.0790176 11.6968 0.21967C11.8375 0.360322 11.9165 0.551088 11.9165 0.75V3H14.9165C15.1154 3 15.3062 3.07902 15.4468 3.21967C15.5875 3.36032 15.6665 3.55109 15.6665 3.75V14.25C15.6665 14.4489 15.5875 14.6397 15.4468 14.7803C15.3062 14.921 15.1154 15 14.9165 15H1.4165C1.21759 15 1.02683 14.921 0.886174 14.7803C0.745522 14.6397 0.666504 14.4489 0.666504 14.25V3.75C0.666504 3.55109 0.745522 3.36032 0.886174 3.21967C1.02683 3.07902 1.21759 3 1.4165 3H4.4165ZM5.9165 9H2.1665V13.5H14.1665V9H10.4165V11.25H5.9165V9ZM14.1665 4.5H2.1665V7.5H5.9165V6H10.4165V7.5H14.1665V4.5ZM7.4165 7.5V9.75H8.9165V7.5H7.4165ZM5.9165 1.5V3H10.4165V1.5H5.9165Z" fill="white"/>
</svg>
