<svg width="13" height="14" viewBox="0 0 13 14" fill="none" xmlns="http://www.w3.org/2000/svg">
<path d="M9.99984 9.66659H11.3332V1.66659H4.6665V2.99992H9.99984V9.66659ZM9.99984 10.9999V12.9999C9.99984 13.3679 9.69984 13.6666 9.3285 13.6666H1.33784C1.24992 13.6671 1.16277 13.6503 1.08139 13.617C1 13.5837 0.925993 13.5347 0.86361 13.4728C0.801226 13.4108 0.751699 13.3372 0.717873 13.256C0.684048 13.1749 0.66659 13.0878 0.666504 12.9999L0.668504 3.66659C0.668504 3.29859 0.968504 2.99992 1.33984 2.99992H3.33317V0.999919C3.33317 0.823108 3.40341 0.653538 3.52843 0.528514C3.65346 0.40349 3.82303 0.333252 3.99984 0.333252H11.9998C12.1766 0.333252 12.3462 0.40349 12.4712 0.528514C12.5963 0.653538 12.6665 0.823108 12.6665 0.999919V10.3333C12.6665 10.5101 12.5963 10.6796 12.4712 10.8047C12.3462 10.9297 12.1766 10.9999 11.9998 10.9999H9.99984ZM2.00184 4.33325L1.99984 12.3333H8.6665V4.33325H2.00184ZM3.33317 9.66659H6.33317C6.42158 9.66659 6.50636 9.63147 6.56887 9.56895C6.63139 9.50644 6.6665 9.42166 6.6665 9.33325C6.6665 9.24485 6.63139 9.16006 6.56887 9.09755C6.50636 9.03504 6.42158 8.99992 6.33317 8.99992H4.33317C3.89114 8.99992 3.46722 8.82432 3.15466 8.51176C2.8421 8.1992 2.6665 7.77528 2.6665 7.33325C2.6665 6.89122 2.8421 6.4673 3.15466 6.15474C3.46722 5.84218 3.89114 5.66659 4.33317 5.66659H4.6665V4.99992H5.99984V5.66659H7.33317V6.99992H4.33317C4.24477 6.99992 4.15998 7.03504 4.09747 7.09755C4.03496 7.16006 3.99984 7.24485 3.99984 7.33325C3.99984 7.42166 4.03496 7.50644 4.09747 7.56895C4.15998 7.63147 4.24477 7.66659 4.33317 7.66659H6.33317C6.7752 7.66659 7.19912 7.84218 7.51168 8.15474C7.82424 8.4673 7.99984 8.89122 7.99984 9.33325C7.99984 9.77528 7.82424 10.1992 7.51168 10.5118C7.19912 10.8243 6.7752 10.9999 6.33317 10.9999H5.99984V11.6666H4.6665V10.9999H3.33317V9.66659Z" fill="white"/>
</svg>
