<svg width="13" height="14" viewBox="0 0 13 14" fill="none" xmlns="http://www.w3.org/2000/svg">
<path d="M9.99984 11.4999V10.9999H10.4998H11.9998C12.1766 10.9999 12.3462 10.9297 12.4712 10.8047C12.5963 10.6796 12.6665 10.5101 12.6665 10.3333V0.999919C12.6665 0.823108 12.5963 0.653538 12.4712 0.528514C12.3462 0.40349 12.1766 0.333252 11.9998 0.333252H3.99984C3.82303 0.333252 3.65346 0.40349 3.52843 0.528514C3.40341 0.653538 3.33317 0.823108 3.33317 0.999919V2.49992V2.99992L9.99984 11.4999ZM9.99984 11.4999V12.9999C9.99984 13.3679 9.69984 13.6666 9.3285 13.6666H1.33784C1.24992 13.6671 1.16277 13.6503 1.08139 13.617C1 13.5837 0.925993 13.5347 0.86361 13.4728C0.801226 13.4108 0.751699 13.3372 0.717873 13.256C0.684048 13.1749 0.66659 13.0878 0.666504 12.9999L9.99984 11.4999ZM9.49984 9.66659V10.1666H9.99984H11.3332H11.8332V9.66659V1.66659V1.16659H11.3332H4.6665H4.1665V1.66659V2.99992V3.49992H4.6665H9.49984V9.66659ZM9.99984 10.4999H9.49984V10.9999V12.9999C9.49984 13.0889 9.42662 13.1666 9.3285 13.1666L1.33784 13.1666L1.33484 13.1666C1.3128 13.1667 1.29094 13.1625 1.27053 13.1542C1.25013 13.1458 1.23157 13.1335 1.21593 13.118C1.20029 13.1025 1.18787 13.084 1.17938 13.0636C1.17093 13.0434 1.16655 13.0216 1.1665 12.9996L1.1685 3.66669V3.66659C1.1685 3.57764 1.24172 3.49992 1.33984 3.49992H3.33317H3.83317V2.99992V0.999919C3.83317 0.955716 3.85073 0.913324 3.88199 0.882067C3.91324 0.850811 3.95563 0.833252 3.99984 0.833252H11.9998C12.044 0.833252 12.0864 0.850812 12.1177 0.882067C12.1489 0.913323 12.1665 0.955715 12.1665 0.999919V10.3333C12.1665 10.3775 12.1489 10.4198 12.1177 10.4511C12.0864 10.4824 12.044 10.4999 11.9998 10.4999H9.99984ZM2.00184 3.83325H1.50196L1.50184 4.33313L1.49984 12.3331L1.49971 12.8333H1.99984H8.6665H9.1665V12.3333V4.33325V3.83325H8.6665H2.00184ZM5.1665 5.66659V5.49992H5.49984V5.66659V6.16659H5.99984H6.83317V6.49992H4.33317C4.11216 6.49992 3.9002 6.58772 3.74391 6.744C3.58763 6.90028 3.49984 7.11224 3.49984 7.33325C3.49984 7.55426 3.58763 7.76623 3.74391 7.92251C3.9002 8.07879 4.11216 8.16659 4.33317 8.16659H6.33317C6.64259 8.16659 6.93934 8.2895 7.15813 8.50829C7.37692 8.72709 7.49984 9.02383 7.49984 9.33325C7.49984 9.64267 7.37692 9.93942 7.15813 10.1582C6.93934 10.377 6.64259 10.4999 6.33317 10.4999H5.99984H5.49984V10.9999V11.1666H5.1665V10.9999V10.4999H4.6665H3.83317V10.1666H6.33317C6.55418 10.1666 6.76615 10.0788 6.92243 9.92251C7.07871 9.76623 7.1665 9.55427 7.1665 9.33325C7.1665 9.11224 7.07871 8.90028 6.92243 8.744C6.76615 8.58772 6.55418 8.49992 6.33317 8.49992H4.33317C4.02375 8.49992 3.72701 8.377 3.50821 8.15821C3.28942 7.93942 3.1665 7.64267 3.1665 7.33325C3.1665 7.02383 3.28942 6.72709 3.50821 6.50829C3.72701 6.2895 4.02375 6.16659 4.33317 6.16659H4.6665H5.1665V5.66659Z" fill="white" stroke="#131740"/>
</svg>
