<svg width="17" height="16" viewBox="0 0 17 16" fill="none" xmlns="http://www.w3.org/2000/svg">
<path d="M14.9165 10.3333C14.9165 10.7475 15.2523 11.0833 15.6665 11.0833C16.0807 11.0833 16.4165 10.7475 16.4165 10.3333L14.9165 10.3333ZM6.33321 0.25C5.91899 0.25 5.58321 0.585786 5.58321 1C5.58321 1.41421 5.91899 1.75 6.33321 1.75L6.33321 0.25ZM15.5817 1.42466L16.25 1.08417L16.25 1.08417L15.5817 1.42466ZM15.2419 1.08479L14.9014 1.75304L14.9014 1.75304L15.2419 1.08479ZM4.15538 4.11111L4.15538 4.86111L4.15538 4.86111L4.15538 4.11111ZM10.0664 4.11111L10.0664 3.36111L10.0664 3.36111L10.0664 4.11111ZM1.6665 6.60001L0.916503 6.60001L0.916503 6.60001L1.6665 6.60001ZM1.83605 4.96047L1.16779 4.61998L1.16779 4.61998L1.83605 4.96047ZM2.51616 4.28068L2.17566 3.61243L2.17566 3.61243L2.51616 4.28068ZM2.51616 14.8305L2.17566 15.4987L2.17566 15.4987L2.51616 14.8305ZM1.6665 12.5111L2.4165 12.5111L2.4165 12.5111L1.6665 12.5111ZM1.83605 14.1506L1.16779 14.4911L1.16779 14.4911L1.83605 14.1506ZM12.3859 14.1506L13.0541 14.4911L13.0541 14.4911L12.3859 14.1506ZM11.7063 14.8305L11.3658 14.1622L11.3658 14.1622L11.7063 14.8305ZM12.3859 4.96047L11.7176 5.30096L11.7176 5.30096L12.3859 4.96047ZM11.7063 4.28068L11.3658 4.94893L11.3658 4.94893L11.7063 4.28068ZM16.4165 10.3333L16.4165 2.24445L14.9165 2.24445L14.9165 10.3333L16.4165 10.3333ZM14.422 0.250001L6.33321 0.25L6.33321 1.75L14.422 1.75L14.422 0.250001ZM16.4165 2.24445C16.4165 2.03902 16.4171 1.83985 16.4034 1.67252C16.389 1.49645 16.3552 1.29071 16.25 1.08417L14.9135 1.76514C14.893 1.72498 14.9016 1.71134 14.9084 1.79466C14.9159 1.88674 14.9165 2.01427 14.9165 2.24445L16.4165 2.24445ZM14.422 1.75C14.6522 1.75 14.7797 1.75059 14.8718 1.75811C14.9553 1.76493 14.9416 1.77352 14.9014 1.75304L15.5824 0.416532C15.3758 0.311278 15.1701 0.277479 14.994 0.263094C14.8266 0.249421 14.6274 0.250001 14.422 0.250001L14.422 1.75ZM16.25 1.08417C16.1036 0.796809 15.87 0.563064 15.5824 0.416532L14.9014 1.75304C14.9065 1.75564 14.9108 1.75981 14.9135 1.76514L16.25 1.08417ZM11.8054 6.59999L11.8054 12.5111L13.3054 12.5111L13.3054 6.59999L11.8054 6.59999ZM10.0664 14.25L4.15538 14.25L4.15538 15.75L10.0664 15.75L10.0664 14.25ZM4.15538 4.86111L10.0664 4.86111L10.0664 3.36111L4.15538 3.36111L4.15538 4.86111ZM2.4165 6.60001C2.4165 6.15204 2.41709 5.86116 2.43521 5.6394C2.45261 5.42638 2.48238 5.34398 2.5043 5.30096L1.16779 4.61998C1.02017 4.9097 0.96517 5.21148 0.940187 5.51725C0.91592 5.81427 0.916504 6.17679 0.916503 6.60001L2.4165 6.60001ZM4.15538 3.36111C3.73216 3.36111 3.3697 3.36053 3.07275 3.38481C2.76699 3.40981 2.46533 3.46483 2.17566 3.61243L2.85665 4.94893C2.89973 4.92698 2.9821 4.89722 3.19496 4.87982C3.41663 4.8617 3.70741 4.86111 4.15538 4.86111L4.15538 3.36111ZM2.5043 5.30096C2.58136 5.14972 2.70475 5.02634 2.85665 4.94893L2.17566 3.61243C1.74218 3.8333 1.389 4.18582 1.16779 4.61998L2.5043 5.30096ZM4.15538 14.25C3.7074 14.25 3.41662 14.2494 3.19495 14.2313C2.98207 14.2139 2.89972 14.1841 2.85665 14.1622L2.17566 15.4987C2.46535 15.6463 2.76701 15.7013 3.07276 15.7263C3.36971 15.7506 3.73217 15.75 4.15538 15.75L4.15538 14.25ZM0.916503 12.5111C0.916503 12.9343 0.91592 13.2968 0.940187 13.5939C0.965169 13.8996 1.02017 14.2014 1.16779 14.4911L2.5043 13.8101C2.48238 13.7671 2.45261 13.6847 2.43521 13.4717C2.41709 13.2499 2.4165 12.9591 2.4165 12.5111L0.916503 12.5111ZM2.85665 14.1622C2.70478 14.0848 2.58138 13.9614 2.5043 13.8101L1.16779 14.4911C1.38898 14.9252 1.74215 15.2778 2.17566 15.4987L2.85665 14.1622ZM11.8054 12.5111C11.8054 12.9591 11.8048 13.2499 11.7867 13.4717C11.7693 13.6847 11.7396 13.7671 11.7176 13.8101L13.0541 14.4911C13.2018 14.2014 13.2568 13.8996 13.2817 13.5939C13.306 13.2968 13.3054 12.9343 13.3054 12.5111L11.8054 12.5111ZM10.0664 15.75C10.4896 15.75 10.8522 15.7506 11.1493 15.7263C11.4551 15.7013 11.757 15.6464 12.0468 15.4987L11.3658 14.1622C11.3228 14.1841 11.2403 14.2139 11.0272 14.2313C10.8053 14.2494 10.5144 14.25 10.0664 14.25L10.0664 15.75ZM11.7176 13.8101C11.6403 13.9619 11.5171 14.0851 11.3658 14.1622L12.0468 15.4987C12.4808 15.2776 12.8332 14.9247 13.0541 14.4911L11.7176 13.8101ZM13.3054 6.59999C13.3054 6.17677 13.306 5.81425 13.2817 5.51724C13.2568 5.21147 13.2018 4.9097 13.0541 4.61998L11.7176 5.30096C11.7396 5.34399 11.7693 5.42639 11.7867 5.63939C11.8048 5.86115 11.8054 6.15202 11.8054 6.59999L13.3054 6.59999ZM10.0664 4.86111C10.5144 4.86111 10.8053 4.8617 11.0272 4.87983C11.2403 4.89724 11.3228 4.92703 11.3658 4.94893L12.0468 3.61243C11.757 3.46479 11.4551 3.40979 11.1493 3.38481C10.8522 3.36053 10.4897 3.36111 10.0664 3.36111L10.0664 4.86111ZM13.0541 4.61998C12.8332 4.18632 12.4807 3.83355 12.0468 3.61243L11.3658 4.94893C11.5172 5.02608 11.6403 5.14922 11.7176 5.30096L13.0541 4.61998ZM2.4165 12.5111L2.4165 6.60001L0.916503 6.60001L0.916503 12.5111L2.4165 12.5111Z" fill="#131740"/>
</svg>
