<svg width="24" height="24" viewBox="0 0 24 24" fill="none" xmlns="http://www.w3.org/2000/svg">
<path d="M19.8811 23.766H4.29112C3.20742 23.7649 2.16838 23.334 1.40199 22.5678C0.635602 21.8016 0.204449 20.7627 0.203125 19.679V4.08899C0.204184 3.00502 0.63519 1.96574 1.40158 1.19916C2.16797 0.43258 3.20715 0.00132366 4.29112 0H19.8811C20.9649 0.00158824 22.0038 0.432959 22.77 1.19951C23.5362 1.96606 23.9671 3.00519 23.9681 4.08899V19.679C23.9668 20.7625 23.5358 21.8013 22.7696 22.5675C22.0034 23.3336 20.9647 23.7647 19.8811 23.766ZM4.29112 0.901993C3.44629 0.903052 2.63638 1.23921 2.03909 1.83669C1.4418 2.43416 1.10591 3.24416 1.10512 4.08899V19.679C1.10644 20.5235 1.44256 21.333 2.03979 21.93C2.63703 22.5271 3.44664 22.8629 4.29112 22.864H19.8811C20.7255 22.8629 21.535 22.527 22.1321 21.93C22.7292 21.3329 23.0651 20.5234 23.0661 19.679V4.08899C23.0653 3.24433 22.7296 2.43449 22.1325 1.83704C21.5354 1.23959 20.7258 0.903316 19.8811 0.901993H4.29112Z" fill="#fff"/>
<path d="M6.13368 9.42732H8.68668V17.6273H6.13368V9.42732ZM7.41068 5.35132C7.60473 5.35119 7.7969 5.38929 7.97621 5.46346C8.15552 5.53762 8.31847 5.64641 8.45573 5.78357C8.59298 5.92074 8.70187 6.0836 8.77616 6.26286C8.85045 6.44213 8.88869 6.63426 8.88869 6.82831C8.88882 7.02253 8.85069 7.21489 8.77648 7.39438C8.70228 7.57387 8.59344 7.73699 8.4562 7.87442C8.31895 8.01185 8.15599 8.12091 7.9766 8.19536C7.79721 8.26981 7.60491 8.30819 7.41068 8.30832C7.21624 8.30845 7.02369 8.27026 6.84401 8.19594C6.66433 8.12162 6.50105 8.01263 6.36352 7.87518C6.22598 7.73774 6.11687 7.57454 6.04243 7.39491C5.968 7.21529 5.92969 7.02275 5.92969 6.82831C5.92995 6.63408 5.96846 6.44182 6.04303 6.26248C6.1176 6.08314 6.22676 5.92025 6.36429 5.7831C6.50181 5.64595 6.665 5.53722 6.84454 5.46314C7.02408 5.38905 7.21646 5.35106 7.41068 5.35132Z" fill="#fff"/>
<path d="M10.2901 9.42824H12.7361V10.5512H12.7691C13.0144 10.133 13.3686 9.78912 13.7938 9.55616C14.2191 9.32319 14.6995 9.20986 15.1841 9.22825C17.7651 9.22825 18.2411 10.9283 18.2411 13.1363V17.6363H15.6931V13.6473C15.6931 12.6963 15.6741 11.4722 14.3671 11.4722C13.0401 11.4722 12.8381 12.5083 12.8381 13.5783V17.6282H10.2891L10.2901 9.42824Z" fill="#fff"/>
</svg>
