<svg width="24" height="24" viewBox="0 0 24 24" fill="none" xmlns="http://www.w3.org/2000/svg">
<path d="M19.678 23.766H4.088C3.00429 23.7649 1.96526 23.334 1.19887 22.5678C0.432477 21.8016 0.00132366 20.7627 0 19.679V4.08899C0.00105853 3.00502 0.432065 1.96574 1.19846 1.19916C1.96485 0.43258 3.00403 0.00132366 4.088 0H19.678C20.762 0.00132366 21.8012 0.43258 22.5676 1.19916C23.3339 1.96574 23.7649 3.00502 23.766 4.08899V19.679C23.7647 20.7627 23.3335 21.8016 22.5671 22.5678C21.8007 23.334 20.7617 23.7649 19.678 23.766ZM4.088 0.901993C3.24317 0.903052 2.43326 1.23921 1.83597 1.83669C1.23868 2.43416 0.902802 3.24416 0.902008 4.08899V19.679C0.903331 20.5235 1.23945 21.333 1.83669 21.93C2.43392 22.5271 3.24352 22.8629 4.088 22.864H19.678C20.5225 22.8629 21.3321 22.5271 21.9293 21.93C22.5266 21.333 22.8627 20.5235 22.864 19.679V4.08899C22.8632 3.24416 22.5273 2.43416 21.93 1.83669C21.3327 1.23921 20.5228 0.903052 19.678 0.901993H4.088Z" fill="#fff"/>
<path d="M19.0152 8.24722C18.55 8.44743 18.061 8.5869 17.5602 8.66222C17.7942 8.62322 18.1372 8.19923 18.2752 8.02823C18.4903 7.76817 18.6539 7.46951 18.7572 7.14822C18.7702 7.12322 18.7802 7.09122 18.7572 7.07222C18.7446 7.06698 18.731 7.0648 18.7175 7.06584C18.7039 7.06689 18.6908 7.07112 18.6792 7.07822C18.1343 7.3692 17.5551 7.59092 16.9552 7.73822C16.9343 7.74473 16.9121 7.74517 16.891 7.7395C16.87 7.73384 16.8509 7.7223 16.8362 7.70622C16.79 7.65098 16.7395 7.59948 16.6852 7.55222C16.4362 7.33803 16.1542 7.16548 15.8502 7.04121C15.4442 6.87661 15.0063 6.80586 14.5692 6.83423C14.1446 6.86294 13.7308 6.98011 13.3542 7.17822C12.976 7.37508 12.6421 7.64735 12.3732 7.97823C12.0945 8.32121 11.8948 8.72135 11.7882 9.15022C11.6964 9.55682 11.6858 9.97754 11.7572 10.3882C11.7662 10.4572 11.7572 10.4662 11.6972 10.4572C9.4156 10.2245 7.30288 9.14905 5.77217 7.44122C5.70317 7.36222 5.66517 7.36223 5.60817 7.44623C5.30055 8.01437 5.18422 8.66652 5.27644 9.30598C5.36867 9.94545 5.66453 10.5382 6.12016 10.9962C6.23616 11.1062 6.35516 11.2162 6.48416 11.3162C6.08575 11.2862 5.69725 11.1774 5.34117 10.9962C5.27217 10.9522 5.24117 10.9772 5.23117 11.0562C5.22698 11.1699 5.23333 11.2837 5.25017 11.3962C5.32006 11.9293 5.53017 12.4343 5.85906 12.8597C6.18794 13.285 6.62381 13.6154 7.12216 13.8172C7.24435 13.8702 7.37218 13.9092 7.50317 13.9332C7.13375 14.0074 6.7545 14.0192 6.38117 13.9682C6.30017 13.9522 6.26817 13.9922 6.30017 14.0682C6.49198 14.5707 6.80915 15.0158 7.22153 15.3612C7.63391 15.7065 8.12779 15.9406 8.65617 16.0412C8.76317 16.0602 8.87017 16.0602 8.97717 16.0852C8.97117 16.0942 8.96416 16.0942 8.95816 16.1042C8.50032 16.5166 7.94757 16.8093 7.34917 16.9562C6.5667 17.236 5.73288 17.3428 4.90517 17.2692C4.77317 17.2502 4.74618 17.2512 4.71018 17.2692C4.67418 17.2872 4.71017 17.3232 4.74817 17.3572C4.91517 17.4672 5.08417 17.5642 5.25717 17.6572C5.7762 17.9345 6.32417 18.1538 6.89118 18.3112C8.34873 18.7496 9.89578 18.7979 11.3779 18.4513C12.8599 18.1048 14.2251 17.3755 15.3372 16.3362C16.1378 15.4683 16.7569 14.4491 17.1582 13.3385C17.5596 12.228 17.735 11.0485 17.6742 9.86922C17.6742 9.77622 17.7842 9.72522 17.8492 9.67622C18.2891 9.33456 18.6765 8.93027 18.9992 8.47623C19.0501 8.41091 19.0769 8.33003 19.0752 8.24722V8.23422C19.0732 8.20922 19.0732 8.22022 19.0152 8.24722Z" fill="#fff"/>
</svg>
