<svg width="15" height="15" viewBox="0 0 15 15" fill="none" xmlns="http://www.w3.org/2000/svg">
<path d="M5 7.16667H5.5V6.66667V1.66667V1.16667H5H1.66667H1.16667V1.66667V6.66667V7.16667H1.66667H5ZM1.16667 13.3333V13.8333H1.66667H5H5.5V13.3333V11.6667V11.1667H5H1.66667H1.16667V11.6667V13.3333ZM9.5 13.3333V13.8333H10H13.3333H13.8333V13.3333V8.33333V7.83333H13.3333H10H9.5V8.33333V13.3333ZM10 1.16667H9.5V1.66667V3.33333V3.83333H10H13.3333H13.8333V3.33333V1.66667V1.16667H13.3333H10ZM8.83333 14.5V7.16667H14.5V14.5H8.83333ZM0.5 7.83333V0.5H6.16667V7.83333H0.5ZM0.5 14.5V10.5H6.16667V14.5H0.5ZM8.83333 0.5H14.5V4.5H8.83333V0.5Z" fill="#0071E3" stroke="#131740"/>
</svg>
