<svg width="14" height="17" viewBox="0 0 14 17" fill="none" xmlns="http://www.w3.org/2000/svg">
<path d="M11.6667 16C11.6667 16.5523 12.1144 17 12.6667 17C13.219 17 13.6667 16.5523 13.6667 16H11.6667ZM0 16C0 16.5523 0.447715 17 1 17C1.55228 17 2 16.5523 2 16H0ZM13.6667 16C13.6667 12.2261 10.6073 9.16667 6.83333 9.16667V11.1667C9.50271 11.1667 11.6667 13.3306 11.6667 16H13.6667ZM6.83333 9.16667C3.05939 9.16667 0 12.2261 0 16H2C2 13.3306 4.16396 11.1667 6.83333 11.1667V9.16667ZM6.83333 6.66667C5.54467 6.66667 4.5 5.622 4.5 4.33333H2.5C2.5 6.72657 4.4401 8.66667 6.83333 8.66667V6.66667ZM4.5 4.33333C4.5 3.04467 5.54467 2 6.83333 2V0C4.4401 0 2.5 1.9401 2.5 4.33333H4.5ZM6.83333 2C8.122 2 9.16667 3.04467 9.16667 4.33333H11.1667C11.1667 1.9401 9.22657 0 6.83333 0V2ZM9.16667 4.33333C9.16667 5.622 8.122 6.66667 6.83333 6.66667V8.66667C9.22657 8.66667 11.1667 6.72657 11.1667 4.33333H9.16667Z" fill="#0071E3"/>
</svg>
