<svg width="33" height="23" viewBox="0 0 33 23" fill="none" xmlns="http://www.w3.org/2000/svg">
<mask id="path-1-outside-1_568_4798" maskUnits="userSpaceOnUse" x="0" y="0" width="33" height="23" fill="white">
<rect fill="white" width="33" height="23"/>
<path d="M11.6997 9.86419C11.6769 9.86419 11.6587 9.86419 11.6359 9.86419C9.96204 9.92221 8.64396 11.2791 8.66677 12.9171C8.64396 14.573 9.99397 15.9388 11.6906 15.9656C13.3827 15.9343 14.7327 14.573 14.7099 12.9126C14.7372 11.2567 13.3872 9.89543 11.6997 9.86419ZM11.6906 15.2247C10.4136 15.1979 9.3965 14.1624 9.4193 12.9126C9.39194 11.6584 10.409 10.623 11.6906 10.5962H11.7453C12.9996 10.6497 13.9801 11.6718 13.9619 12.8993V12.9037C13.9893 14.1579 12.9722 15.1979 11.6906 15.2247ZM21.1635 9.86419C21.1406 9.86419 21.1178 9.86419 21.095 9.86419C19.4303 9.93114 18.1214 11.2835 18.1396 12.9171C18.1168 14.573 19.4668 15.9343 21.1589 15.9656C22.851 15.9343 24.201 14.573 24.1782 12.9126C24.2055 11.2567 22.8555 9.89097 21.1635 9.86419ZM21.1635 15.2247C19.8864 15.1979 18.8694 14.1624 18.8922 12.9126C18.8648 11.6584 19.8819 10.623 21.1635 10.5962C21.1817 10.5962 21.2045 10.5962 21.2227 10.5962C22.4724 10.6542 23.4484 11.6763 23.4302 12.8993C23.4576 14.1535 22.445 15.1934 21.1635 15.2247ZM21.1635 9.86419C21.1406 9.86419 21.1178 9.86419 21.095 9.86419C19.4303 9.93114 18.1214 11.2835 18.1396 12.9171C18.1168 14.573 19.4668 15.9343 21.1589 15.9656C22.851 15.9343 24.201 14.573 24.1782 12.9126C24.2055 11.2567 22.8555 9.89097 21.1635 9.86419ZM21.1635 15.2247C19.8864 15.1979 18.8694 14.1624 18.8922 12.9126C18.8648 11.6584 19.8819 10.623 21.1635 10.5962C21.1817 10.5962 21.2045 10.5962 21.2227 10.5962C22.4724 10.6542 23.4484 11.6763 23.4302 12.8993C23.4576 14.1535 22.445 15.1934 21.1635 15.2247ZM11.6997 9.86419C11.6769 9.86419 11.6587 9.86419 11.6359 9.86419C9.96204 9.92221 8.64396 11.2791 8.66677 12.9171C8.64396 14.573 9.99397 15.9388 11.6906 15.9656C13.3827 15.9343 14.7327 14.573 14.7099 12.9126C14.7372 11.2567 13.3872 9.89543 11.6997 9.86419ZM13.9619 12.9037C13.9893 14.1579 12.9722 15.1934 11.6906 15.2202C10.4136 15.1934 9.3965 14.1579 9.4193 12.9082C9.39194 11.654 10.409 10.6185 11.6906 10.5917H11.7453C12.9996 10.6453 13.9801 11.6674 13.9619 12.8948V12.9037ZM28.1643 3.74049C28.137 3.69586 28.105 3.66015 28.0594 3.62891C25.9386 2.04442 23.3709 1.13836 20.7028 1.03571C20.6025 1.03571 20.5113 1.07588 20.4383 1.14283C20.3653 1.21424 20.3288 1.30797 20.3288 1.4017V2.39702C17.8249 1.95962 15.2709 1.92391 12.7533 2.2899V1.36599C12.7533 1.16961 12.5936 1.00446 12.393 1C9.68383 1.0848 7.06591 1.99979 4.9132 3.61998C4.87215 3.65122 4.83566 3.68693 4.81286 3.73156C2.41386 8.12795 1.10946 13.0198 1 18.0009C1 18.0678 1.01824 18.1303 1.05017 18.1883C1.14595 18.3401 3.31234 21.8616 9.16846 22H9.17758C9.29616 21.9955 9.40562 21.9375 9.47403 21.8438C9.48315 21.8349 10.3178 20.7726 11.1479 19.8308L11.6313 19.2193C14.3313 19.9379 17.1636 20.054 19.9183 19.5586H19.9503C20.3881 19.4648 20.8396 19.3666 21.2912 19.255L21.6013 19.6835C22.2854 20.6208 23.2432 21.6786 23.2797 21.7188C23.3527 21.7992 23.4576 21.8438 23.5716 21.8438C26.6137 21.8795 29.528 20.6655 31.6169 18.5007C31.6671 18.4472 31.7264 18.3892 31.7628 18.3535C31.9042 18.2999 32 18.1615 32 18.0098C31.886 13.0242 30.5725 8.13688 28.1643 3.74049ZM31.0742 18.0009C29.1677 19.9826 26.5133 21.1073 23.7312 21.1163C23.4576 20.8038 22.7461 19.987 22.2124 19.2684L21.7564 18.6346C21.6651 18.5097 21.5055 18.4516 21.355 18.4918C20.8351 18.6257 20.306 18.7418 19.7906 18.8489H19.7815C17.0587 19.3399 14.2583 19.2015 11.5994 18.4561C11.4534 18.4159 11.2938 18.465 11.198 18.5811L10.5686 19.3711C9.91643 20.1075 9.25967 20.9288 8.99514 21.2546C6.17199 21.3394 3.47653 20.0897 1.7571 17.8982C1.88024 13.109 3.12991 8.40914 5.41489 4.17343C7.335 2.78533 9.61542 1.94623 11.9962 1.74984V2.72285C11.9962 2.82997 12.0463 2.93262 12.1284 3.00404C12.2151 3.07545 12.3246 3.10223 12.434 3.08884C15.1477 2.64251 17.9253 2.68268 20.6253 3.20489C20.7347 3.22721 20.8488 3.20043 20.9354 3.12901C21.0221 3.0576 21.0722 2.95494 21.0722 2.84336V1.78555C23.4165 1.98193 25.6559 2.81211 27.5441 4.18236C29.8336 8.39129 31.097 13.0599 31.2383 17.8268C31.1973 17.8759 31.1426 17.9339 31.0742 18.0009ZM31.3387 18.2553L31.3752 18.291C31.3615 18.282 31.3524 18.2687 31.3387 18.2553ZM21.1635 9.86419C21.1406 9.86419 21.1178 9.86419 21.095 9.86419C19.4303 9.93114 18.1214 11.2835 18.1396 12.9171C18.1168 14.573 19.4668 15.9343 21.1589 15.9656C22.851 15.9343 24.201 14.573 24.1782 12.9126C24.2055 11.2567 22.8555 9.89097 21.1635 9.86419ZM23.4302 12.8993C23.4576 14.1535 22.445 15.1934 21.1635 15.2202C19.8864 15.1934 18.8694 14.1579 18.8922 12.9082C18.8648 11.654 19.8819 10.6185 21.1635 10.5917C21.1817 10.5917 21.2045 10.5917 21.2227 10.5917C22.4724 10.6542 23.4484 11.6763 23.4302 12.8993ZM11.6997 9.86419C11.6769 9.86419 11.6587 9.86419 11.6359 9.86419C9.96204 9.92221 8.64396 11.2791 8.66677 12.9171C8.64396 14.573 9.99397 15.9388 11.6906 15.9656C13.3827 15.9343 14.7327 14.573 14.7099 12.9126C14.7372 11.2567 13.3872 9.89543 11.6997 9.86419ZM13.9619 12.9037C13.9893 14.1579 12.9722 15.1934 11.6906 15.2202C10.4136 15.1934 9.3965 14.1579 9.4193 12.9082C9.39194 11.654 10.409 10.6185 11.6906 10.5917H11.7453C12.9996 10.6453 13.9801 11.6674 13.9619 12.8948V12.9037Z"/>
</mask>
<path d="M11.6997 9.86419C11.6769 9.86419 11.6587 9.86419 11.6359 9.86419C9.96204 9.92221 8.64396 11.2791 8.66677 12.9171C8.64396 14.573 9.99397 15.9388 11.6906 15.9656C13.3827 15.9343 14.7327 14.573 14.7099 12.9126C14.7372 11.2567 13.3872 9.89543 11.6997 9.86419ZM11.6906 15.2247C10.4136 15.1979 9.3965 14.1624 9.4193 12.9126C9.39194 11.6584 10.409 10.623 11.6906 10.5962H11.7453C12.9996 10.6497 13.9801 11.6718 13.9619 12.8993V12.9037C13.9893 14.1579 12.9722 15.1979 11.6906 15.2247ZM21.1635 9.86419C21.1406 9.86419 21.1178 9.86419 21.095 9.86419C19.4303 9.93114 18.1214 11.2835 18.1396 12.9171C18.1168 14.573 19.4668 15.9343 21.1589 15.9656C22.851 15.9343 24.201 14.573 24.1782 12.9126C24.2055 11.2567 22.8555 9.89097 21.1635 9.86419ZM21.1635 15.2247C19.8864 15.1979 18.8694 14.1624 18.8922 12.9126C18.8648 11.6584 19.8819 10.623 21.1635 10.5962C21.1817 10.5962 21.2045 10.5962 21.2227 10.5962C22.4724 10.6542 23.4484 11.6763 23.4302 12.8993C23.4576 14.1535 22.445 15.1934 21.1635 15.2247ZM21.1635 9.86419C21.1406 9.86419 21.1178 9.86419 21.095 9.86419C19.4303 9.93114 18.1214 11.2835 18.1396 12.9171C18.1168 14.573 19.4668 15.9343 21.1589 15.9656C22.851 15.9343 24.201 14.573 24.1782 12.9126C24.2055 11.2567 22.8555 9.89097 21.1635 9.86419ZM21.1635 15.2247C19.8864 15.1979 18.8694 14.1624 18.8922 12.9126C18.8648 11.6584 19.8819 10.623 21.1635 10.5962C21.1817 10.5962 21.2045 10.5962 21.2227 10.5962C22.4724 10.6542 23.4484 11.6763 23.4302 12.8993C23.4576 14.1535 22.445 15.1934 21.1635 15.2247ZM11.6997 9.86419C11.6769 9.86419 11.6587 9.86419 11.6359 9.86419C9.96204 9.92221 8.64396 11.2791 8.66677 12.9171C8.64396 14.573 9.99397 15.9388 11.6906 15.9656C13.3827 15.9343 14.7327 14.573 14.7099 12.9126C14.7372 11.2567 13.3872 9.89543 11.6997 9.86419ZM13.9619 12.9037C13.9893 14.1579 12.9722 15.1934 11.6906 15.2202C10.4136 15.1934 9.3965 14.1579 9.4193 12.9082C9.39194 11.654 10.409 10.6185 11.6906 10.5917H11.7453C12.9996 10.6453 13.9801 11.6674 13.9619 12.8948V12.9037ZM28.1643 3.74049C28.137 3.69586 28.105 3.66015 28.0594 3.62891C25.9386 2.04442 23.3709 1.13836 20.7028 1.03571C20.6025 1.03571 20.5113 1.07588 20.4383 1.14283C20.3653 1.21424 20.3288 1.30797 20.3288 1.4017V2.39702C17.8249 1.95962 15.2709 1.92391 12.7533 2.2899V1.36599C12.7533 1.16961 12.5936 1.00446 12.393 1C9.68383 1.0848 7.06591 1.99979 4.9132 3.61998C4.87215 3.65122 4.83566 3.68693 4.81286 3.73156C2.41386 8.12795 1.10946 13.0198 1 18.0009C1 18.0678 1.01824 18.1303 1.05017 18.1883C1.14595 18.3401 3.31234 21.8616 9.16846 22H9.17758C9.29616 21.9955 9.40562 21.9375 9.47403 21.8438C9.48315 21.8349 10.3178 20.7726 11.1479 19.8308L11.6313 19.2193C14.3313 19.9379 17.1636 20.054 19.9183 19.5586H19.9503C20.3881 19.4648 20.8396 19.3666 21.2912 19.255L21.6013 19.6835C22.2854 20.6208 23.2432 21.6786 23.2797 21.7188C23.3527 21.7992 23.4576 21.8438 23.5716 21.8438C26.6137 21.8795 29.528 20.6655 31.6169 18.5007C31.6671 18.4472 31.7264 18.3892 31.7628 18.3535C31.9042 18.2999 32 18.1615 32 18.0098C31.886 13.0242 30.5725 8.13688 28.1643 3.74049ZM31.0742 18.0009C29.1677 19.9826 26.5133 21.1073 23.7312 21.1163C23.4576 20.8038 22.7461 19.987 22.2124 19.2684L21.7564 18.6346C21.6651 18.5097 21.5055 18.4516 21.355 18.4918C20.8351 18.6257 20.306 18.7418 19.7906 18.8489H19.7815C17.0587 19.3399 14.2583 19.2015 11.5994 18.4561C11.4534 18.4159 11.2938 18.465 11.198 18.5811L10.5686 19.3711C9.91643 20.1075 9.25967 20.9288 8.99514 21.2546C6.17199 21.3394 3.47653 20.0897 1.7571 17.8982C1.88024 13.109 3.12991 8.40914 5.41489 4.17343C7.335 2.78533 9.61542 1.94623 11.9962 1.74984V2.72285C11.9962 2.82997 12.0463 2.93262 12.1284 3.00404C12.2151 3.07545 12.3246 3.10223 12.434 3.08884C15.1477 2.64251 17.9253 2.68268 20.6253 3.20489C20.7347 3.22721 20.8488 3.20043 20.9354 3.12901C21.0221 3.0576 21.0722 2.95494 21.0722 2.84336V1.78555C23.4165 1.98193 25.6559 2.81211 27.5441 4.18236C29.8336 8.39129 31.097 13.0599 31.2383 17.8268C31.1973 17.8759 31.1426 17.9339 31.0742 18.0009ZM31.3387 18.2553L31.3752 18.291C31.3615 18.282 31.3524 18.2687 31.3387 18.2553ZM21.1635 9.86419C21.1406 9.86419 21.1178 9.86419 21.095 9.86419C19.4303 9.93114 18.1214 11.2835 18.1396 12.9171C18.1168 14.573 19.4668 15.9343 21.1589 15.9656C22.851 15.9343 24.201 14.573 24.1782 12.9126C24.2055 11.2567 22.8555 9.89097 21.1635 9.86419ZM23.4302 12.8993C23.4576 14.1535 22.445 15.1934 21.1635 15.2202C19.8864 15.1934 18.8694 14.1579 18.8922 12.9082C18.8648 11.654 19.8819 10.6185 21.1635 10.5917C21.1817 10.5917 21.2045 10.5917 21.2227 10.5917C22.4724 10.6542 23.4484 11.6763 23.4302 12.8993ZM11.6997 9.86419C11.6769 9.86419 11.6587 9.86419 11.6359 9.86419C9.96204 9.92221 8.64396 11.2791 8.66677 12.9171C8.64396 14.573 9.99397 15.9388 11.6906 15.9656C13.3827 15.9343 14.7327 14.573 14.7099 12.9126C14.7372 11.2567 13.3872 9.89543 11.6997 9.86419ZM13.9619 12.9037C13.9893 14.1579 12.9722 15.1934 11.6906 15.2202C10.4136 15.1934 9.3965 14.1579 9.4193 12.9082C9.39194 11.654 10.409 10.6185 11.6906 10.5917H11.7453C12.9996 10.6453 13.9801 11.6674 13.9619 12.8948V12.9037Z" fill="#fff"/>
<path d="M11.6997 9.86419C11.6769 9.86419 11.6587 9.86419 11.6359 9.86419C9.96204 9.92221 8.64396 11.2791 8.66677 12.9171C8.64396 14.573 9.99397 15.9388 11.6906 15.9656C13.3827 15.9343 14.7327 14.573 14.7099 12.9126C14.7372 11.2567 13.3872 9.89543 11.6997 9.86419ZM11.6906 15.2247C10.4136 15.1979 9.3965 14.1624 9.4193 12.9126C9.39194 11.6584 10.409 10.623 11.6906 10.5962H11.7453C12.9996 10.6497 13.9801 11.6718 13.9619 12.8993V12.9037C13.9893 14.1579 12.9722 15.1979 11.6906 15.2247ZM21.1635 9.86419C21.1406 9.86419 21.1178 9.86419 21.095 9.86419C19.4303 9.93114 18.1214 11.2835 18.1396 12.9171C18.1168 14.573 19.4668 15.9343 21.1589 15.9656C22.851 15.9343 24.201 14.573 24.1782 12.9126C24.2055 11.2567 22.8555 9.89097 21.1635 9.86419ZM21.1635 15.2247C19.8864 15.1979 18.8694 14.1624 18.8922 12.9126C18.8648 11.6584 19.8819 10.623 21.1635 10.5962C21.1817 10.5962 21.2045 10.5962 21.2227 10.5962C22.4724 10.6542 23.4484 11.6763 23.4302 12.8993C23.4576 14.1535 22.445 15.1934 21.1635 15.2247ZM21.1635 9.86419C21.1406 9.86419 21.1178 9.86419 21.095 9.86419C19.4303 9.93114 18.1214 11.2835 18.1396 12.9171C18.1168 14.573 19.4668 15.9343 21.1589 15.9656C22.851 15.9343 24.201 14.573 24.1782 12.9126C24.2055 11.2567 22.8555 9.89097 21.1635 9.86419ZM21.1635 15.2247C19.8864 15.1979 18.8694 14.1624 18.8922 12.9126C18.8648 11.6584 19.8819 10.623 21.1635 10.5962C21.1817 10.5962 21.2045 10.5962 21.2227 10.5962C22.4724 10.6542 23.4484 11.6763 23.4302 12.8993C23.4576 14.1535 22.445 15.1934 21.1635 15.2247ZM11.6997 9.86419C11.6769 9.86419 11.6587 9.86419 11.6359 9.86419C9.96204 9.92221 8.64396 11.2791 8.66677 12.9171C8.64396 14.573 9.99397 15.9388 11.6906 15.9656C13.3827 15.9343 14.7327 14.573 14.7099 12.9126C14.7372 11.2567 13.3872 9.89543 11.6997 9.86419ZM13.9619 12.9037C13.9893 14.1579 12.9722 15.1934 11.6906 15.2202C10.4136 15.1934 9.3965 14.1579 9.4193 12.9082C9.39194 11.654 10.409 10.6185 11.6906 10.5917H11.7453C12.9996 10.6453 13.9801 11.6674 13.9619 12.8948V12.9037ZM28.1643 3.74049C28.137 3.69586 28.105 3.66015 28.0594 3.62891C25.9386 2.04442 23.3709 1.13836 20.7028 1.03571C20.6025 1.03571 20.5113 1.07588 20.4383 1.14283C20.3653 1.21424 20.3288 1.30797 20.3288 1.4017V2.39702C17.8249 1.95962 15.2709 1.92391 12.7533 2.2899V1.36599C12.7533 1.16961 12.5936 1.00446 12.393 1C9.68383 1.0848 7.06591 1.99979 4.9132 3.61998C4.87215 3.65122 4.83566 3.68693 4.81286 3.73156C2.41386 8.12795 1.10946 13.0198 1 18.0009C1 18.0678 1.01824 18.1303 1.05017 18.1883C1.14595 18.3401 3.31234 21.8616 9.16846 22H9.17758C9.29616 21.9955 9.40562 21.9375 9.47403 21.8438C9.48315 21.8349 10.3178 20.7726 11.1479 19.8308L11.6313 19.2193C14.3313 19.9379 17.1636 20.054 19.9183 19.5586H19.9503C20.3881 19.4648 20.8396 19.3666 21.2912 19.255L21.6013 19.6835C22.2854 20.6208 23.2432 21.6786 23.2797 21.7188C23.3527 21.7992 23.4576 21.8438 23.5716 21.8438C26.6137 21.8795 29.528 20.6655 31.6169 18.5007C31.6671 18.4472 31.7264 18.3892 31.7628 18.3535C31.9042 18.2999 32 18.1615 32 18.0098C31.886 13.0242 30.5725 8.13688 28.1643 3.74049ZM31.0742 18.0009C29.1677 19.9826 26.5133 21.1073 23.7312 21.1163C23.4576 20.8038 22.7461 19.987 22.2124 19.2684L21.7564 18.6346C21.6651 18.5097 21.5055 18.4516 21.355 18.4918C20.8351 18.6257 20.306 18.7418 19.7906 18.8489H19.7815C17.0587 19.3399 14.2583 19.2015 11.5994 18.4561C11.4534 18.4159 11.2938 18.465 11.198 18.5811L10.5686 19.3711C9.91643 20.1075 9.25967 20.9288 8.99514 21.2546C6.17199 21.3394 3.47653 20.0897 1.7571 17.8982C1.88024 13.109 3.12991 8.40914 5.41489 4.17343C7.335 2.78533 9.61542 1.94623 11.9962 1.74984V2.72285C11.9962 2.82997 12.0463 2.93262 12.1284 3.00404C12.2151 3.07545 12.3246 3.10223 12.434 3.08884C15.1477 2.64251 17.9253 2.68268 20.6253 3.20489C20.7347 3.22721 20.8488 3.20043 20.9354 3.12901C21.0221 3.0576 21.0722 2.95494 21.0722 2.84336V1.78555C23.4165 1.98193 25.6559 2.81211 27.5441 4.18236C29.8336 8.39129 31.097 13.0599 31.2383 17.8268C31.1973 17.8759 31.1426 17.9339 31.0742 18.0009ZM31.3387 18.2553L31.3752 18.291C31.3615 18.282 31.3524 18.2687 31.3387 18.2553ZM21.1635 9.86419C21.1406 9.86419 21.1178 9.86419 21.095 9.86419C19.4303 9.93114 18.1214 11.2835 18.1396 12.9171C18.1168 14.573 19.4668 15.9343 21.1589 15.9656C22.851 15.9343 24.201 14.573 24.1782 12.9126C24.2055 11.2567 22.8555 9.89097 21.1635 9.86419ZM23.4302 12.8993C23.4576 14.1535 22.445 15.1934 21.1635 15.2202C19.8864 15.1934 18.8694 14.1579 18.8922 12.9082C18.8648 11.654 19.8819 10.6185 21.1635 10.5917C21.1817 10.5917 21.2045 10.5917 21.2227 10.5917C22.4724 10.6542 23.4484 11.6763 23.4302 12.8993ZM11.6997 9.86419C11.6769 9.86419 11.6587 9.86419 11.6359 9.86419C9.96204 9.92221 8.64396 11.2791 8.66677 12.9171C8.64396 14.573 9.99397 15.9388 11.6906 15.9656C13.3827 15.9343 14.7327 14.573 14.7099 12.9126C14.7372 11.2567 13.3872 9.89543 11.6997 9.86419ZM13.9619 12.9037C13.9893 14.1579 12.9722 15.1934 11.6906 15.2202C10.4136 15.1934 9.3965 14.1579 9.4193 12.9082C9.39194 11.654 10.409 10.6185 11.6906 10.5917H11.7453C12.9996 10.6453 13.9801 11.6674 13.9619 12.8948V12.9037Z" stroke="#fff" stroke-width="0.6" mask="url(#path-1-outside-1_568_4798)"/>
</svg>
