<svg width="25" height="18" viewBox="0 0 25 18" fill="none" xmlns="http://www.w3.org/2000/svg">
<path d="M21.8711 2.24799C20.27 0.979892 18.371 0.214094 16.383 0.0329376V1.00871C16.383 1.11164 16.3405 1.20634 16.267 1.27221C16.1935 1.33809 16.0968 1.36279 16.004 1.34221C13.7144 0.856377 11.3591 0.819322 9.05786 1.23516C8.96504 1.25163 8.87222 1.22281 8.79873 1.15693C8.72911 1.09106 8.68657 0.996361 8.68657 0.897549V0C6.66383 0.181157 4.73004 0.951072 3.10179 2.23564C1.16414 6.14286 0.100557 10.4783 0 14.896C1.45808 16.9217 3.74381 18.0745 6.13784 17.9963C6.35829 17.6957 6.91522 16.9381 7.47215 16.2588L8.00588 15.5301C8.0871 15.4189 8.22246 15.3736 8.34622 15.4148C10.601 16.1024 12.9757 16.23 15.2847 15.7771H15.2924C15.7294 15.6742 16.1781 15.5671 16.619 15.4477C16.7466 15.4107 16.882 15.4642 16.9593 15.5795L17.3461 16.1641C17.7986 16.827 18.398 17.5845 18.634 17.8686C20.9932 17.8645 23.2441 16.8229 24.8608 14.9948C24.9188 14.9331 24.9652 14.8795 25 14.8343C24.884 10.4371 23.8127 6.1305 21.8711 2.24799ZM8.42358 13.1133C6.98871 13.0886 5.84004 11.8328 5.85937 10.3012C5.84004 8.79021 6.95777 7.53858 8.37717 7.48506C8.3965 7.48506 8.41197 7.48506 8.43131 7.48506C9.86618 7.51388 11.0071 8.76963 10.9878 10.2971C11.0032 11.8246 9.85845 13.0844 8.42358 13.1133ZM16.4565 13.1133C15.0217 13.0886 13.873 11.8287 13.8962 10.3012C13.8769 8.79433 14.9868 7.54682 16.4024 7.48506C16.4217 7.48506 16.4411 7.48506 16.4604 7.48506C17.8953 7.50976 19.0401 8.76551 19.0207 10.2971C19.0362 11.8246 17.8914 13.0844 16.4565 13.1133Z" fill="#A1A2B3"/>
</svg>
