<svg width="260" height="62" viewBox="0 0 260 62" fill="none" xmlns="http://www.w3.org/2000/svg">
<path d="M93.1191 19.0912L89.3227 38.2147H85.1696L87.4145 26.8505L80.1208 36.1931H78.1487L74.2153 26.7406L71.9196 38.2147H67.7676L71.5923 19.0912H75.1984L79.9813 31.0025L89.3251 19.0912H93.1191Z" fill="white"/>
<path d="M109.292 32.0139H98.0366C98.1824 34.0162 99.4482 35.0178 101.834 35.0186C102.564 35.022 103.289 34.9021 103.979 34.6641C104.634 34.4438 105.241 34.1009 105.768 33.6539L107.54 36.4672C106.704 37.1323 105.749 37.6331 104.727 37.9429C103.647 38.2739 102.523 38.4396 101.393 38.4345C99.8811 38.4345 98.5561 38.1658 97.4187 37.6286C96.333 37.1389 95.4192 36.3346 94.7956 35.3199C94.1852 34.3195 93.8803 33.1631 93.8811 31.8508C93.8811 30.2297 94.2497 28.7681 94.987 27.466C95.7074 26.1808 96.7711 25.1213 98.0591 24.4058C99.3706 23.6685 100.864 23.2999 102.54 23.2999C103.957 23.2999 105.191 23.5638 106.241 24.0915C107.258 24.5917 108.104 25.3809 108.673 26.3601C109.246 27.3432 109.532 28.4814 109.533 29.7748C109.526 30.5273 109.446 31.2772 109.292 32.0139V32.0139ZM99.8125 27.3006C99.1201 27.8378 98.6282 28.5803 98.3368 29.5279H105.632C105.632 28.5826 105.336 27.8402 104.743 27.3006C104.151 26.7611 103.354 26.4924 102.353 26.4948C101.351 26.4948 100.504 26.7634 99.8125 27.3006Z" fill="white"/>
<path d="M116.532 33.0241C116.49 33.2218 116.472 33.4236 116.477 33.6255C116.477 34.5708 116.996 35.0434 118.035 35.0434C118.645 35.0302 119.239 34.8508 119.755 34.5247L120.383 37.5566C119.438 38.1403 118.217 38.4317 116.721 38.4309C115.336 38.4309 114.225 38.0666 113.387 37.338C112.55 36.6094 112.131 35.6078 112.13 34.3333C112.137 33.9019 112.183 33.4721 112.267 33.0489L113.442 27.1211H111.174L111.83 23.8422H114.098L114.807 20.2633H119.068L118.36 23.8422H122.022L121.367 27.1211H117.704L116.532 33.0241Z" fill="white"/>
<path d="M140.005 23.5173L137.081 38.2147H133.033L133.306 36.7673C132.086 37.878 130.584 38.4333 128.799 38.4333C127.692 38.4435 126.601 38.171 125.63 37.6417C124.662 37.1112 123.863 36.321 123.321 35.3601C122.748 34.3676 122.462 33.1974 122.461 31.8497C122.461 30.2286 122.82 28.767 123.54 27.4649C124.225 26.1988 125.24 25.1414 126.477 24.4047C127.716 23.6672 129.133 23.2846 130.575 23.2987C132.832 23.2987 134.426 24.0364 135.355 25.5118L135.738 23.5173H140.005ZM132.355 34.2943C133.017 33.8806 133.55 33.2889 133.891 32.587C134.267 31.8035 134.454 30.9427 134.437 30.0738C134.437 29.0718 134.141 28.2794 133.55 27.6965C132.958 27.1136 132.134 26.8225 131.077 26.8233C130.285 26.809 129.506 27.0222 128.832 27.4377C128.172 27.8523 127.642 28.4439 127.303 29.1451C126.926 29.9283 126.738 30.7892 126.756 31.6582C126.756 32.6602 127.052 33.4526 127.644 34.0355C128.237 34.6185 129.061 34.9095 130.116 34.9087C130.904 34.9208 131.679 34.7076 132.349 34.2943H132.355Z" fill="white"/>
<path d="M142.743 38.0103C141.605 37.7275 140.717 37.3584 140.08 36.9031L141.719 33.8169C142.441 34.2719 143.229 34.6127 144.055 34.8271C144.958 35.08 145.891 35.2088 146.828 35.21C147.794 35.21 148.513 35.0871 148.987 34.8413C149.46 34.5956 149.697 34.2446 149.696 33.7886C149.696 33.4246 149.486 33.1608 149.067 32.9969C148.648 32.8331 147.974 32.6602 147.045 32.4782C146.162 32.3213 145.29 32.1022 144.437 31.8224C143.759 31.5879 143.15 31.1889 142.664 30.661C142.163 30.1245 141.913 29.3916 141.913 28.4621C141.913 26.841 142.591 25.5752 143.949 24.6646C145.306 23.754 147.086 23.2987 149.289 23.2987C150.291 23.2965 151.29 23.4063 152.267 23.626C153.126 23.8054 153.954 24.1091 154.726 24.5275L153.19 27.6421C151.988 26.8953 150.541 26.522 148.846 26.522C147.917 26.522 147.212 26.6586 146.729 26.932C146.246 27.2053 146.005 27.5515 146.005 27.9706C146.005 28.3522 146.214 28.6311 146.633 28.7977C147.053 28.9643 147.753 29.1521 148.737 29.3577C149.602 29.5144 150.455 29.7287 151.291 29.9993C151.955 30.2268 152.552 30.6167 153.027 31.1336C153.518 31.6621 153.764 32.3813 153.764 33.2911C153.764 34.9311 153.076 36.197 151.701 37.0887C150.325 37.9803 148.545 38.4266 146.36 38.4274C145.142 38.4357 143.928 38.2956 142.743 38.0103Z" fill="white"/>
<path d="M169.872 24.0904C170.844 24.6185 171.649 25.409 172.194 26.372C172.766 27.3645 173.053 28.5346 173.054 29.8824C173.054 31.5035 172.694 32.9651 171.975 34.2671C171.29 35.5333 170.275 36.5906 169.038 37.3274C167.79 38.0669 166.363 38.4495 164.913 38.4333C162.673 38.4333 161.088 37.7047 160.159 36.2474L158.712 43.5152H154.45L158.437 23.5173H162.48L162.18 24.9647C163.399 23.8541 164.902 23.2987 166.688 23.2987C167.799 23.2898 168.894 23.5622 169.872 24.0904V24.0904ZM166.662 34.2943C167.324 33.8806 167.856 33.2889 168.198 32.587C168.574 31.8035 168.761 30.9427 168.744 30.0738C168.744 29.0718 168.448 28.2794 167.856 27.6965C167.265 27.1136 166.44 26.8225 165.383 26.8233C164.602 26.8125 163.834 27.0257 163.17 27.4377C162.511 27.8523 161.981 28.4439 161.641 29.1451C161.264 29.9283 161.077 30.7892 161.094 31.6583C161.094 32.6602 161.386 33.4527 161.968 34.0356C162.551 34.6185 163.371 34.9095 164.427 34.9087C165.215 34.921 165.991 34.7079 166.662 34.2943V34.2943Z" fill="white"/>
<path d="M192.205 23.5173L189.281 38.2147H185.238L185.511 36.7673C184.29 37.878 182.788 38.4333 181.003 38.4333C179.897 38.4435 178.806 38.171 177.834 37.6417C176.867 37.1112 176.068 36.321 175.526 35.3601C174.952 34.3676 174.666 33.1974 174.666 31.8497C174.666 30.2286 175.025 28.767 175.744 27.4649C176.43 26.1988 177.445 25.1414 178.682 24.4047C179.92 23.6672 181.338 23.2846 182.779 23.2987C185.038 23.2987 186.631 24.0364 187.56 25.5118L187.943 23.5173H192.205ZM184.555 34.2943C185.217 33.8806 185.75 33.2889 186.091 32.587C186.467 31.8035 186.654 30.9427 186.637 30.0738C186.637 29.0718 186.341 28.2794 185.75 27.6965C185.158 27.1136 184.334 26.8225 183.277 26.8233C182.485 26.809 181.706 27.0222 181.032 27.4377C180.372 27.8523 179.842 28.4439 179.503 29.1451C179.126 29.9283 178.938 30.7892 178.956 31.6582C178.956 32.6602 179.252 33.4526 179.844 34.0355C180.437 34.6185 181.261 34.9095 182.316 34.9087C183.106 34.9219 183.883 34.7087 184.555 34.2943V34.2943Z" fill="white"/>
<path d="M197.012 37.6145C195.937 37.1153 195.03 36.3129 194.404 35.3057C193.792 34.3132 193.487 33.1612 193.488 31.8497C193.488 30.2286 193.87 28.7713 194.635 27.4779C195.401 26.1844 196.507 25.1258 197.832 24.4177C199.198 23.6709 200.737 23.2975 202.449 23.2975C204.015 23.2975 205.368 23.6209 206.506 24.2676C207.624 24.8926 208.517 25.8527 209.06 27.0124L205.453 28.8154C204.816 27.4866 203.724 26.8221 202.176 26.8221C201.381 26.81 200.6 27.023 199.921 27.4365C199.254 27.8501 198.715 28.4413 198.364 29.1439C197.982 29.9143 197.789 30.7652 197.804 31.6252C197.804 32.6271 198.105 33.4239 198.707 34.0155C199.309 34.607 200.146 34.9028 201.22 34.9028C202.786 34.9028 203.988 34.2474 204.826 32.9367L207.968 34.9146C207.254 36.031 206.247 36.9301 205.058 37.514C203.789 38.1422 202.39 38.4605 200.974 38.4428C199.462 38.4364 198.141 38.1604 197.012 37.6145Z" fill="white"/>
<path d="M224.878 32.0139H213.623C213.768 34.0162 215.034 35.0178 217.419 35.0186C218.149 35.022 218.875 34.9021 219.565 34.6641C220.22 34.4435 220.827 34.1007 221.354 33.6539L223.126 36.4672C222.289 37.1321 221.334 37.6328 220.311 37.9429C219.232 38.2739 218.109 38.4396 216.979 38.4345C215.467 38.4345 214.142 38.1658 213.004 37.6286C211.918 37.1385 211.005 36.3343 210.382 35.3199C209.77 34.3195 209.465 33.1631 209.466 31.8508C209.466 30.2297 209.835 28.7681 210.573 27.466C211.293 26.1808 212.357 25.1213 213.645 24.4058C214.957 23.6685 216.45 23.2999 218.126 23.2999C219.543 23.2999 220.777 23.5638 221.827 24.0915C222.844 24.5915 223.689 25.3807 224.258 26.3601C224.832 27.3432 225.119 28.4814 225.119 29.7748C225.112 30.5272 225.031 31.2771 224.878 32.0139V32.0139ZM215.399 27.3006C214.706 27.8378 214.214 28.5803 213.923 29.5279H221.217C221.217 28.5826 220.921 27.8402 220.329 27.3006C219.738 26.7611 218.941 26.4924 217.939 26.4948C216.937 26.4948 216.09 26.7634 215.399 27.3006Z" fill="white"/>
<path d="M230.123 37.6145C229.047 37.1153 228.141 36.3129 227.514 35.3057C226.903 34.3132 226.598 33.1612 226.599 31.8497C226.599 30.2286 226.981 28.7713 227.746 27.4779C228.511 26.1844 229.616 25.1258 230.942 24.4177C232.308 23.6709 233.847 23.2975 235.559 23.2975C237.125 23.2975 238.478 23.6209 239.616 24.2676C240.734 24.8922 241.627 25.8524 242.17 27.0124L238.564 28.8154C237.926 27.4866 236.834 26.8221 235.287 26.8221C234.492 26.8099 233.71 27.0229 233.032 27.4365C232.364 27.8497 231.825 28.441 231.475 29.1439C231.092 29.9143 230.9 30.7652 230.915 31.6252C230.915 32.6271 231.215 33.4239 231.816 34.0155C232.417 34.607 233.255 34.9028 234.329 34.9028C235.896 34.9028 237.098 34.2474 237.936 32.9367L241.077 34.9028C240.364 36.0191 239.358 36.9183 238.168 37.5022C236.899 38.1304 235.5 38.4487 234.084 38.4309C232.569 38.4325 231.249 38.1604 230.123 37.6145Z" fill="white"/>
<path d="M259.764 23.5173L249.984 39.1989C248.928 40.9098 247.904 42.0914 246.912 42.7436C245.92 43.3958 244.705 43.7239 243.266 43.7278C242.5 43.7278 241.74 43.6082 241.011 43.3734C240.274 43.1371 239.696 42.8275 239.277 42.4447L241.244 39.3844C241.88 39.9783 242.723 40.3016 243.593 40.286C244.096 40.2977 244.591 40.155 245.011 39.8772C245.41 39.603 245.82 39.1383 246.24 38.4829L246.377 38.2372L242.989 23.5126H247.251L249.436 33.5109L255.555 23.5126L259.764 23.5173Z" fill="white"/>
<path d="M93.3566 19.3275L89.5591 38.451H85.4059L87.6509 27.0868L80.3571 36.4293H78.3851L74.4517 26.9769L72.1559 38.451H68.0039L71.8286 19.3275H75.4347L80.2177 31.2387L89.5614 19.3275H93.3566Z" fill="#001B33"/>
<path d="M109.528 32.2502H98.273C98.4187 34.2525 99.6845 35.2541 102.071 35.2549C102.8 35.2583 103.525 35.1384 104.215 34.9004C104.87 34.6801 105.477 34.3373 106.004 33.8902L107.776 36.7035C106.94 37.3687 105.986 37.8694 104.963 38.1793C103.883 38.5102 102.759 38.6759 101.63 38.6708C100.117 38.6708 98.7925 38.4022 97.655 37.865C96.5693 37.3752 95.6555 36.571 95.032 35.5562C94.4215 34.5558 94.1166 33.3994 94.1174 32.0871C94.1174 30.466 94.4861 29.0044 95.2234 27.7024C95.9438 26.4171 97.0074 25.3576 98.2954 24.6421C99.607 23.9049 101.1 23.5362 102.776 23.5362C104.194 23.5362 105.428 23.8001 106.478 24.3278C107.494 24.8281 108.34 25.6173 108.909 26.5964C109.482 27.5795 109.769 28.7177 109.77 30.0111C109.763 30.7636 109.682 31.5135 109.528 32.2502V32.2502ZM100.049 27.537C99.3565 28.0742 98.8645 28.8166 98.5731 29.7642H105.868C105.868 28.819 105.572 28.0765 104.979 27.537C104.387 26.9974 103.59 26.7288 102.589 26.7311C101.587 26.7311 100.74 26.9997 100.049 27.537Z" fill="#001B33"/>
<path d="M116.768 33.2605C116.726 33.4581 116.708 33.66 116.714 33.8619C116.714 34.8071 117.233 35.2797 118.271 35.2797C118.881 35.2665 119.476 35.0872 119.991 34.761L120.62 37.7929C119.675 38.3766 118.454 38.6681 116.957 38.6673C115.572 38.6673 114.461 38.303 113.624 37.5743C112.786 36.8457 112.367 35.8441 112.367 34.5696C112.374 34.1383 112.42 33.7084 112.504 33.2853L113.678 27.3574H111.411L112.067 24.0786H114.334L115.043 20.4996H119.305L118.596 24.0786H122.259L121.603 27.3574H117.94L116.768 33.2605Z" fill="#001B33"/>
<path d="M140.241 23.7536L137.318 38.451H133.27L133.543 37.0036C132.322 38.1143 130.82 38.6696 129.035 38.6696C127.928 38.6798 126.838 38.4074 125.866 37.878C124.899 37.3476 124.099 36.5573 123.557 35.5964C122.985 34.6039 122.698 33.4338 122.697 32.086C122.697 30.4649 123.057 29.0033 123.776 27.7012C124.461 26.4351 125.476 25.3777 126.713 24.641C127.952 23.9036 129.369 23.5209 130.811 23.535C133.068 23.535 134.662 24.2727 135.591 25.7481L135.974 23.7536H140.241ZM132.591 34.5306C133.253 34.1169 133.786 33.5253 134.127 32.8233C134.504 32.0398 134.69 31.179 134.673 30.3101C134.673 29.3089 134.378 28.5165 133.786 27.9328C133.194 27.3491 132.37 27.0581 131.313 27.0596C130.521 27.0453 129.742 27.2585 129.068 27.674C128.408 28.0886 127.879 28.6803 127.539 29.3814C127.162 30.1646 126.975 31.0255 126.992 31.8946C126.992 32.8965 127.288 33.689 127.881 34.2719C128.473 34.8548 129.297 35.1458 130.352 35.145C131.14 35.1571 131.915 34.944 132.585 34.5306H132.591Z" fill="#001B33"/>
<path d="M142.98 38.2466C141.842 37.9638 140.954 37.5948 140.317 37.1395L141.955 34.0532C142.677 34.5083 143.465 34.849 144.291 35.0635C145.194 35.3164 146.127 35.4452 147.064 35.4463C148.03 35.4463 148.75 35.3234 149.223 35.0777C149.697 34.8319 149.933 34.4814 149.932 34.0261C149.932 33.6614 149.723 33.3971 149.303 33.2332C148.884 33.0694 148.211 32.8965 147.282 32.7145C146.398 32.5576 145.526 32.3385 144.673 32.0588C143.995 31.8243 143.386 31.4252 142.901 30.8973C142.4 30.3609 142.149 29.6279 142.149 28.6984C142.149 27.0773 142.828 25.8115 144.185 24.9009C145.542 23.9903 147.322 23.535 149.526 23.535C150.527 23.5328 151.526 23.6426 152.503 23.8623C153.362 24.0417 154.19 24.3454 154.962 24.7638L153.426 27.8784C152.225 27.1317 150.777 26.7583 149.083 26.7583C148.154 26.7583 147.448 26.895 146.965 27.1683C146.482 27.4416 146.241 27.7878 146.241 28.2069C146.241 28.5885 146.45 28.8674 146.869 29.034C147.289 29.2006 147.99 29.3884 148.974 29.594C149.838 29.7507 150.691 29.9651 151.527 30.2356C152.191 30.4632 152.788 30.8531 153.263 31.3699C153.754 31.8985 154 32.6177 154 33.5275C154 35.1675 153.312 36.4333 151.937 37.325C150.562 38.2167 148.782 38.6629 146.597 38.6637C145.378 38.672 144.164 38.532 142.98 38.2466V38.2466Z" fill="#001B33"/>
<path d="M170.108 24.3267C171.081 24.8548 171.885 25.6453 172.43 26.6082C173.003 27.6007 173.289 28.7709 173.29 30.1187C173.29 31.7398 172.931 33.2013 172.211 34.5034C171.526 35.7696 170.511 36.8269 169.274 37.5637C168.026 38.3032 166.6 38.6858 165.149 38.6696C162.909 38.6696 161.325 37.941 160.396 36.4837L158.948 43.7515H154.687L158.673 23.7536H162.716L162.416 25.201C163.636 24.0903 165.138 23.535 166.924 23.535C168.035 23.5261 169.131 23.7985 170.108 24.3267V24.3267ZM166.898 34.5306C167.56 34.1169 168.092 33.5252 168.434 32.8232C168.81 32.0398 168.997 31.179 168.98 30.3101C168.98 29.3089 168.684 28.5165 168.092 27.9328C167.501 27.3491 166.677 27.058 165.619 27.0596C164.838 27.0488 164.07 27.262 163.406 27.674C162.747 28.0886 162.217 28.6802 161.877 29.3814C161.5 30.1646 161.313 31.0255 161.33 31.8945C161.33 32.8965 161.622 33.6889 162.205 34.2718C162.788 34.8547 163.607 35.1458 164.664 35.145C165.452 35.1573 166.227 34.9441 166.898 34.5306V34.5306Z" fill="#001B33"/>
<path d="M192.441 23.7536L189.518 38.451H185.474L185.747 37.0036C184.526 38.1143 183.024 38.6696 181.24 38.6696C180.133 38.6798 179.042 38.4074 178.071 37.878C177.104 37.3476 176.304 36.5573 175.762 35.5964C175.189 34.6039 174.902 33.4338 174.902 32.086C174.902 30.4649 175.261 29.0033 175.981 27.7012C176.666 26.4351 177.681 25.3777 178.918 24.641C180.157 23.9036 181.574 23.5209 183.016 23.535C185.274 23.535 186.867 24.2727 187.796 25.7481L188.179 23.7536H192.441ZM184.792 34.5306C185.454 34.1169 185.986 33.5253 186.328 32.8233C186.704 32.0398 186.891 31.179 186.873 30.3101C186.873 29.3089 186.578 28.5165 185.986 27.9328C185.394 27.3491 184.57 27.0581 183.513 27.0596C182.721 27.0453 181.942 27.2585 181.268 27.674C180.609 28.0886 180.079 28.6803 179.739 29.3814C179.362 30.1646 179.175 31.0255 179.192 31.8946C179.192 32.8965 179.488 33.689 180.081 34.2719C180.673 34.8548 181.497 35.1458 182.552 35.145C183.342 35.1582 184.119 34.945 184.792 34.5306V34.5306Z" fill="#001B33"/>
<path d="M197.249 37.8507C196.173 37.3516 195.266 36.5492 194.64 35.542C194.029 34.5495 193.723 33.3975 193.724 32.0859C193.724 30.4648 194.107 29.0076 194.871 27.7142C195.637 26.4206 196.743 25.3621 198.069 24.6539C199.435 23.9072 200.973 23.5338 202.685 23.5338C204.252 23.5338 205.604 23.8572 206.743 24.5039C207.86 25.1289 208.753 26.0889 209.296 27.2486L205.69 29.0517C205.053 27.7228 203.96 27.0584 202.412 27.0584C201.618 27.0463 200.836 27.2593 200.158 27.6728C199.49 28.0863 198.951 28.6775 198.6 29.3802C198.218 30.1505 198.026 31.0014 198.04 31.8614C198.04 32.8634 198.341 33.6602 198.943 34.2517C199.545 34.8433 200.383 35.1391 201.456 35.1391C203.022 35.1391 204.224 34.4837 205.062 33.173L208.204 35.1509C207.49 36.2673 206.484 37.1664 205.294 37.7503C204.025 38.3785 202.626 38.6968 201.21 38.679C199.698 38.6727 198.377 38.3966 197.249 37.8507Z" fill="#001B33"/>
<path d="M225.114 32.2502H213.859C214.005 34.2525 215.27 35.2541 217.656 35.2549C218.386 35.2582 219.111 35.1384 219.801 34.9004C220.456 34.6798 221.063 34.337 221.59 33.8902L223.362 36.7035C222.525 37.3684 221.57 37.8692 220.548 38.1793C219.468 38.5102 218.345 38.6759 217.216 38.6708C215.703 38.6708 214.378 38.4022 213.24 37.865C212.155 37.3749 211.241 36.5706 210.618 35.5562C210.007 34.5558 209.701 33.3994 209.702 32.0871C209.702 30.466 210.071 29.0044 210.809 27.7024C211.53 26.4171 212.593 25.3576 213.881 24.6421C215.193 23.9049 216.686 23.5362 218.362 23.5362C219.78 23.5362 221.014 23.8001 222.064 24.3278C223.08 24.8278 223.925 25.6171 224.494 26.5964C225.068 27.5795 225.355 28.7177 225.355 30.0111C225.348 30.7635 225.267 31.5134 225.114 32.2502V32.2502ZM215.635 27.537C214.942 28.0742 214.45 28.8166 214.159 29.7642H221.453C221.453 28.819 221.157 28.0765 220.565 27.537C219.974 26.9974 219.177 26.7288 218.175 26.7311C217.173 26.7311 216.326 26.9997 215.635 27.537Z" fill="#001B33"/>
<path d="M230.359 37.8507C229.284 37.3516 228.377 36.5492 227.751 35.542C227.139 34.5495 226.834 33.3975 226.835 32.0859C226.835 30.4648 227.217 29.0076 227.982 27.7142C228.747 26.4207 229.853 25.3621 231.178 24.6539C232.544 23.9072 234.083 23.5338 235.796 23.5338C237.362 23.5338 238.714 23.8572 239.852 24.5039C240.97 25.1285 241.864 26.0886 242.407 27.2486L238.8 29.0517C238.162 27.7228 237.07 27.0584 235.523 27.0584C234.728 27.0462 233.947 27.2592 233.268 27.6728C232.601 28.086 232.061 28.6773 231.711 29.3802C231.329 30.1505 231.137 31.0014 231.151 31.8614C231.151 32.8634 231.452 33.6602 232.053 34.2517C232.654 34.8433 233.491 35.1391 234.566 35.1391C236.133 35.1391 237.335 34.4837 238.172 33.173L241.314 35.1391C240.6 36.2554 239.594 37.1545 238.405 37.7385C237.136 38.3667 235.736 38.685 234.32 38.6672C232.805 38.6688 231.485 38.3966 230.359 37.8507Z" fill="#001B33"/>
<path d="M260 23.7536L250.22 39.4353C249.164 41.1462 248.14 42.3277 247.148 42.9799C246.156 43.6322 244.941 43.9602 243.502 43.9642C242.737 43.9641 241.976 43.8445 241.247 43.6097C240.51 43.3734 239.932 43.0638 239.513 42.681L241.48 39.6208C242.117 40.2147 242.959 40.5379 243.829 40.5223C244.332 40.534 244.827 40.3914 245.247 40.1135C245.646 39.8394 246.056 39.3746 246.476 38.7192L246.613 38.4735L243.225 23.7489H247.487L249.672 33.7472L255.791 23.7489L260 23.7536Z" fill="#001B33"/>
<path opacity="0.6" d="M52.1072 13.9538L51.9713 13.7789C42.5543 2.10036 25.4512 0.266581 13.7727 9.6836C2.29856 18.9352 0.29582 35.6495 9.25912 47.3505C9.31111 47.4202 9.36428 47.4864 9.41863 47.5514L9.43163 47.5691C18.812 59.2783 35.908 61.1665 47.6172 51.7861C59.1965 42.512 61.191 25.6654 52.1072 13.9408V13.9538ZM54.1052 43.6581C52.9122 45.8014 51.4309 47.7709 49.7027 49.5116L49.5467 49.6663C39.0474 60.0711 22.1027 59.9944 11.6979 49.495C1.37104 39.0749 1.35804 22.2814 11.6695 11.8459L11.6849 11.8329C11.7428 11.7726 11.803 11.7147 11.8645 11.6533C22.3579 1.24373 39.3026 1.31109 49.7133 11.8045C53.7976 15.9214 56.4341 21.2535 57.2262 26.9982C58.0183 32.743 56.923 38.5896 54.1052 43.6581V43.6581Z" fill="#001B33"/>
<path opacity="0.3" d="M55.0339 11.7832C54.9843 11.7171 54.9299 11.6521 54.8779 11.5847C44.2628 -1.71015 24.8793 -3.88186 11.5856 6.73326C-1.56865 17.2361 -3.85615 36.3514 6.44586 49.6616L6.62782 49.8897L6.64081 49.9074C17.2985 63.168 36.6878 65.2783 49.9485 54.6206C63.0271 44.1095 65.2886 25.0651 55.0339 11.7832ZM57.3013 45.4576C55.9485 47.8898 54.268 50.1245 52.3069 52.0992C52.249 52.1594 52.1887 52.2173 52.1344 52.2741C40.2916 64.1345 21.0747 64.1487 9.21425 52.306C-2.64624 40.4632 -2.66041 21.2463 9.18353 9.38468L9.20007 9.36932C9.26505 9.29843 9.33358 9.23225 9.4033 9.15427C21.3004 -2.65895 40.5173 -2.59041 52.3329 9.3067C56.9727 13.9805 59.9668 20.0365 60.8632 26.561C61.7597 33.0855 60.5099 39.7246 57.3025 45.4766L57.3013 45.4576Z" fill="#001B33"/>
<path fill-rule="evenodd" clip-rule="evenodd" d="M54.6806 30.7035C54.6832 34.7951 53.6383 38.8192 51.6453 42.3926C49.6523 45.966 46.7776 48.9696 43.2951 51.1173L43.2277 51.1575C41.7415 52.0723 40.1589 52.8204 38.5086 53.3883C38.1116 53.5241 37.7099 53.6541 37.3093 53.7628C36.858 53.8928 36.4078 54.0062 35.9482 54.109C35.8761 54.1232 35.8087 54.1409 35.7355 54.1551C35.7355 54.1551 35.7272 54.1551 35.7225 54.1551C34.0767 54.5078 32.3982 54.6849 30.715 54.6833C29.6551 54.6836 28.5964 54.6126 27.5461 54.4706C27.4563 54.4576 27.3665 54.4481 27.2767 54.4304C26.2333 54.2862 25.2013 54.0695 24.1881 53.7817C23.7828 53.6636 23.3823 53.5454 22.99 53.4024C22.9628 53.3942 22.9404 53.3847 22.9132 53.3753C22.3047 53.1732 21.7045 52.9381 21.1196 52.677C21.1034 52.6714 21.0879 52.6639 21.0735 52.6545L19.3662 51.8274C18.929 51.5911 18.5001 51.3454 18.0771 51.0795C17.6541 50.8137 17.2382 50.5384 16.8376 50.2524C16.4371 49.9665 16.0354 49.6616 15.6561 49.3509C15.5379 49.2469 15.4127 49.1477 15.2957 49.0484C14.0054 47.9642 12.8352 46.7445 11.8054 45.4104C11.803 45.4101 11.8007 45.4091 11.799 45.4073C11.7973 45.4056 11.7962 45.4034 11.7959 45.4009C11.5431 45.0855 11.3091 44.7617 11.087 44.4368C10.4934 43.5867 9.95625 42.6986 9.47889 41.7783C9.33828 41.5112 9.20358 41.2418 9.07243 40.9665C9.02281 40.8626 8.97791 40.7551 8.92828 40.6463C8.53222 39.7897 8.19085 38.9089 7.90623 38.0091C7.90212 37.997 7.89739 37.9852 7.89205 37.9737C7.14932 35.6263 6.77232 33.1786 6.7743 30.7165C6.7743 17.4701 17.4745 6.7309 30.7127 6.7309C43.9508 6.7309 54.6806 17.4606 54.6806 30.7035Z" fill="#001B33"/>
<path d="M32.8679 30.108C32.9177 30.1903 32.94 30.2863 32.9317 30.3822C32.9256 30.4747 32.8989 30.5647 32.8537 30.6456C32.8099 30.727 32.749 30.7979 32.6753 30.8536C32.6009 30.9134 32.5095 30.9481 32.4142 30.9528C32.4484 30.8607 32.4827 30.7886 32.5158 30.7165C32.5489 30.6445 32.5831 30.5807 32.6186 30.5169C32.654 30.4531 32.6895 30.3893 32.7297 30.3231C32.7698 30.2569 32.81 30.1884 32.8679 30.108Z" fill="white"/>
<path d="M31.808 29.9923C31.9143 29.8063 31.9973 29.6078 32.0549 29.4015C32.0919 29.2863 32.1426 29.176 32.2062 29.073C32.2244 29.0449 32.2446 29.0181 32.2664 28.9927L32.283 28.9726C32.2901 28.9655 32.2948 28.9584 32.2924 28.9596C32.2901 28.9608 32.2924 28.9596 32.2924 28.9596C32.2924 28.9596 32.2924 28.9478 32.2983 28.9419C32.3042 28.9359 32.2983 28.9194 32.2983 28.9029C32.2948 28.819 32.2784 28.7361 32.2499 28.6571C32.2192 28.5649 32.1814 28.4704 32.1412 28.3747C32.0585 28.1821 31.9651 27.9895 31.8659 27.7839C32.0794 27.8824 32.2662 28.0307 32.4106 28.2164C32.4852 28.3104 32.5494 28.4122 32.602 28.52C32.663 28.6425 32.6965 28.7768 32.7001 28.9135C32.6988 28.9552 32.6937 28.9968 32.6847 29.0376C32.6728 29.0845 32.654 29.1295 32.6292 29.1711C32.6138 29.1924 32.5984 29.2136 32.5819 29.2325C32.5769 29.2396 32.5709 29.246 32.5642 29.2514L32.5535 29.2632C32.5382 29.2762 32.5252 29.294 32.5098 29.3093C32.447 29.3875 32.3886 29.4692 32.335 29.5539C32.2168 29.7229 32.0384 29.9273 31.808 29.9923Z" fill="white"/>
<path d="M38.2995 35.9839C38.2652 36.0843 38.244 36.1907 38.2014 36.2911C38.154 36.3946 38.097 36.4935 38.0313 36.5865C37.9917 36.6425 37.9584 36.7028 37.932 36.7661C37.9225 36.7905 37.9158 36.8158 37.912 36.8417C37.9106 36.8606 37.9106 36.8796 37.912 36.8984C37.9137 36.9277 37.9189 36.9566 37.9273 36.9847C37.939 37.0166 37.9549 37.0468 37.9746 37.0745C37.9818 37.0852 37.9897 37.0955 37.9982 37.1052L38.0171 37.1253C38.0276 37.1376 38.0391 37.1491 38.0514 37.1596L38.0821 37.1844C38.1367 37.2296 38.1957 37.2692 38.2582 37.3025C38.3101 37.3309 38.3586 37.351 38.4047 37.3734L38.6481 37.4727C38.6787 37.4844 38.7045 37.5063 38.721 37.5347C38.7376 37.563 38.7439 37.5962 38.7391 37.6286L38.7225 37.7881L38.68 38.1131C38.6481 38.3305 38.6126 38.5514 38.5748 38.7724C38.5654 38.8279 38.5595 38.8834 38.5476 38.9449C38.5358 39.0063 38.5181 39.063 38.5075 39.1328C38.4933 39.2021 38.4933 39.2737 38.5075 39.3431C38.5237 39.414 38.5552 39.4805 38.5996 39.538C38.6754 39.6392 38.7667 39.7278 38.8702 39.8003C38.96 39.8689 39.0439 39.9291 39.1219 39.9953C39.2824 40.1348 39.411 40.3073 39.4988 40.501C39.51 40.2637 39.4431 40.0292 39.3086 39.8334C39.1774 39.6326 38.9919 39.479 38.9257 39.3336L38.8808 39.2297C38.8609 39.1913 38.8432 39.1518 38.8277 39.1115C38.8089 39.067 38.7997 39.0191 38.8005 38.9709C38.8058 38.9194 38.8153 38.8684 38.8289 38.8185C38.8822 38.6065 38.9477 38.3978 39.025 38.1934C39.0628 38.0894 39.1006 37.9843 39.1361 37.8768L39.188 37.7137L39.2117 37.631L39.2176 37.6097L39.2247 37.5755C39.2295 37.5506 39.2319 37.5252 39.2318 37.4998C39.2337 37.3955 39.2063 37.2928 39.1526 37.2033C39.1089 37.1297 39.0543 37.0632 38.9907 37.0059C38.8906 36.9175 38.7769 36.8457 38.654 36.7933C38.5996 36.772 38.5465 36.7507 38.4968 36.7354C38.4472 36.72 38.4236 36.7141 38.3976 36.7094C38.4045 36.6016 38.4267 36.4954 38.4637 36.3939C38.5039 36.2899 38.55 36.1883 38.5996 36.0843C38.655 35.9753 38.7043 35.8633 38.7473 35.7488C38.7473 35.7334 38.758 35.7169 38.7627 35.6992C38.7695 35.6788 38.7743 35.6578 38.7769 35.6365C38.7842 35.5805 38.781 35.5236 38.7674 35.4687C38.7417 35.3713 38.6931 35.2813 38.6256 35.2064C38.5375 35.1083 38.4379 35.021 38.3291 34.9465L38.0927 34.7811C38.0303 34.7361 37.9736 34.6837 37.9238 34.6251C37.8793 34.575 37.8448 34.5168 37.8222 34.4538C37.791 34.3746 37.7672 34.2928 37.7513 34.2092C37.7442 34.1761 37.7418 34.1525 37.7395 34.136C37.7392 34.1176 37.7432 34.0993 37.7513 34.0828C37.8006 33.9992 37.8571 33.9202 37.9202 33.8465C37.9948 33.7511 38.0635 33.6513 38.1258 33.5475C38.1884 33.4436 38.244 33.3419 38.2971 33.2356C38.3523 33.1282 38.4005 33.0173 38.4413 32.9036C38.5343 32.658 38.5726 32.3951 38.5535 32.1332C38.522 31.8591 38.4139 31.5995 38.2416 31.3841C38.1628 31.2837 38.0737 31.1918 37.9758 31.11C37.9279 31.0679 37.8778 31.0284 37.8257 30.9918C37.7737 30.9552 37.7217 30.9221 37.6709 30.8902C37.4689 30.772 37.2704 30.661 37.0719 30.557C36.6737 30.3514 36.2731 30.1671 35.8761 29.9804C35.4791 29.7937 35.0798 29.6153 34.7064 29.418C34.6142 29.3684 34.5233 29.3176 34.4417 29.2667C34.4004 29.2407 34.3626 29.2148 34.3307 29.1911L34.294 29.1616C34.2858 29.1545 34.2846 29.1486 34.294 29.171C34.3035 29.1935 34.294 29.171 34.294 29.171C34.2896 29.1642 34.2844 29.1579 34.2787 29.1521C34.2635 29.1364 34.2497 29.1194 34.2373 29.1013C34.2123 29.0596 34.1921 29.0152 34.1771 28.969C34.144 28.8709 34.1062 28.7681 34.0778 28.6618C34.0302 28.4442 33.9951 28.2241 33.9726 28.0025C33.9429 27.7688 33.8939 27.538 33.8261 27.3125C33.8037 27.2522 33.7871 27.1943 33.7576 27.1317L33.7151 27.0419C33.6948 27.0062 33.6723 26.9719 33.6477 26.9391C33.559 26.8264 33.4524 26.729 33.3322 26.6508C33.1277 26.5182 32.9085 26.4099 32.6788 26.3282C32.4638 26.2455 32.2452 26.1841 32.0443 26.1262L31.9026 26.0824C31.8681 26.0725 31.8341 26.0607 31.8009 26.047C31.8009 26.047 31.8009 26.047 31.8009 26.047L31.7797 26.034C31.7655 26.0257 31.7478 26.0104 31.7312 25.9997L31.619 25.9111C31.3035 25.6465 30.91 25.3298 30.4315 25.2365C30.6361 25.6381 30.8766 26.0206 31.1499 26.379C31.1877 26.4239 31.2291 26.4712 31.2763 26.5173C31.3023 26.5409 31.3248 26.5633 31.3555 26.5882L31.4004 26.6236C31.4212 26.639 31.4429 26.6532 31.4654 26.6661C31.5302 26.7025 31.5978 26.7337 31.6674 26.7595C31.7265 26.7819 31.7856 26.7997 31.8388 26.8174C32.0585 26.8859 32.2653 26.9355 32.4685 26.9922C32.66 27.04 32.8476 27.102 33.0298 27.1778C33.1013 27.2073 33.1682 27.2471 33.2283 27.2959C33.2393 27.3048 33.2496 27.3147 33.259 27.3255L33.2956 27.3786C33.3214 27.4167 33.345 27.4561 33.3665 27.4968C33.455 27.6813 33.5201 27.8762 33.5603 28.0769C33.6124 28.2884 33.6441 28.5045 33.6548 28.722C33.6548 28.8331 33.6548 28.9477 33.6607 29.0659L33.6737 29.2549C33.6729 29.2905 33.6748 29.326 33.6796 29.3613C33.6796 29.3814 33.6891 29.4014 33.6938 29.4204C33.7016 29.4459 33.7123 29.4705 33.7257 29.4936C33.7544 29.5445 33.7902 29.5911 33.832 29.6319C33.8639 29.6626 33.8923 29.6874 33.9195 29.7098C33.975 29.7547 34.027 29.7914 34.0778 29.828C34.1806 29.8965 34.2799 29.9556 34.3803 30.0135C34.7785 30.238 35.1743 30.4329 35.5701 30.6291L36.7517 31.1986C36.9443 31.2931 37.1369 31.3912 37.3117 31.4928C37.3543 31.5176 37.3956 31.5436 37.4299 31.5696L37.548 31.6488C37.6248 31.7067 37.6993 31.7669 37.7654 31.8225C37.8995 31.9262 38.0018 32.0653 38.0608 32.2242C38.1098 32.3982 38.096 32.5839 38.0218 32.7488C37.9471 32.9348 37.846 33.1091 37.7217 33.2663C37.6575 33.3428 37.5889 33.4154 37.5161 33.4837C37.4221 33.5652 37.3351 33.6545 37.2562 33.7508C37.2023 33.8253 37.1623 33.909 37.138 33.9977C37.1177 34.0808 37.1082 34.1662 37.1097 34.2517C37.1163 34.3873 37.1365 34.5219 37.1699 34.6535C37.2114 34.8011 37.2799 34.9397 37.372 35.0623C37.4608 35.1746 37.5655 35.2733 37.6827 35.3553C37.7827 35.4272 37.89 35.4883 38.0029 35.5373C38.0029 35.5373 38.1046 35.5916 38.2074 35.6389C38.2723 35.6814 38.3657 35.7854 38.2995 35.9839Z" fill="white"/>
<path d="M26.4709 33.0962C27.0216 30.0147 30.8782 18.719 30.8782 18.719C31.2303 18.8263 31.5762 18.9529 31.9144 19.0983C31.2385 20.5102 27.7399 29.4865 26.4709 33.0962Z" fill="white"/>
<path d="M37.6177 23.6981C40.2897 26.3676 42.0186 29.8354 42.5425 33.5759C42.8284 35.5964 42.8402 37.5353 42.4858 39.4116C43.0144 37.3393 43.1455 35.1855 42.8721 33.0643C42.1065 27.0383 37.9415 22.0474 32.6788 19.4634C32.6174 19.6323 32.5382 19.8368 32.4579 20.0542C33.6981 20.637 34.8663 21.3622 35.9388 22.2152C35.9388 22.2152 37.2739 23.3448 37.6177 23.6981Z" fill="white"/>
<path d="M34.8978 43.1784C34.4004 42.9693 31.6225 41.77 29.7308 40.3427C29.7899 40.1525 29.8395 39.9587 29.8797 39.7637C32.0148 41.2809 34.8789 42.4589 35.0089 42.512L35.0821 42.5416H35.1613C39.1479 42.5416 42.6335 40.8874 42.78 40.8165L42.878 40.7692C42.888 40.9329 42.8399 41.0948 42.7422 41.2265C41.6906 41.8988 38.8501 43.0532 34.8978 43.1784Z" fill="white" stroke="#FDFEFF" stroke-width="0.09375" stroke-miterlimit="10"/>
<path d="M43.2278 51.1575C41.7415 52.0723 40.1589 52.8204 38.5086 53.3883C38.1116 53.5241 37.7099 53.6541 37.3094 53.7628C36.858 53.8928 36.4078 54.0062 35.9482 54.109C35.8761 54.1232 35.8088 54.1409 35.7355 54.1551C37.2122 53.6713 38.6412 53.0527 40.0045 52.3071L39.8379 50.7711C36.8131 52.2315 31.6296 53.5383 27.2767 54.4339C26.2334 54.2897 25.2014 54.073 24.1882 53.7853C23.7829 53.6671 23.3823 53.549 22.9901 53.406C22.9629 53.3977 22.9404 53.3883 22.9132 53.3788C28.8045 52.4336 36.949 50.7522 40.9509 48.4978L40.8387 47.5065C36.1597 50.1437 27.1042 51.8014 21.0736 52.6581L19.3662 51.831C25.352 51.2177 35.9529 49.586 42.9974 45.4801C42.6152 46.2458 42.3507 47.0648 42.2128 47.9094C42.0533 48.8227 42.6051 50.1969 43.2278 51.1575Z" fill="white"/>
<path d="M30.1893 9.00183C30.1602 9.00478 30.132 9.01347 30.1063 9.02739C30.0806 9.04131 30.0579 9.06019 30.0396 9.08294C30.0212 9.10568 30.0076 9.13185 29.9994 9.15991C29.9912 9.18798 29.9887 9.21738 29.992 9.24642C29.9943 9.27417 30.0023 9.30114 30.0156 9.32559C30.0363 9.36523 30.0684 9.39772 30.1078 9.4188C30.1473 9.43988 30.1921 9.44857 30.2366 9.44375C30.2552 9.4418 30.2735 9.43742 30.2909 9.43074C30.3381 9.41333 30.3781 9.38058 30.4045 9.33772C30.4308 9.29487 30.442 9.24441 30.4363 9.19443C30.4283 9.13648 30.398 9.08394 30.3519 9.04797C30.3058 9.012 30.2474 8.99544 30.1893 9.00183V9.00183Z" fill="white"/>
<path d="M44.4992 23.0246C44.448 23.0299 44.3984 23.0452 44.3532 23.0697C44.308 23.0942 44.2681 23.1274 44.2357 23.1673C44.2033 23.2073 44.1791 23.2532 44.1645 23.3025C44.1499 23.3518 44.1452 23.4035 44.1506 23.4547C44.1561 23.5028 44.1701 23.5497 44.192 23.5929C44.228 23.6631 44.2844 23.7207 44.3538 23.7583C44.4231 23.7958 44.5022 23.8115 44.5807 23.8032C44.6135 23.8001 44.6457 23.7925 44.6764 23.7808C44.7581 23.7505 44.8275 23.6939 44.8735 23.6199C44.9195 23.5459 44.9395 23.4586 44.9304 23.372C44.925 23.3208 44.9095 23.2712 44.8849 23.2261C44.8602 23.1809 44.8269 23.1411 44.7869 23.1088C44.7468 23.0765 44.7008 23.0525 44.6514 23.038C44.602 23.0236 44.5503 23.019 44.4992 23.0246V23.0246Z" fill="white"/>
<path d="M35.1093 15.6706C35.0576 15.6752 35.0074 15.69 34.9615 15.7142C34.9156 15.7383 34.875 15.7714 34.842 15.8114C34.809 15.8514 34.7843 15.8976 34.7693 15.9473C34.7544 15.997 34.7494 16.0491 34.7548 16.1007C34.7601 16.149 34.7745 16.1959 34.7973 16.2389C34.8334 16.3091 34.8898 16.3667 34.9591 16.4043C35.0285 16.4418 35.1076 16.4575 35.1861 16.4492C35.2184 16.4461 35.2503 16.4386 35.2806 16.4268C35.3624 16.3967 35.4319 16.3402 35.4779 16.2661C35.524 16.192 35.5439 16.1047 35.5346 16.018C35.5236 15.9158 35.4728 15.8221 35.3932 15.7571C35.3136 15.6921 35.2116 15.661 35.1093 15.6706Z" fill="white"/>
<path d="M20.1247 21.6161C20.0736 21.6214 20.024 21.6368 19.9789 21.6613C19.9337 21.6858 19.8939 21.719 19.8616 21.759C19.8293 21.7989 19.8053 21.8449 19.7908 21.8942C19.7763 21.9435 19.7718 21.9952 19.7773 22.0462C19.7817 22.0946 19.7958 22.1416 19.8187 22.1845C19.8547 22.2546 19.9111 22.3123 19.9805 22.3498C20.0499 22.3873 20.129 22.403 20.2074 22.3948C20.2402 22.3915 20.2723 22.384 20.3031 22.3723C20.3847 22.3419 20.454 22.2853 20.4999 22.2113C20.5459 22.1373 20.566 22.0502 20.5572 21.9635C20.5459 21.8601 20.494 21.7654 20.4129 21.7003C20.3318 21.6351 20.2281 21.6049 20.1247 21.6161V21.6161Z" fill="white" stroke="white" stroke-width="0.09375" stroke-miterlimit="10"/>
<path d="M47.7354 34.4715C47.6553 34.4802 47.5818 34.5202 47.5311 34.5829C47.4804 34.6455 47.4566 34.7257 47.4649 34.8059C47.4685 34.8435 47.4793 34.88 47.4968 34.9134C47.525 34.9679 47.5689 35.0126 47.6228 35.0416C47.6768 35.0707 47.7383 35.0829 47.7993 35.0765C47.8248 35.0741 47.8498 35.0681 47.8737 35.0588C47.937 35.0353 47.9907 34.9915 48.0265 34.9341C48.0622 34.8768 48.0778 34.8093 48.071 34.7421C48.0621 34.6619 48.0218 34.5884 47.959 34.5377C47.8961 34.487 47.8158 34.4632 47.7354 34.4715V34.4715Z" fill="white"/>
<path d="M49.9059 28.663C49.8489 28.669 49.7965 28.6971 49.7601 28.7413C49.7236 28.7855 49.7059 28.8423 49.7109 28.8993C49.7133 28.9262 49.7209 28.9522 49.7334 28.9761C49.7535 29.0154 49.7851 29.0476 49.8238 29.0687C49.8626 29.0898 49.9068 29.0987 49.9508 29.0943C49.9694 29.0923 49.9876 29.088 50.0051 29.0813C50.0507 29.0645 50.0895 29.0329 50.1151 28.9916C50.1408 28.9503 50.152 28.9016 50.1469 28.8533C50.1395 28.7964 50.1102 28.7446 50.0651 28.7091C50.0201 28.6735 49.9629 28.657 49.9059 28.663V28.663Z" fill="white"/>
<path d="M48.5271 19.9845C48.4854 19.989 48.4472 20.0097 48.4209 20.0423C48.3945 20.0748 48.3822 20.1165 48.3865 20.1582C48.3882 20.178 48.3938 20.1973 48.403 20.2149C48.4177 20.2431 48.4405 20.2663 48.4685 20.2815C48.4965 20.2967 48.5285 20.3031 48.5601 20.3C48.5734 20.2981 48.5865 20.2949 48.5991 20.2905C48.632 20.278 48.6599 20.255 48.6785 20.2251C48.697 20.1953 48.7053 20.1601 48.7019 20.1251C48.6972 20.0833 48.6761 20.0452 48.6434 20.0188C48.6107 19.9925 48.5689 19.9802 48.5271 19.9845Z" fill="white"/>
<path d="M45.624 46.5589C45.5823 46.5628 45.5438 46.5829 45.5168 46.615C45.4899 46.647 45.4766 46.6884 45.4799 46.7302C45.4821 46.75 45.4882 46.7693 45.4976 46.7869C45.5124 46.815 45.5353 46.8381 45.5632 46.8533C45.5912 46.8684 45.6231 46.8749 45.6547 46.872C45.6676 46.8701 45.6803 46.8669 45.6925 46.8625C45.7258 46.8505 45.754 46.8277 45.7727 46.7977C45.7913 46.7676 45.7993 46.7322 45.7953 46.6971C45.7903 46.6563 45.7696 46.6191 45.7376 46.5933C45.7057 46.5675 45.6649 46.5552 45.624 46.5589V46.5589Z" fill="white"/>
<path d="M38.6268 12.2381C38.5848 12.2426 38.5463 12.2635 38.5197 12.2963C38.4932 12.3291 38.4807 12.3711 38.485 12.413C38.4871 12.4325 38.4931 12.4514 38.5027 12.4686C38.517 12.4971 38.5398 12.5206 38.5679 12.5358C38.596 12.551 38.6281 12.5573 38.6598 12.5536C38.6728 12.5523 38.6856 12.5491 38.6976 12.5442C38.7309 12.5322 38.7591 12.5093 38.7778 12.4793C38.7964 12.4493 38.8044 12.4139 38.8004 12.3788C38.796 12.3371 38.7752 12.2989 38.7426 12.2726C38.7101 12.2462 38.6684 12.2338 38.6268 12.2381V12.2381Z" fill="white"/>
<path d="M43.0045 15.2819C42.8982 16.5556 42.0522 16.7446 41.8761 16.7695C41.8746 16.7695 41.8731 16.7701 41.872 16.7712C41.8709 16.7723 41.8702 16.7738 41.8702 16.7754C41.8702 16.7769 41.8709 16.7784 41.872 16.7795C41.8731 16.7806 41.8746 16.7813 41.8761 16.7813C42.7777 17.0046 42.9714 17.9888 43.0045 18.2121C43.0045 18.2137 43.0052 18.2152 43.0063 18.2163C43.0074 18.2174 43.0089 18.218 43.0104 18.218C43.012 18.218 43.0135 18.2174 43.0146 18.2163C43.0157 18.2152 43.0163 18.2137 43.0163 18.2121C43.0483 17.9888 43.2432 17.0046 44.1436 16.7813C44.1451 16.7813 44.1466 16.7806 44.1477 16.7795C44.1488 16.7784 44.1495 16.7769 44.1495 16.7754C44.1495 16.7738 44.1488 16.7723 44.1477 16.7712C44.1466 16.7701 44.1451 16.7695 44.1436 16.7695C43.9675 16.7446 43.1227 16.5556 43.0163 15.2819C43.0152 15.2748 43.0045 15.2748 43.0045 15.2819Z" fill="white"/>
<path d="M48.5401 40.1371C48.4668 41.0067 47.8914 41.1343 47.7709 41.1521C47.7709 41.1521 47.7709 41.1521 47.7709 41.1591C48.3853 41.3116 48.5176 41.9862 48.5401 42.1351H48.5472C48.5696 41.9827 48.7031 41.308 49.3164 41.1591V41.1521C49.1982 41.1343 48.6204 41.0067 48.5483 40.1371C48.5519 40.1324 48.5401 40.1324 48.5401 40.1371Z" fill="white"/>
<path d="M24.8025 12.1306C24.7364 12.9152 24.2118 13.0321 24.1078 13.0475C24.1078 13.0475 24.1078 13.0475 24.1078 13.0546C24.6619 13.1917 24.7825 13.799 24.8025 13.936C24.8025 13.936 24.8025 13.936 24.8096 13.936C24.8297 13.799 24.9491 13.1917 25.5044 13.0546V13.0475C25.3957 13.0321 24.8746 12.9152 24.8096 12.1306C24.8025 12.1259 24.8025 12.1259 24.8025 12.1306Z" fill="white"/>
<path d="M28.3909 36.0205C27.6855 34.8844 26.5583 34.0744 25.2565 33.7683C23.9547 33.4622 22.5847 33.6849 21.4469 34.3876C20.3106 35.0926 19.5004 36.2196 19.1943 37.5213C18.8881 38.823 19.111 40.1929 19.814 41.3305C20.5187 42.467 21.6457 43.2774 22.9475 43.5836C24.2493 43.8897 25.6194 43.6667 26.7568 42.9634C27.8931 42.2584 28.7033 41.1315 29.0096 39.8299C29.316 38.5283 29.0935 37.1583 28.3909 36.0205V36.0205ZM24.5319 42.5534C24.0227 42.61 23.5073 42.5658 23.0152 42.4231C22.5231 42.2805 22.064 42.0422 21.664 41.722C21.264 41.4018 20.9311 41.0059 20.6842 40.557C20.4373 40.1081 20.2813 39.6148 20.2252 39.1056C20.1682 38.5963 20.2121 38.0807 20.3546 37.5884C20.497 37.0961 20.735 36.6367 21.0552 36.2365C21.3753 35.8363 21.7711 35.5031 22.2201 35.256C22.6691 35.0089 23.1624 34.8527 23.6718 34.7964C24.181 34.7396 24.6964 34.7837 25.1886 34.9262C25.6807 35.0687 26.14 35.3068 26.5401 35.6269C26.9402 35.947 27.2732 36.3428 27.5203 36.7917C27.7673 37.2406 27.9234 37.7338 27.9797 38.2431C28.0369 38.7525 27.993 39.2683 27.8506 39.7608C27.7082 40.2533 27.47 40.7129 27.1498 41.1133C26.8295 41.5136 26.4335 41.8469 25.9843 42.094C25.5351 42.3411 25.0415 42.4972 24.5319 42.5534V42.5534Z" fill="white"/>
<path d="M24.1019 41.4616C25.6406 41.4616 26.888 40.2142 26.888 38.6755C26.888 37.1368 25.6406 35.8894 24.1019 35.8894C22.5632 35.8894 21.3158 37.1368 21.3158 38.6755C21.3158 40.2142 22.5632 41.4616 24.1019 41.4616Z" fill="white"/>
<path d="M29.647 41.4132C29.2866 42.141 28.7873 42.7913 28.1771 43.3273C28.0779 43.3651 27.9798 43.4065 27.8841 43.4454C27.7884 43.4844 27.669 43.5352 27.5615 43.5778C27.3062 43.6862 27.0437 43.7766 26.7758 43.8484C26.6659 43.8732 26.5525 43.9015 26.4414 43.9252C26.642 43.8295 26.8372 43.723 27.0263 43.6062C27.9899 43.0115 28.7596 42.1494 29.2417 41.1249C29.348 41.2017 29.4556 41.2785 29.5654 41.3529L29.647 41.4132Z" fill="white"/>
<path d="M29.5642 41.3517C29.1655 42.1641 28.5912 42.8776 27.8829 43.4407C27.7753 43.4856 27.6678 43.5305 27.5603 43.5731C27.305 43.6815 27.0425 43.7719 26.7746 43.8436C26.6647 43.8684 26.5513 43.8968 26.4402 43.9204C26.6408 43.8248 26.836 43.7183 27.0251 43.6014C27.9887 43.0068 28.7584 42.1447 29.2405 41.1201C29.3468 41.2005 29.4543 41.2773 29.5642 41.3517Z" fill="white"/>
<path d="M29.589 41.3151C29.4791 41.2407 29.3716 41.1639 29.2664 41.0871L29.2227 41.0563L29.2002 41.1048C28.7198 42.1194 27.9562 42.9733 27.0013 43.5636C26.8136 43.6799 26.6195 43.7856 26.42 43.8803L26.0951 44.0386L26.4496 43.963L26.6516 43.9169L26.7863 43.8862C27.0555 43.8138 27.3192 43.7226 27.5756 43.6132C27.6843 43.5707 27.7918 43.5258 27.8993 43.4809H27.91C28.6226 42.9129 29.2009 42.1943 29.6031 41.3765L29.6209 41.3423L29.589 41.3151ZM27.8592 43.4017C27.754 43.4454 27.6488 43.4904 27.5425 43.5317C27.2943 43.637 27.0393 43.7255 26.7792 43.7964C26.8773 43.7432 26.9647 43.6912 27.0474 43.6392C28.0018 43.0494 28.7683 42.1998 29.2569 41.1899C29.3397 41.2489 29.4224 41.308 29.5074 41.3659C29.1121 42.156 28.5497 42.8506 27.8592 43.4017V43.4017Z" fill="white"/>
<path d="M17.1945 16.0617C17.1428 16.0662 17.0926 16.0811 17.0467 16.1052C17.0008 16.1294 16.9602 16.1625 16.9272 16.2025C16.8942 16.2425 16.8695 16.2887 16.8545 16.3384C16.8396 16.388 16.8346 16.4402 16.84 16.4917C16.8457 16.5403 16.8596 16.5874 16.8814 16.6312C16.9177 16.701 16.9742 16.7583 17.0435 16.7956C17.1128 16.8329 17.1918 16.8485 17.2701 16.8403C17.3029 16.8372 17.335 16.8296 17.3658 16.8179C17.4474 16.7878 17.5167 16.7315 17.5628 16.6576C17.6088 16.5838 17.6288 16.4967 17.6198 16.4102C17.6088 16.308 17.558 16.2141 17.4784 16.1489C17.3989 16.0837 17.2969 16.0524 17.1945 16.0617V16.0617Z" fill="white"/>
<path d="M42.6594 43.8732C42.5094 43.1914 42.5094 43.1914 42.4858 43.0768C42.468 42.9929 42.4314 42.8405 42.3073 42.2852C40.8635 42.9941 38.1577 43.8885 34.6473 43.9854H34.5622L34.4842 43.9559C34.3602 43.9039 31.7395 42.8263 29.6458 41.4061L29.5642 41.3505C29.4543 41.2761 29.3468 41.1993 29.2405 41.1225C28.7584 42.1471 27.9887 43.0092 27.0251 43.6038C26.836 43.7206 26.6408 43.8271 26.4402 43.9228C26.5513 43.8992 26.6647 43.8708 26.7746 43.846C27.0425 43.7742 27.305 43.6838 27.5603 43.5754C27.6678 43.5329 27.7754 43.488 27.8829 43.4431C27.9904 43.3982 28.0766 43.3616 28.1759 43.3249C28.235 43.2997 28.2952 43.2761 28.3567 43.254C28.1027 43.5649 27.7984 43.8309 27.4563 44.041C27.7115 43.9854 27.9668 43.9228 28.2196 43.8472C28.5221 43.7597 28.8222 43.6593 29.1318 43.5589C28.8985 43.7912 28.634 43.99 28.346 44.1497L28.1688 44.2395C28.4051 44.1981 28.6355 44.1568 28.8718 44.1024C29.2157 44.0291 29.5583 43.9523 29.9081 43.8661C29.6209 44.0863 29.3064 44.2682 28.9723 44.4072C28.945 44.4218 28.9165 44.434 28.8872 44.4439C29.1022 44.412 29.3137 44.3812 29.5241 44.3458L30.6867 44.1697C30.3445 44.371 29.9822 44.5357 29.6056 44.6613C29.3208 44.7629 29.0373 44.8444 28.7501 44.9319C29.9222 44.8019 31.0896 44.6294 32.2665 44.4781C31.5183 44.7275 30.7575 44.9373 29.9872 45.1067C29.2216 45.2804 28.4453 45.4257 27.6631 45.551C27.0463 45.6514 26.4307 45.7353 25.8092 45.8003C20.4142 46.5943 16.2741 46.5612 14.0374 46.1465C13.7503 45.8771 13.4466 45.5793 13.1264 45.2485C12.2142 44.3493 10.8023 42.3525 10.8023 42.3525C9.2048 39.8712 7.9807 36.4447 8.59984 31.7421L8.63056 31.5318C8.63883 31.4645 8.65065 31.3971 8.65892 31.3298C8.68019 31.2116 8.69791 31.084 8.71918 30.9564C8.73572 30.8642 8.7499 30.7732 8.76999 30.6775C8.76913 30.681 8.76913 30.6847 8.76999 30.6882C8.83379 30.3774 8.90823 30.069 8.99566 29.7666C9.23797 28.9345 9.56872 28.1308 9.98226 27.3692C10.3946 26.618 10.8747 25.9061 11.4167 25.2424C11.9539 24.5866 12.5521 23.9833 13.2032 23.4405C12.6179 24.0436 12.091 24.7007 11.6294 25.4031C11.1764 26.0977 10.7891 26.8331 10.4726 27.5996C10.1536 28.3553 9.92021 29.1444 9.77667 29.9521C9.67006 30.5502 9.61197 31.1559 9.60298 31.7634C9.64669 31.2899 9.72568 30.8203 9.8393 30.3585C9.99725 29.724 10.2165 29.1063 10.4939 28.5141C10.7664 27.9317 11.0957 27.3777 11.4769 26.8599C10.9033 27.9849 10.5488 29.2086 10.4324 30.466C10.3721 31.1402 10.3951 31.8192 10.501 32.4877C10.5033 32.4748 10.5033 32.4616 10.501 32.4487C10.4499 31.671 10.52 30.8901 10.7089 30.134C10.8942 29.3936 11.2146 28.6938 11.6542 28.0698C11.3183 28.7342 11.1095 29.4555 11.0386 30.1966C11.0079 30.4941 10.9973 30.7933 11.0067 31.0923V31.1135C11.0067 31.5448 11.1248 38.4156 18.8581 41.9626C18.3639 41.1757 18.0549 40.2869 17.9542 39.3632C17.9276 39.1235 17.915 38.8824 17.9164 38.6412C17.9164 38.6129 17.9164 38.5845 17.9164 38.5562C17.9474 37.0575 18.5219 35.6211 19.5331 34.5145C20.5443 33.4079 21.9232 32.7065 23.413 32.5409C23.9792 32.4778 24.5514 32.4933 25.1133 32.5869C25.9498 29.0919 28.0802 23.0801 29.1306 20.1156C29.3031 19.6311 29.6032 18.7426 29.7214 18.4295C24.8557 17.0589 19.8057 17.8718 15.5769 20.4913C8.77353 24.7036 6.12448 33.1127 8.8905 40.3226C8.89951 40.3334 8.90633 40.3458 8.91059 40.3592C9.21965 41.1937 9.59255 42.0031 10.026 42.7802C10.0933 42.8984 10.1607 43.0165 10.2316 43.1276C10.4135 43.4238 10.6022 43.7164 10.7975 44.0055C11.4617 44.9975 12.1903 45.9448 12.9787 46.8412L13.8152 46.9937C13.8152 46.9937 15.7294 47.406 19.8719 47.1685C21.0535 47.1036 22.5753 47.0138 24.2673 46.8141C24.942 46.7384 25.6355 46.6581 26.0018 46.6215C26.693 46.5518 27.3831 46.4714 28.0731 46.3568C27.4162 46.6014 26.7498 46.8117 26.081 47.0149C25.749 47.1177 25.417 47.217 25.0755 47.3091C25.4087 47.2843 25.736 47.2513 26.0645 47.2194C26.7628 47.1461 27.4528 47.0657 28.1464 46.9535C27.4906 47.1981 26.8159 47.4096 26.1472 47.6116C25.8081 47.7156 25.4749 47.8113 25.1381 47.907C25.4666 47.8822 25.7986 47.8503 26.1271 47.8172C26.8289 47.7428 27.526 47.6577 28.2196 47.5419C27.5603 47.7912 26.8856 48.0063 26.211 48.2142C25.8707 48.3099 25.5387 48.4092 25.2007 48.5013C25.5268 48.4777 25.8636 48.4517 26.1909 48.4186C26.8998 48.3442 27.5981 48.2556 28.2941 48.1351C27.6312 48.3844 26.9542 48.6077 26.27 48.8085C25.9333 48.9125 25.5966 49.0082 25.2563 49.1004C25.5847 49.0756 25.9215 49.046 26.2535 49.0129C26.9624 48.9421 27.6714 48.8487 28.3685 48.7282C27.7021 48.9811 27.0203 49.2008 26.3315 49.4064C25.9888 49.5116 25.6403 49.6085 25.2905 49.6983C25.2233 49.7183 25.1551 49.7348 25.0861 49.7479C26.2003 49.5577 27.3429 49.3414 28.5056 49.0909C29.9128 48.7908 31.281 48.4635 32.5902 48.1232C32.4012 48.1433 32.2168 48.1681 32.0278 48.193C31.3815 48.2686 30.7375 48.3406 30.0912 48.3926C30.7151 48.2059 31.3283 48.0051 31.938 47.8019C32.0774 47.7593 32.2086 47.7132 32.3397 47.6636C32.1967 47.679 32.0502 47.6955 31.9073 47.7073C31.2468 47.7688 30.5863 47.8255 29.9222 47.8621C30.5674 47.692 31.1983 47.5076 31.8293 47.3139C31.9652 47.2761 32.101 47.23 32.2322 47.1957C32.0857 47.2052 31.9344 47.2182 31.7832 47.2264C31.1085 47.2701 30.4315 47.3139 29.7568 47.3269C30.4161 47.1827 31.0684 47.009 31.7206 46.8318L32.1247 46.7136C31.9699 46.7195 31.8186 46.729 31.6639 46.742C30.9762 46.768 30.2803 46.794 29.589 46.7928C30.2696 46.6628 30.9384 46.5057 31.6071 46.3379C31.7442 46.3072 31.8765 46.2729 32.0136 46.2351C31.8588 46.2446 31.7028 46.2493 31.5469 46.2516C30.8379 46.2717 30.129 46.2835 29.4201 46.2516C30.1184 46.1335 30.8049 45.9964 31.4914 45.8499C32.1046 45.7117 34.4452 45.2591 35.4177 45.0358C36.1443 44.8657 36.8497 44.6814 37.5161 44.4947L38.0289 46.4442C38.3208 46.3379 38.6091 46.228 38.8785 46.124C38.9753 46.0815 39.0699 46.0472 39.162 46.0059L38.6717 44.1556C39.2908 43.9665 39.8517 43.7794 40.3542 43.5943L40.7985 45.2745C40.9273 45.2095 41.0502 45.1493 41.1636 45.0854L40.7323 43.4514C40.9911 43.3521 41.2298 43.2517 41.4413 43.1583C41.5748 43.6156 41.7532 44.3399 41.8335 44.6873C42.5106 44.2489 42.6783 43.9724 42.6594 43.8732ZM25.1417 20.6036C24.4871 20.6213 23.836 20.6626 23.1921 20.7217C22.5481 20.7808 21.9018 20.8765 21.2626 20.9982C20.6234 21.1199 19.9818 21.2735 19.3331 21.4425C19.8994 21.0751 20.5137 20.7877 21.1586 20.5882C21.8045 20.39 22.4688 20.2574 23.1413 20.1924C23.8113 20.1242 24.4862 20.1199 25.157 20.1794C25.8273 20.2368 26.4884 20.3732 27.1267 20.5858C26.4567 20.587 25.7986 20.5811 25.1417 20.6036ZM18.8262 19.8639C19.8501 19.4268 20.9271 19.1265 22.0294 18.9707C23.1298 18.8071 24.2467 18.788 25.352 18.9139C26.4512 19.034 27.5264 19.3172 28.5422 19.754C27.4713 19.6244 26.394 19.5538 25.3153 19.5425C24.2538 19.538 23.1933 19.6127 22.1429 19.7658C21.0936 19.9184 20.0572 20.1495 19.0425 20.4571C18.0143 20.7796 17.0035 21.155 16.0141 21.5819C16.8615 20.8735 17.8092 20.2945 18.8262 19.8639V19.8639Z" fill="white"/>
<path d="M32.6138 33.4377C32.6138 33.4377 33.0025 34.6027 33.7622 35.2691C33.9828 35.4666 34.1531 35.714 34.2587 35.9906C34.3643 36.2673 34.4024 36.5651 34.3696 36.8594C34.3696 36.8594 35.1588 35.8941 34.2632 35.0056C33.455 34.2057 33.331 34.3947 32.6138 33.4377Z" fill="white"/>
</svg>
