<svg width="173" height="46" viewBox="0 0 173 46" fill="none" xmlns="http://www.w3.org/2000/svg">
<path d="M74.2387 35.9824C73.1745 35.9824 72.7225 34.5914 72.7225 30.6618C72.7225 28.6378 73.7031 28.1301 76.5199 28.1301H78.4117C77.5145 30.9122 76.3252 35.9685 74.2387 35.9685M68.5355 33.3047C68.5228 34.2005 68.6162 35.0947 68.8137 35.9685H53.9437C51.9615 35.9685 50.7026 35.5095 50.7026 33.6872V28.6657H55.3834C55.7535 27.5967 56.0099 26.4917 56.1485 25.3689H50.7026C50.7026 23.804 50.8348 22.413 50.953 20.8064C49.3146 21.299 47.8315 22.2071 46.6478 23.4424V25.3689H44.2344C44.0923 26.4626 44.0087 27.5631 43.984 28.6657H46.6478V33.9863C46.6478 37.7073 48.9012 39.3069 51.9893 39.3069H72.2078C74.6908 39.3069 76.5895 37.2761 78.4187 32.6787V39.3069H82.4735V25.3967C80.6513 25.2437 78.996 25.1394 77.1529 25.1394C72.1382 25.1394 68.5355 27.2259 68.5355 33.3742M89.8181 31.8302V30.4392C89.8176 28.7422 89.692 27.0475 89.4425 25.3689H85.5477C85.6729 27.1425 85.798 28.6656 85.798 30.4392V39.3069H89.8529C89.8529 34.334 91.4525 28.6865 95.6812 29.2986C95.6633 27.9 95.5377 26.5048 95.3057 25.1255C92.2176 25.3968 90.7014 28.1162 89.8529 31.8163M34.0104 35.9894C32.9462 35.9894 32.4872 34.5984 32.4872 30.6687C32.4872 28.6448 33.4818 28.1371 36.2917 28.1371H38.1904C37.2862 30.9191 36.1039 35.9755 34.0173 35.9755M28.3211 33.3117C28.3211 37.5195 29.8373 39.5226 31.8613 39.5226C34.3512 39.5226 36.3334 37.3247 38.1973 32.637V39.2722H42.2522V25.362C40.4299 25.209 38.7746 25.1046 36.9315 25.1046C31.9169 25.1046 28.3211 27.1912 28.3211 33.3395M160.426 26.8851C160.426 23.4076 158.02 21.3211 153.715 21.3211C151.929 21.2756 150.156 21.6223 148.519 22.3365C147.88 23.3819 147.45 24.5418 147.253 25.7515C149.011 24.998 150.905 24.6122 152.817 24.6178C154.716 24.6178 156.239 25.4246 156.239 27.6572C156.239 30.0636 154.744 31.8302 146.606 36.5249C146.61 37.458 146.696 38.389 146.864 39.3069H160.294C160.668 38.2395 160.923 37.1339 161.052 36.0102H149.59C155.3 34.0559 160.385 32.018 160.385 26.8921M18.73 35.3843L18.5214 35.273C16.0871 33.9793 12.8182 32.0111 12.8182 28.4083C12.8182 25.1116 14.9465 23.5397 17.5059 23.5397C20.3436 23.5397 22.0685 25.5428 22.0685 29.0412C22.0685 31.4477 20.74 33.5759 18.73 35.3565M26.4989 39.5295L19.8289 35.9685C23.6055 34.5775 26.3737 31.8928 26.3737 28.0536C26.3737 22.886 22.4997 20.2778 17.5059 20.2778C12.9225 20.2778 8.51299 23.2129 8.51299 28.8882C8.51299 33.6803 12.1644 36.5388 16.1636 38.6254L29.0375 45.3579C29.0375 42.395 28.6828 40.698 26.4989 39.5295ZM121.366 38.0063C120.226 38.0063 116.679 35.7042 116.679 29.5211C116.679 26.4818 118.452 24.583 121.366 24.583C124.281 24.583 126.054 26.4818 126.054 29.5211C126.054 35.7042 122.507 38.0063 121.366 38.0063ZM121.366 21.3141C116.296 21.3141 112.499 24.3535 112.499 29.2986C112.499 35.7599 118.703 39.5573 121.366 39.5573C124.03 39.5573 130.234 35.7599 130.234 29.2986C130.234 24.3535 126.437 21.3141 121.366 21.3141ZM121.422 28.2205C120.547 28.8444 119.767 29.5917 119.106 30.4392C119.769 31.2828 120.549 32.0276 121.422 32.6509C122.292 32.0239 123.072 31.2796 123.738 30.4392C123.074 29.5949 122.294 28.8481 121.422 28.2205ZM144.666 26.8643C144.666 23.3867 142.253 21.3002 137.947 21.3002C136.162 21.2557 134.389 21.6023 132.752 22.3156C132.119 23.3642 131.689 24.5228 131.486 25.7306C133.244 24.9772 135.138 24.5914 137.05 24.5969C138.956 24.5969 140.472 25.4037 140.472 27.6363C140.472 30.0428 138.977 31.8093 130.846 36.504C130.85 37.4368 130.934 38.3676 131.097 39.2861H144.527C144.9 38.218 145.156 37.1126 145.292 35.9894H133.879C139.589 34.035 144.68 31.9972 144.68 26.8712M110.468 26.8712C110.468 23.3937 108.061 21.3072 103.756 21.3072C101.971 21.2617 100.197 21.6084 98.5606 22.3226C97.9277 23.3712 97.4982 24.5298 97.2948 25.7376C99.0528 24.9843 100.946 24.5985 102.859 24.6039C104.758 24.6039 106.274 25.4107 106.274 27.6432C106.274 30.0497 104.779 31.8163 96.648 36.511C96.6516 37.4441 96.7377 38.3751 96.9053 39.293H110.329C110.703 38.2256 110.957 37.1199 111.087 35.9963H99.6735C105.384 34.0419 110.468 32.0041 110.468 26.8782" fill="white"/>
<path d="M145.048 15.3188C144.471 15.4649 143.845 15.597 143.157 15.7292C142.311 15.8728 141.455 15.938 140.597 15.9239C139.566 15.9195 138.54 15.7816 137.544 15.5136C136.542 15.2541 135.598 14.8081 134.762 14.1991C133.917 13.5703 133.227 12.7567 132.745 11.8204C132.186 10.704 131.913 9.4658 131.952 8.21768C131.93 7.04021 132.15 5.87079 132.599 4.78186C133.003 3.8359 133.619 2.99576 134.4 2.32671C135.199 1.65446 136.131 1.15694 137.134 0.866134C138.245 0.531851 139.401 0.36771 140.562 0.379279C141.322 0.377379 142.079 0.454299 142.823 0.608799C143.56 0.754856 144.29 0.935688 145.021 1.1513L144.701 4.40628C144.093 4.06294 143.446 3.79438 142.774 3.60644C142.125 3.43629 141.456 3.34981 140.785 3.34911C140.12 3.33966 139.46 3.46506 138.845 3.71773C138.288 3.94729 137.786 4.29082 137.37 4.72622C136.95 5.1705 136.626 5.69596 136.417 6.27025C136.192 6.89436 136.081 7.55413 136.09 8.21768C136.081 8.89698 136.208 9.57124 136.466 10.1999C136.701 10.7647 137.052 11.2741 137.495 11.6952C137.954 12.1119 138.494 12.4292 139.081 12.6272C139.732 12.8498 140.417 12.9604 141.105 12.9541C141.763 12.9545 142.419 12.8775 143.059 12.7246C143.669 12.5882 144.266 12.4045 144.847 12.1751L145.048 15.3188Z" fill="white"/>
<path d="M159.473 9.95645C159.495 10.8693 159.334 11.7773 159 12.6272C158.704 13.3424 158.242 13.9766 157.651 14.4773C157.042 14.986 156.33 15.3583 155.565 15.5692C153.809 16.0423 151.958 16.0423 150.202 15.5692C149.438 15.3561 148.727 14.984 148.116 14.4773C147.525 13.9786 147.064 13.3437 146.773 12.6272C146.436 11.7782 146.276 10.8696 146.3 9.95645V0.636612H150.3V9.29571C150.299 9.76191 150.339 10.2273 150.418 10.6867C150.491 11.0936 150.629 11.4858 150.828 11.8482C151.015 12.1876 151.288 12.471 151.621 12.6689C152.012 12.8781 152.451 12.979 152.894 12.961C153.334 12.9791 153.772 12.8782 154.16 12.6689C154.49 12.479 154.762 12.2024 154.946 11.8691C155.15 11.5094 155.289 11.1161 155.356 10.7076C155.435 10.2482 155.475 9.78278 155.474 9.31657V0.636612H159.48L159.473 9.95645Z" fill="white"/>
<path d="M165.476 7.57084H166.512C166.837 7.57156 167.161 7.53893 167.479 7.47346C167.762 7.41334 168.03 7.29491 168.265 7.12571C168.492 6.95794 168.674 6.73549 168.793 6.47889C168.929 6.1727 168.996 5.84014 168.988 5.50517C168.998 5.17224 168.931 4.84145 168.793 4.53841C168.672 4.28893 168.49 4.07374 168.265 3.91246C168.028 3.74819 167.761 3.63452 167.479 3.57861C167.161 3.50971 166.837 3.47705 166.512 3.48123H165.476V7.57084ZM161.476 0.615738H166.227C168.536 0.615738 170.24 1.01913 171.332 1.81202C171.841 2.27153 172.249 2.83186 172.531 3.45745C172.812 4.08305 172.96 4.76027 172.966 5.44621C172.972 6.13214 172.835 6.81183 172.565 7.44216C172.294 8.07249 171.896 8.63973 171.394 9.10792C170.122 10.0311 168.568 10.4835 166.999 10.3877H165.448V15.6387H161.449L161.476 0.615738Z" fill="white"/>
<path d="M48.463 0.636612H52.5526L54.4931 12.1751H54.5349L56.5588 0.636612H61.636L63.7225 12.1751H63.7712L65.7256 0.636612H69.6274L66.2681 15.6666H61.1213L58.9931 4.12807H58.9444L56.9691 15.6666H51.8015L48.463 0.636612Z" fill="white"/>
<path d="M73.9327 8.14812C73.9302 8.75396 73.9955 9.35817 74.1274 9.94949C74.2396 10.4916 74.4418 11.0112 74.7256 11.4866C74.9874 11.921 75.35 12.2861 75.7827 12.5507C76.2569 12.815 76.7908 12.9538 77.3337 12.9538C77.8766 12.9538 78.4105 12.815 78.8847 12.5507C79.3139 12.2839 79.6738 11.9192 79.9349 11.4866C80.2182 11.0102 80.4225 10.4911 80.54 9.94949C80.6685 9.35761 80.7337 8.75377 80.7348 8.14812C80.7353 7.53089 80.67 6.91537 80.54 6.31197C80.4249 5.7718 80.2204 5.25464 79.9349 4.78185C79.6731 4.35529 79.313 3.99758 78.8847 3.73859C78.4077 3.4829 77.8749 3.34909 77.3337 3.34909C76.7925 3.34909 76.2597 3.4829 75.7827 3.73859C75.3509 3.99538 74.988 4.35345 74.7256 4.78185C74.4395 5.2536 74.2371 5.77126 74.1274 6.31197C73.994 6.91481 73.9287 7.53071 73.9327 8.14812ZM69.7596 8.14812C69.7428 7.04608 69.9073 5.94877 70.2465 4.90009C70.538 3.99054 71.0273 3.15684 71.6792 2.45885C72.335 1.77352 73.1392 1.24768 74.03 0.921773C76.1445 0.198439 78.4394 0.198439 80.5539 0.921773C81.4486 1.24401 82.2559 1.77029 82.9117 2.45885C83.5637 3.15684 84.053 3.99054 84.3444 4.90009C84.9936 7.01204 84.9936 9.27028 84.3444 11.3822C84.0506 12.2943 83.559 13.1303 82.9047 13.8304C82.2431 14.5219 81.4318 15.0525 80.5331 15.3814C78.4305 16.1048 76.1465 16.1048 74.044 15.3814C73.1502 15.0506 72.3438 14.5202 71.6862 13.8304C71.0295 13.1321 70.5376 12.2956 70.2465 11.3822C69.9083 10.3381 69.7438 9.24554 69.7596 8.14812Z" fill="white"/>
<path d="M90.3745 6.88228H91.4317C91.7447 6.88228 92.0785 6.88229 92.4332 6.84752C92.7573 6.83108 93.0766 6.76299 93.3791 6.64581C93.6514 6.53364 93.8907 6.35415 94.0746 6.12418C94.2818 5.83822 94.3827 5.48893 94.3598 5.13656C94.3709 4.83401 94.283 4.53609 94.1094 4.28804C93.9429 4.06416 93.7196 3.88887 93.4626 3.78032C93.1659 3.6615 92.8549 3.582 92.5376 3.54385C92.1705 3.50101 91.8012 3.4801 91.4317 3.48124H90.3745V6.88228ZM86.3754 0.622697H93.5182C94.1491 0.618834 94.7779 0.695972 95.3892 0.852216C95.946 0.982437 96.4725 1.21856 96.9401 1.54773C97.377 1.85032 97.7348 2.25343 97.9834 2.72314C98.2441 3.24513 98.373 3.82299 98.359 4.40627C98.3994 5.28493 98.1555 6.15322 97.6635 6.88228C97.1247 7.57053 96.353 8.03806 95.4935 8.19681V8.23854C95.7793 8.30786 96.0427 8.44911 96.2585 8.64889C96.4619 8.85217 96.631 9.08705 96.7593 9.3444C96.9178 9.65761 97.0504 9.98326 97.1558 10.3181C97.2809 10.6798 97.434 11.0971 97.6217 11.5561L99.0893 15.6388H94.9162L94.0468 12.9332C93.8854 12.3925 93.695 11.8608 93.4765 11.3405C93.3336 10.9826 93.1391 10.6475 92.8992 10.3459C92.717 10.1191 92.4766 9.94603 92.2037 9.84516C91.897 9.7414 91.5746 9.69197 91.2509 9.6991H90.4093V15.6388H86.4101L86.3754 0.622697Z" fill="white"/>
<path d="M100.793 0.636612H104.799V12.6689H110.996V15.6457H100.793V0.636612Z" fill="white"/>
<path d="M116.401 12.6689H117.952C119.216 12.7615 120.465 12.3516 121.429 11.5283C122.218 10.5706 122.65 9.36822 122.65 8.12726C122.65 6.8863 122.218 5.68396 121.429 4.72622C120.471 3.9168 119.238 3.50821 117.986 3.58558H116.435L116.401 12.6689ZM112.394 0.636617H117.861C119.069 0.627672 120.274 0.744217 121.457 0.984372C122.459 1.18135 123.407 1.58913 124.239 2.18065C125.042 2.76631 125.674 3.55644 126.068 4.46888C126.543 5.61385 126.768 6.84674 126.729 8.08553C126.757 9.30658 126.52 10.5191 126.033 11.6396C125.619 12.5593 124.983 13.3621 124.183 13.9765C123.339 14.5929 122.378 15.0308 121.36 15.2632C120.195 15.5383 119.002 15.6737 117.805 15.6666H112.394V0.636617Z" fill="white"/>
<path fill-rule="evenodd" clip-rule="evenodd" d="M0 0.636612V15.6666H4.67383V10.2346H8.04009L9.24333 6.95184H4.67383V3.91247H10.3422L11.5385 0.636612H0Z" fill="white"/>
<path fill-rule="evenodd" clip-rule="evenodd" d="M12.9712 15.6596H17.645V0.636612H12.9712V15.6596Z" fill="white"/>
<path fill-rule="evenodd" clip-rule="evenodd" d="M20.8653 0.636612V15.6666H25.5391V10.2346H28.9054L30.1016 6.95184H25.5391V3.91247H31.2075L32.4038 0.636612H20.8653Z" fill="white"/>
<path fill-rule="evenodd" clip-rule="evenodd" d="M39.6859 10.7563L37.815 4.49669L36.0136 10.7563H39.6859ZM45.7925 15.6666H41.07L40.4579 13.6426H35.1721L34.5878 15.6666H29.9836L35.4711 0.636612H40.3397L45.7925 15.6666Z" fill="white"/>
</svg>
