<svg width="28" height="28" viewBox="0 0 28 28" fill="none" xmlns="http://www.w3.org/2000/svg">
<path d="M13.8886 0.26633C21.4149 0.26633 27.5405 6.39192 27.5405 13.9182C27.5405 18.6924 25.1139 23.0326 21.0598 25.5381L21.0401 25.548L21.0203 25.5578C20.172 26.0806 19.2744 26.5048 18.3373 26.8303C18.14 26.8993 17.9033 26.9783 17.6567 27.0473C17.42 27.1163 17.1635 27.1854 16.8873 27.2446C16.8676 27.2446 16.838 27.2544 16.8183 27.2643C16.8084 27.2643 16.7985 27.2643 16.7887 27.2742H16.7492L16.7196 27.284C15.8023 27.4813 14.8553 27.58 13.8985 27.58C13.2968 27.58 12.6852 27.5405 12.1032 27.4616L12.044 27.4517C12.0144 27.4517 11.9849 27.4419 11.9553 27.4419H11.9454H11.9355C11.3536 27.363 10.7716 27.2347 10.1797 27.0769C9.94299 27.0078 9.71612 26.9388 9.49911 26.8599L9.47938 26.85L9.44979 26.8402C9.11441 26.7316 8.76916 26.5936 8.43379 26.4456L8.41406 26.4357L7.42765 25.9623C7.17118 25.8242 6.93445 25.6861 6.69771 25.5381C6.45111 25.3803 6.21437 25.2224 5.99736 25.0646C5.77048 24.8969 5.54361 24.7292 5.3266 24.5517C5.28715 24.5221 5.24769 24.4826 5.20823 24.453L5.11946 24.3741C4.40924 23.7724 3.74835 23.0918 3.1861 22.3619L3.16637 22.3323C3.1565 22.3224 3.14664 22.3125 3.13678 22.2928L3.05786 22.1942C2.95922 22.0659 2.85072 21.918 2.73235 21.7404C2.38711 21.2472 2.08132 20.7343 1.81499 20.2214C1.73608 20.0734 1.65716 19.9156 1.58812 19.7577C1.56839 19.7282 1.55852 19.6887 1.5388 19.6591L1.49934 19.5802C1.28233 19.1067 1.08505 18.6036 0.917359 18.071C0.917359 18.0611 0.907495 18.0513 0.907495 18.0513C0.48334 16.7196 0.276194 15.3386 0.276194 13.9281C0.26633 6.39192 6.37219 0.26633 13.8886 0.26633ZM13.8886 0C6.21437 0 0 6.2341 0 13.9182C0 15.388 0.226874 16.7985 0.651029 18.1302C0.651029 18.14 0.660893 18.14 0.660893 18.1499C0.828582 18.6727 1.02586 19.1856 1.25274 19.6788C1.28233 19.738 1.31192 19.8071 1.33165 19.8663C1.41056 20.0241 1.48948 20.1819 1.56839 20.3397C1.84458 20.8724 2.16023 21.3952 2.50548 21.8785C2.63371 22.0659 2.77181 22.2534 2.91977 22.4408C2.91977 22.4408 2.91977 22.4506 2.92963 22.4506C3.52148 23.22 4.2021 23.9303 4.95177 24.5616C5.02082 24.6207 5.08986 24.6799 5.15891 24.7391C5.38579 24.9167 5.61266 25.0942 5.8494 25.2619C6.08614 25.4296 6.32287 25.5874 6.56948 25.7452C6.81608 25.9031 7.06268 26.0412 7.31914 26.1793L8.31542 26.6626C8.32528 26.6725 8.33514 26.6725 8.34501 26.6725C8.68039 26.8204 9.03549 26.9585 9.3906 27.0769C9.41033 27.0868 9.42019 27.0868 9.43992 27.0966C9.6668 27.1755 9.90353 27.2544 10.1403 27.3136C10.7223 27.4813 11.324 27.6096 11.9355 27.6885C11.9849 27.6983 12.044 27.7082 12.0934 27.7082C12.6951 27.7871 13.3066 27.8266 13.9281 27.8266C14.9243 27.8266 15.9009 27.7181 16.838 27.5208H16.8478C16.8873 27.5109 16.9268 27.501 16.9662 27.4912C17.2325 27.432 17.4989 27.363 17.7553 27.2939C17.9921 27.2347 18.219 27.1558 18.4557 27.0769C19.4224 26.7415 20.3397 26.3075 21.1979 25.7847C21.2078 25.7748 21.2275 25.765 21.2374 25.765C25.2027 23.3187 27.8463 18.9292 27.8463 13.9182C27.797 6.22423 21.5727 0 13.8886 0Z" fill="black"/>
<path d="M15.0624 13.5927C15.1216 13.573 15.1709 13.5828 15.2202 13.6026C15.2695 13.6223 15.3188 13.6519 15.3484 13.6913C15.3879 13.7308 15.4175 13.7801 15.4273 13.8294C15.4471 13.8787 15.4569 13.9379 15.4372 13.9873C15.3879 13.9478 15.3583 13.9182 15.3287 13.8886C15.2991 13.859 15.2695 13.8294 15.2399 13.7998C15.2103 13.7702 15.1807 13.7406 15.1512 13.7012C15.1314 13.6716 15.1018 13.642 15.0624 13.5927Z" fill="black"/>
<path d="M16.5815 16.9465C16.552 17.1142 16.5125 17.2621 16.5026 17.4199C16.4829 17.5778 16.4928 17.7455 16.4928 17.9132C16.3941 17.7652 16.3448 17.5975 16.3251 17.4199C16.3054 17.2424 16.3251 17.0648 16.3547 16.8972C16.3843 16.7295 16.4237 16.5815 16.4336 16.4237C16.4434 16.2659 16.4237 16.108 16.3941 15.9305C16.5125 16.0587 16.5914 16.2264 16.621 16.4039C16.6407 16.6012 16.6111 16.7886 16.5815 16.9465Z" fill="black"/>
<path d="M14.5298 13.5039C14.5988 13.3855 14.6284 13.277 14.6777 13.1587C14.6975 13.0995 14.7271 13.0304 14.7665 12.9712C14.7764 12.9515 14.7863 12.9417 14.806 12.9219L14.8158 12.9121L14.8257 12.9022V12.8923C14.8257 12.8825 14.8257 12.8825 14.8257 12.8726C14.8257 12.8332 14.8158 12.7838 14.7961 12.7345C14.7764 12.6852 14.7567 12.626 14.7369 12.5668C14.6876 12.4583 14.6383 12.3399 14.5791 12.2216C14.7073 12.2709 14.806 12.3695 14.8948 12.4682C14.9342 12.5175 14.9737 12.5767 15.0033 12.6457C15.0329 12.7148 15.0624 12.7838 15.0624 12.8726C15.0624 12.8923 15.0624 12.9219 15.0526 12.9417C15.0427 12.9712 15.0329 12.991 15.023 13.0206C15.0131 13.0304 15.0033 13.0403 14.9934 13.06C14.9835 13.0699 14.9835 13.0699 14.9835 13.0699L14.9737 13.0798C14.9638 13.0896 14.9539 13.0995 14.9441 13.1093C14.9145 13.1488 14.875 13.1981 14.8454 13.2474C14.7665 13.3461 14.658 13.4645 14.5298 13.5039Z" fill="black"/>
<path d="M18.2979 16.9761C18.2782 17.0353 18.2683 17.0944 18.2387 17.1536C18.2091 17.2128 18.1795 17.2621 18.1401 17.3213C18.1203 17.3509 18.1006 17.3805 18.0809 17.4298C18.0809 17.4397 18.071 17.4594 18.071 17.4693C18.071 17.4791 18.071 17.489 18.071 17.4989C18.071 17.5087 18.071 17.5285 18.0809 17.5482C18.0907 17.5679 18.1006 17.5876 18.1105 17.5975C18.1105 17.6074 18.1203 17.6074 18.1203 17.6172L18.1302 17.6271C18.1401 17.637 18.1401 17.637 18.1499 17.6468L18.1696 17.6567C18.2091 17.6863 18.2387 17.706 18.2683 17.7257C18.2979 17.7455 18.3275 17.7553 18.3571 17.7652L18.4952 17.8244C18.5149 17.8343 18.5543 17.854 18.5445 17.9132L18.5346 18.0019L18.5149 18.1894C18.4952 18.3176 18.4754 18.4458 18.4557 18.5741C18.4458 18.6037 18.4458 18.6431 18.436 18.6727C18.4261 18.7122 18.4162 18.7417 18.4162 18.7812C18.4064 18.8207 18.4064 18.8601 18.4162 18.8996C18.4261 18.939 18.4458 18.9785 18.4656 19.0081C18.5149 19.0771 18.5741 19.1264 18.6234 19.156C18.6727 19.1955 18.722 19.235 18.7714 19.2645C18.8601 19.3435 18.9292 19.4421 18.9884 19.5605C18.9982 19.4322 18.9588 19.2843 18.8799 19.1758C18.8009 19.0574 18.6924 18.9686 18.653 18.8897L18.6234 18.8305C18.6135 18.8108 18.6037 18.7911 18.5938 18.7615C18.5839 18.7319 18.5741 18.7122 18.5741 18.6826C18.5741 18.653 18.5839 18.6234 18.5938 18.5938C18.6234 18.4754 18.6628 18.357 18.7122 18.2288C18.7319 18.1696 18.7516 18.1104 18.7812 18.0414L18.8108 17.9428L18.8207 17.8934V17.8836V17.8638C18.8207 17.854 18.8207 17.8343 18.8207 17.8244C18.8207 17.7652 18.8009 17.6962 18.7714 17.6567C18.7418 17.6074 18.7122 17.5679 18.6727 17.5383C18.6037 17.4791 18.5445 17.4397 18.4754 17.4101C18.4458 17.4002 18.4162 17.3805 18.3867 17.3805C18.3669 17.3706 18.3472 17.3706 18.3275 17.3608C18.3275 17.3016 18.3472 17.2325 18.3669 17.1734C18.3867 17.1142 18.4162 17.055 18.4458 16.9958C18.4754 16.9366 18.505 16.8774 18.5346 16.7985C18.5346 16.7887 18.5445 16.7788 18.5445 16.7689C18.5445 16.7591 18.5543 16.7492 18.5543 16.7295C18.5642 16.6999 18.5543 16.6604 18.5445 16.6308C18.5248 16.5618 18.4952 16.5125 18.4656 16.4829C18.4064 16.4138 18.3472 16.3645 18.2979 16.3349L18.1598 16.2363C18.1203 16.2067 18.0907 16.1771 18.0611 16.1475C18.0315 16.1179 18.0118 16.0883 18.002 16.0489C17.9822 15.9995 17.9625 15.9403 17.9625 15.9108C17.9625 15.891 17.9625 15.8812 17.9526 15.8713C17.9526 15.8614 17.9526 15.8516 17.9625 15.8417C17.9724 15.8121 18.0217 15.7628 18.0611 15.7036C18.1006 15.6444 18.1401 15.5852 18.1795 15.5261C18.219 15.4669 18.2486 15.4077 18.2782 15.3485C18.3077 15.2893 18.3373 15.2203 18.3571 15.1512C18.4064 15.0131 18.436 14.8652 18.4261 14.7073C18.4162 14.5495 18.3373 14.3917 18.2486 14.2733C18.1992 14.2141 18.1499 14.1648 18.0907 14.1155C18.0611 14.0958 18.0315 14.0662 18.002 14.0464C17.9724 14.0267 17.9428 14.007 17.9132 13.9873C17.7948 13.9182 17.6764 13.8492 17.5679 13.79C17.3411 13.6716 17.1043 13.5631 16.8775 13.4546C16.6506 13.3461 16.4138 13.2475 16.1968 13.1291C16.1475 13.0995 16.0883 13.0699 16.039 13.0403C16.0193 13.0206 15.9897 13.0107 15.9798 13.0009C15.97 12.991 15.9601 12.991 15.9601 12.9811C15.9502 12.9811 15.9502 12.9713 15.9601 12.991C15.97 13.0009 15.9601 12.991 15.9601 12.991L15.9502 12.9811C15.9404 12.9713 15.9305 12.9614 15.9305 12.9515C15.9108 12.9318 15.9108 12.9022 15.891 12.8726C15.8713 12.8134 15.8516 12.7543 15.8319 12.6951C15.7924 12.5767 15.7924 12.4386 15.7727 12.3104C15.7529 12.1821 15.7332 12.044 15.6839 11.9059C15.674 11.8665 15.6642 11.8369 15.6444 11.7974L15.6247 11.7481C15.6148 11.7284 15.5951 11.7087 15.5853 11.6889C15.5261 11.61 15.4669 11.5607 15.3978 11.5212C15.2696 11.4325 15.1414 11.3831 15.023 11.3338C14.8948 11.2845 14.7665 11.2549 14.658 11.2155L14.5791 11.1859C14.5495 11.176 14.5298 11.1661 14.5199 11.1661L14.5101 11.1563C14.5002 11.1563 14.4903 11.1464 14.4805 11.1365L14.4114 11.0872C14.224 10.9294 13.9971 10.7518 13.7209 10.6927C13.859 10.9393 13.9675 11.1464 14.1352 11.3536C14.155 11.3831 14.1846 11.4029 14.2043 11.4325C14.224 11.4423 14.2339 11.4621 14.2536 11.4719L14.2832 11.4917C14.2931 11.5015 14.3128 11.5114 14.3227 11.5114C14.372 11.541 14.4016 11.5508 14.441 11.5607C14.4706 11.5706 14.5101 11.5804 14.5397 11.5903C14.6679 11.6297 14.7863 11.6593 14.9046 11.6889C15.023 11.7185 15.1315 11.758 15.2301 11.7974C15.2795 11.8172 15.3189 11.8468 15.3485 11.8665C15.3584 11.8763 15.3584 11.8763 15.3682 11.8862L15.388 11.9158C15.4077 11.9355 15.4176 11.9651 15.4274 11.9849C15.4768 12.0835 15.5162 12.2019 15.5359 12.3202C15.5655 12.4386 15.5853 12.5668 15.5951 12.6951C15.5951 12.7641 15.5951 12.8233 15.5951 12.8923L15.605 13.0009C15.605 13.0206 15.605 13.0403 15.605 13.06C15.605 13.0699 15.6148 13.0798 15.6148 13.0896C15.6247 13.0995 15.6148 13.1094 15.6346 13.1291C15.6543 13.1685 15.674 13.1883 15.6938 13.208C15.7135 13.2277 15.7332 13.2376 15.7431 13.2573C15.7727 13.2869 15.8023 13.3066 15.8319 13.3264C15.891 13.3658 15.9502 13.4053 16.0094 13.4349C16.2363 13.5631 16.473 13.6815 16.6999 13.79L17.3805 14.1254C17.489 14.1845 17.6074 14.2339 17.706 14.293C17.7356 14.3029 17.7554 14.3226 17.7751 14.3325L17.8441 14.3818C17.8836 14.4114 17.9329 14.4509 17.9724 14.4805C18.0513 14.5495 18.1105 14.6186 18.1401 14.7172C18.1696 14.806 18.1598 14.9145 18.1203 15.023C18.0809 15.1315 18.0118 15.2301 17.9428 15.3189C17.9033 15.3584 17.8639 15.4077 17.8244 15.4471C17.7849 15.4866 17.7356 15.5261 17.6764 15.605C17.6468 15.6444 17.6173 15.6937 17.6074 15.7529C17.5975 15.8023 17.5877 15.8516 17.5877 15.9009C17.5877 15.9897 17.6074 16.0587 17.6271 16.1376C17.6468 16.2264 17.6962 16.3053 17.7455 16.3744C17.7948 16.4434 17.8639 16.5026 17.923 16.5421C17.9822 16.5914 18.0513 16.621 18.1105 16.6506C18.1105 16.6506 18.1696 16.6802 18.2288 16.7097C18.2782 16.7985 18.3373 16.8676 18.2979 16.9761Z" fill="black"/>
<path d="M14.7666 15.6148L14.2537 15.3781C14.3523 15.3288 14.4608 15.3091 14.5693 15.3189C14.6778 15.3288 14.7765 15.3584 14.8751 15.3978C14.9737 15.4373 15.0527 15.4965 15.1316 15.5655C15.2105 15.6346 15.2697 15.7135 15.319 15.822C15.2105 15.7924 15.1217 15.7529 15.0329 15.7233C14.9343 15.6938 14.8554 15.6543 14.7666 15.6148Z" fill="black"/>
<path d="M11.4325 15.2992C11.7481 13.5138 13.9873 6.95419 13.9873 6.95419C14.2339 7.0331 14.3424 7.07256 14.589 7.1712C14.1944 7.99978 12.1624 13.208 11.4325 15.2992Z" fill="black"/>
<path d="M15.3781 14.2832C15.4372 14.2733 15.4964 14.3128 15.5359 14.3522C15.5753 14.3917 15.6148 14.441 15.6247 14.5002C15.6641 14.6087 15.6345 14.7468 15.5457 14.8257L15.5161 14.6777C15.5063 14.6383 15.4964 14.5889 15.4866 14.5495C15.4767 14.51 15.457 14.4706 15.4471 14.4311C15.4274 14.3818 15.4076 14.3423 15.3781 14.2832Z" fill="black"/>
<path d="M17.9032 9.84437C19.4026 11.3437 20.4383 13.3165 20.7638 15.5754C20.9315 16.7492 20.9414 17.8737 20.7342 18.9588C21.04 17.7554 21.1189 16.5223 20.9611 15.2795C20.5172 11.7777 18.1005 8.88755 15.0427 7.38821C15.0032 7.48685 14.9637 7.60522 14.9144 7.73345C15.6345 8.05897 16.3053 8.50285 16.9366 8.98619C16.9267 8.98619 17.6961 9.64708 17.9032 9.84437Z" fill="black"/>
<path d="M1.53879 17.7257C1.49934 17.6271 1.53879 17.5186 1.61771 17.4791C1.70648 17.4495 1.80512 17.4989 1.84458 17.5975C1.88404 17.6961 1.84458 17.8046 1.76567 17.8441C1.67689 17.8836 1.57825 17.8342 1.53879 17.7257Z" fill="black"/>
<path d="M2.58439 18.8601C2.67317 19.087 2.63371 19.3139 2.48575 19.373C2.33779 19.4322 2.15037 19.2941 2.0616 19.0673C1.97282 18.8404 2.01228 18.6135 2.16024 18.5543C2.3082 18.4951 2.49562 18.6332 2.58439 18.8601Z" fill="black"/>
<path d="M4.09364 23.368C4.09364 23.368 5.20828 23.6047 7.60525 23.4666C8.29574 23.4272 9.17364 23.3779 10.16 23.2595C10.5546 23.22 10.959 23.1707 11.1662 23.151C11.5706 23.1115 11.9652 23.0622 12.3696 22.9932C11.9849 23.1313 11.6002 23.2595 11.2155 23.3779C11.0182 23.4371 10.8308 23.4962 10.6335 23.5456C10.8308 23.5357 11.0182 23.516 11.2056 23.4962C11.6101 23.4568 12.0145 23.4075 12.4091 23.3384C12.0244 23.4765 11.6397 23.6047 11.2451 23.7231C11.0478 23.7823 10.8505 23.8415 10.6631 23.8908C10.8505 23.8809 11.0478 23.8612 11.2352 23.8415C11.6397 23.802 12.0441 23.7527 12.4485 23.6837C12.0638 23.8316 11.6791 23.95 11.2846 24.0782C11.0873 24.1374 10.89 24.1966 10.7026 24.2459C10.89 24.236 11.0873 24.2163 11.2747 24.1966C11.689 24.1571 12.0934 24.0979 12.4978 24.0289C12.1131 24.1769 11.7186 24.3051 11.324 24.4235C11.1267 24.4826 10.9294 24.5418 10.7322 24.5911C10.9196 24.5813 11.1169 24.5616 11.3141 24.5418C11.7284 24.5024 12.1329 24.4432 12.5373 24.3741C12.1526 24.5221 11.758 24.6503 11.3536 24.7687C11.1563 24.8279 10.9492 24.8871 10.7519 24.9364C10.7124 24.9463 10.673 24.9561 10.6335 24.966C11.2846 24.8575 11.9454 24.7292 12.6162 24.5813C13.4349 24.4037 14.224 24.2163 14.9836 24.019C14.8751 24.0289 14.7666 24.0486 14.6581 24.0585C14.2832 24.0979 13.9084 24.1473 13.5336 24.1769C13.8985 24.0684 14.2536 23.95 14.6087 23.8316C14.6877 23.802 14.7666 23.7823 14.8455 23.7527C14.7666 23.7626 14.6778 23.7724 14.5989 23.7823C14.2142 23.8218 13.8295 23.8513 13.4448 23.8711C13.8196 23.7724 14.1846 23.6639 14.5496 23.5554C14.6285 23.5357 14.7074 23.5061 14.7863 23.4864C14.6975 23.4962 14.6087 23.4962 14.5298 23.5061C14.1353 23.5357 13.7407 23.5554 13.356 23.5653C13.7407 23.4864 14.1155 23.3779 14.4904 23.2792C14.5693 23.2595 14.6482 23.2299 14.7271 23.2102C14.6383 23.2102 14.5496 23.22 14.4608 23.2299C14.0662 23.2496 13.6618 23.2595 13.2574 23.2595C13.6519 23.1806 14.0366 23.0918 14.4312 22.9932C14.5101 22.9734 14.589 22.9537 14.6679 22.934C14.5792 22.9438 14.4904 22.9438 14.4016 22.9438C13.9873 22.9537 13.5829 22.9636 13.1686 22.9438C13.573 22.8748 13.9676 22.7959 14.372 22.7071C14.7271 22.6282 16.0884 22.3619 16.6506 22.2336C17.0748 22.135 17.4792 22.0265 17.8639 21.918L18.1598 23.0524C18.3275 22.9932 18.4952 22.9241 18.653 22.8649C18.7122 22.8452 18.7615 22.8255 18.8207 22.7959L18.5346 21.7207C18.8898 21.6122 19.2153 21.5037 19.5112 21.3952L19.7677 22.3717C19.8466 22.3323 19.9156 22.3027 19.9847 22.2632L19.7381 21.3163C19.886 21.2571 20.0241 21.1979 20.1524 21.1486C20.2313 21.4149 20.3299 21.8391 20.3792 22.0364C20.7639 21.7799 20.8626 21.6221 20.8527 21.5629C20.7639 21.1683 20.7639 21.1683 20.7541 21.0993C20.7442 21.0499 20.7245 20.9612 20.6554 20.6357C19.817 21.0499 18.2486 21.5629 16.2067 21.6221H16.1574L16.0785 21.6023C15.9996 21.5727 14.2832 20.8625 13.0305 19.955C12.7543 20.5271 12.3301 21.0302 11.7482 21.3952C11.6397 21.4642 11.5213 21.5234 11.4128 21.5826C11.4818 21.5727 11.541 21.553 11.6101 21.5431C11.758 21.5037 11.9159 21.4544 12.0638 21.3853C12.2118 21.3261 12.3597 21.2571 12.5274 21.1979C12.3795 21.3853 12.2019 21.5333 12.0046 21.6517C12.1526 21.6221 12.3006 21.5826 12.4485 21.5431C12.6261 21.4938 12.8036 21.4346 12.9812 21.3755C12.8431 21.5136 12.6951 21.6221 12.5274 21.7207C12.4978 21.7404 12.4584 21.7602 12.4288 21.77C12.5669 21.7503 12.6951 21.7207 12.8332 21.6911C13.0305 21.6517 13.2278 21.6023 13.4349 21.553C13.2672 21.6812 13.0798 21.7799 12.8924 21.8687C12.8727 21.8785 12.8628 21.8884 12.8431 21.8884C12.9713 21.8687 13.0897 21.8489 13.208 21.8292L13.8788 21.7306C13.6815 21.8489 13.4645 21.9377 13.2475 22.0166C13.0798 22.0758 12.922 22.1251 12.7543 22.1744C13.4349 22.0955 14.1155 21.9969 14.7962 21.9081C14.3621 22.0561 13.9183 22.1744 13.4744 22.2731C13.0305 22.3717 12.5767 22.4605 12.123 22.5296C11.7679 22.5887 11.4029 22.6381 11.0478 22.6775C7.9209 23.1411 5.51407 23.1214 4.21201 22.8748C4.04432 22.717 3.86677 22.5493 3.67935 22.352C3.91609 22.4309 4.1331 22.4211 4.28106 22.3027C4.63616 22.0364 4.52766 21.3064 4.03446 20.6652C3.55112 20.0339 2.87049 19.738 2.51539 20.0142C2.3477 20.1424 2.27865 20.3891 2.31811 20.6652C1.39088 19.2251 0.68067 17.2325 1.03578 14.5101L1.0555 14.3917C1.0555 14.3522 1.06537 14.3128 1.07523 14.2733C1.0851 14.2043 1.09496 14.1352 1.11469 14.0563C1.12455 14.007 1.13442 13.9478 1.14428 13.8985C1.14428 13.8985 1.14428 13.8985 1.14428 13.9084C1.18374 13.7308 1.22319 13.5532 1.27251 13.3757C1.41061 12.8924 1.60789 12.4189 1.84463 11.9849C2.08137 11.541 2.36743 11.1365 2.67321 10.7518C2.98886 10.3671 3.33411 10.0219 3.70894 9.70626C3.37356 10.0614 3.05791 10.4362 2.79158 10.8406C2.52525 11.2451 2.29838 11.6692 2.12082 12.1131C1.93341 12.557 1.79531 13.0107 1.7164 13.4743C1.65721 13.8196 1.61776 14.1747 1.61776 14.5298C1.64735 14.2536 1.68681 13.9774 1.75585 13.7111C1.84463 13.3362 1.97286 12.9811 2.13069 12.6359C2.28851 12.3005 2.47593 11.975 2.70281 11.6692C2.36743 12.3301 2.16028 13.0502 2.1011 13.7604C2.06164 14.155 2.08137 14.5495 2.14055 14.9342C2.14055 14.9244 2.14055 14.9244 2.14055 14.9145C2.11096 14.4607 2.15042 14.007 2.25892 13.573C2.36743 13.139 2.55484 12.7345 2.81131 12.3794C2.61403 12.7641 2.49566 13.1883 2.4562 13.6124C2.41675 14.0366 2.43648 14.4607 2.52525 14.8652C2.61403 15.2696 2.76199 15.6642 2.95927 16.0193C3.15655 16.3645 3.39329 16.69 3.65962 16.9859C4.22187 17.3904 4.8729 17.7356 5.62257 17.9033C5.62257 17.9033 6.55966 16.8774 7.32906 16.256C7.55593 15.9995 7.8124 15.7727 8.11818 15.5852C8.88758 15.1118 9.76548 14.9737 10.5842 15.1414C11.0478 13.139 12.3203 9.5287 12.9516 7.7729C13.0502 7.4967 13.2278 6.97391 13.2968 6.79635C10.4757 5.99736 7.54607 6.47084 5.08991 7.98991C1.14428 10.4362 -0.394515 15.3189 1.21333 19.5013C1.22319 19.5111 1.22319 19.5111 1.22319 19.521C1.40075 19.9945 1.60789 20.468 1.87422 20.9217C1.91368 20.9908 1.95314 21.0598 1.99259 21.119C2.1011 21.2867 2.2096 21.4642 2.31811 21.6319C2.70281 22.2139 3.12696 22.7564 3.58071 23.2792L4.09364 23.368ZM10.6533 8.04909C10.2784 8.05896 9.89372 8.07868 9.51888 8.11814C9.14405 8.1576 8.76921 8.20692 8.40424 8.27597C8.02941 8.34501 7.66444 8.43379 7.27974 8.53243C7.60525 8.31542 7.97022 8.1576 8.33519 8.03923C8.71003 7.92086 9.09473 7.85181 9.48929 7.81235C9.87399 7.7729 10.2686 7.7729 10.6631 7.80249C11.0478 7.84195 11.4424 7.91099 11.8073 8.03923C11.4226 8.03923 11.0379 8.03923 10.6533 8.04909ZM6.99368 7.62494C7.58552 7.36847 8.21682 7.20078 8.84812 7.10214C9.48929 7.0035 10.1403 6.99364 10.7815 7.07255C11.4226 7.15146 12.0441 7.29942 12.6359 7.55589C12.0046 7.48684 11.3832 7.43752 10.7618 7.43752C10.1403 7.43752 9.52875 7.47697 8.91717 7.56575C8.31546 7.65453 7.71376 7.79263 7.12191 7.97018C6.53007 8.14773 5.94809 8.37461 5.36611 8.62121C5.84945 8.20692 6.40183 7.8814 6.99368 7.62494ZM2.93954 14.2043C2.8409 14.2043 2.76199 13.9971 2.77185 13.7604C2.78172 13.5138 2.87049 13.3264 2.979 13.3264C3.07764 13.3264 3.15655 13.5335 3.14669 13.7703C3.13682 14.0169 3.03818 14.2043 2.93954 14.2043ZM5.30692 16.907C5.10964 17.1931 4.09364 16.7196 3.6103 15.9404C3.12696 15.1611 3.09737 14.224 3.39329 14.1254C3.70894 14.0169 3.89636 14.6778 4.40929 15.4373C4.93209 16.2165 5.56339 16.5322 5.30692 16.907Z" fill="black"/>
<path d="M16.3251 21.1585C16.039 21.0401 14.4213 20.3397 13.3264 19.521C13.3659 19.4125 13.3856 19.2942 13.4152 19.1856C14.6581 20.0635 16.3152 20.754 16.3941 20.7836L16.4336 20.8034H16.4829C18.801 20.8034 20.8231 19.8465 20.902 19.7972L20.9612 19.7676C20.9612 19.9057 20.9119 20.0142 20.8823 20.034C20.2609 20.4088 18.6136 21.0795 16.3251 21.1585Z" fill="black"/>
<path d="M21.1585 25.7847C20.3004 26.3173 19.383 26.7514 18.4163 27.0769C18.1895 27.1558 17.9527 27.2347 17.716 27.2939C17.4497 27.3728 17.1932 27.432 16.9269 27.4912C16.8874 27.501 16.8479 27.5109 16.8085 27.5208C17.7456 27.2051 18.6037 26.8303 19.2844 26.4456L19.1857 25.5578C17.4299 26.4061 14.4214 27.1657 11.8962 27.6786C11.2846 27.5997 10.6829 27.4714 10.1009 27.3038C9.86417 27.2347 9.6373 27.1657 9.40056 27.0867C9.38083 27.0769 9.37097 27.0769 9.35124 27.067C12.7741 26.5146 17.499 25.5381 19.817 24.236L19.748 23.6639C17.0354 25.1928 11.7778 26.1595 8.27606 26.6527L7.27979 26.1694C10.7519 25.8143 16.9071 24.8673 20.9909 22.4802C20.9613 22.5295 20.6555 23.1411 20.5371 23.8908C20.4779 24.4333 20.7936 25.2323 21.1585 25.7847Z" fill="black"/>
<path d="M25.4197 12.4978C25.3112 12.5076 25.2422 12.6063 25.252 12.7049C25.252 12.7247 25.2619 12.7543 25.2718 12.774C25.3112 12.843 25.3803 12.8825 25.4592 12.8726C25.4789 12.8726 25.4888 12.8628 25.5085 12.8628C25.5874 12.8332 25.6367 12.7543 25.6269 12.6655C25.617 12.5668 25.5184 12.4879 25.4197 12.4978Z" fill="black"/>
<path d="M13.5927 1.32179C13.5237 1.33165 13.4744 1.39084 13.4744 1.45989C13.4744 1.47962 13.4842 1.48948 13.4842 1.50921C13.504 1.55853 13.5533 1.58812 13.6125 1.57826C13.6223 1.57826 13.6322 1.57826 13.6421 1.56839C13.7012 1.54866 13.7308 1.48948 13.7308 1.4303C13.721 1.36125 13.6618 1.31193 13.5927 1.32179Z" fill="black"/>
<path d="M21.8884 9.45965C21.7601 9.46951 21.6714 9.58788 21.6911 9.70625C21.6911 9.73584 21.701 9.76544 21.7108 9.78516C21.7503 9.86408 21.8391 9.9134 21.9377 9.90353C21.9574 9.90353 21.9772 9.89367 21.9969 9.89367C22.0955 9.85421 22.1547 9.76544 22.1448 9.65693C22.135 9.53856 22.0166 9.43992 21.8884 9.45965Z" fill="black"/>
<path d="M16.4434 5.18849C16.3152 5.19836 16.2264 5.31673 16.2462 5.4351C16.2462 5.46469 16.256 5.49428 16.2659 5.51401C16.3053 5.59292 16.3941 5.64224 16.4928 5.63238C16.5125 5.63238 16.5322 5.62251 16.5519 5.62251C16.6506 5.58306 16.7098 5.49428 16.6999 5.38578C16.6802 5.26741 16.5717 5.17863 16.4434 5.18849Z" fill="black"/>
<path d="M4.65584 6.40179C4.5276 6.41165 4.43883 6.53002 4.45856 6.64839C4.45856 6.67798 4.46842 6.70757 4.47828 6.7273C4.51774 6.80621 4.60652 6.85553 4.70516 6.84567C4.72489 6.84567 4.74461 6.83581 4.76434 6.83581C4.86298 6.79635 4.92217 6.70757 4.9123 6.59907C4.89257 6.4807 4.78407 6.39192 4.65584 6.40179Z" fill="black"/>
<path d="M23.7724 16.0982C23.6738 16.108 23.6047 16.1968 23.6146 16.2954C23.6146 16.3152 23.6244 16.3349 23.6343 16.3546C23.6639 16.4138 23.733 16.4533 23.8119 16.4533C23.8316 16.4533 23.8415 16.4533 23.8513 16.4434C23.9302 16.4138 23.9697 16.3448 23.9697 16.256C23.9598 16.1573 23.8711 16.0883 23.7724 16.0982Z" fill="black"/>
<path d="M24.2262 7.69401C24.1769 7.70387 24.1374 7.74333 24.1473 7.79265C24.1473 7.80251 24.1473 7.81238 24.1571 7.82224C24.1769 7.85183 24.2065 7.87156 24.2459 7.87156C24.2558 7.87156 24.2656 7.87156 24.2656 7.8617C24.3051 7.85183 24.3347 7.81238 24.3248 7.76306C24.3248 7.7236 24.2854 7.68415 24.2262 7.69401Z" fill="black"/>
<path d="M22.5493 23.1115C22.5 23.1214 22.4605 23.1608 22.4704 23.2102C22.4704 23.22 22.4704 23.2299 22.4803 23.2398C22.5 23.2694 22.5296 23.2891 22.569 23.2891C22.5789 23.2891 22.5888 23.2891 22.5888 23.2792C22.6282 23.2693 22.6578 23.2299 22.6479 23.1806C22.6381 23.151 22.5986 23.1115 22.5493 23.1115Z" fill="black"/>
<path d="M18.4852 3.19598C18.4359 3.20584 18.3964 3.2453 18.4063 3.29462C18.4063 3.30448 18.4063 3.31435 18.4162 3.32421C18.4359 3.3538 18.4655 3.37353 18.5049 3.37353C18.5148 3.37353 18.5247 3.37353 18.5247 3.36367C18.5641 3.3538 18.5937 3.31434 18.5839 3.26502C18.574 3.22557 18.5345 3.19598 18.4852 3.19598Z" fill="black"/>
<path d="M21.0303 4.96163C20.9711 5.70144 20.4779 5.80994 20.3793 5.82967V5.83953C20.9021 5.96777 21.0106 6.53988 21.0303 6.66812H21.0402C21.0599 6.53988 21.1684 5.96777 21.6912 5.83953V5.82967C21.5827 5.80994 21.0895 5.70144 21.0303 4.96163Z" fill="black"/>
<path d="M24.236 19.3928C24.1965 19.8958 23.8612 19.9747 23.7921 19.9846C24.1472 20.0734 24.2261 20.4581 24.236 20.5469C24.2459 20.4581 24.3248 20.0734 24.6799 19.9846C24.6207 19.9649 24.2853 19.8958 24.236 19.3928C24.236 19.3829 24.2459 19.3829 24.236 19.3928Z" fill="black"/>
<path d="M10.4559 3.13678C10.4165 3.59053 10.1206 3.65958 10.0515 3.66944C10.377 3.74835 10.4461 4.10346 10.4559 4.18237C10.4658 4.10346 10.5349 3.74835 10.8604 3.66944C10.8012 3.65958 10.5053 3.59053 10.4559 3.13678C10.4559 3.13678 10.4658 3.13678 10.4559 3.13678Z" fill="black"/>
<path d="M12.5471 16.9958C11.6988 15.6247 9.89364 15.2005 8.51267 16.0488C7.14156 16.8972 6.71741 18.7023 7.56572 20.0833C8.41403 21.4544 10.2192 21.8785 11.6001 21.0302C12.9712 20.1819 13.3954 18.3768 12.5471 16.9958ZM10.3079 20.7935C9.06506 20.9316 7.95042 20.0339 7.81232 18.7911C7.67422 17.5482 8.57185 16.4335 9.81473 16.2954C11.0576 16.1574 12.1722 17.055 12.3103 18.2979C12.4484 19.5407 11.5508 20.6554 10.3079 20.7935Z" fill="black"/>
<path d="M10.0515 20.1621C10.945 20.1621 11.6693 19.4379 11.6693 18.5444C11.6693 17.651 10.945 16.9267 10.0515 16.9267C9.15811 16.9267 8.43384 17.651 8.43384 18.5444C8.43384 19.4379 9.15811 20.1621 10.0515 20.1621Z" fill="black"/>
</svg>
